<svg version="1.2" xmlns="http://www.w3.org/2000/svg" viewBox="0 0 1640 664" width="800" height="370">
	<style>
		.s0 { fill: #080101 } 
		.s1 { fill: #000000 } 
	</style>
	<path id="AD &amp; JO SCANDINAVIA Din egna res" class="s0" aria-label="AD &amp; JO SCANDINAVIA
Din egna reseguide

Adventures &amp; Journeys from Scandinavia
- Since 2025 -"  d="m590.5 217.9h0.2l-0.2 1.1h-14.2l0.2-1.1q0.9-0.1 1.4-0.1 2.1-0.2 2.4-1.5 0.2-1.3-1-6h-9.9l-0.9 1.7q-1.9 3.3-2.1 4.1-0.1 0.8 0.6 1.3 0.8 0.4 2.7 0.5l-0.2 1.1h-8.9l0.2-1.1q1.6-0.3 2.5-1.2 0.9-0.9 2.7-3.9l14.2-24.2h1.2l5.6 23.2q1 3.9 1.6 5 0.7 1.1 1.9 1.1zm-14-20l-6.1 10.7h8.6zm12.9 20h0.1l-0.2 1.1h-14.2l0.2-1.1q0.9-0.1 1.4-0.1 2.2-0.2 2.4-1.5 0.2-1.3-0.9-6h-9.9l-1 1.7q-1.9 3.3-2 4.1-0.2 0.8 0.6 1.3 0.7 0.4 2.7 0.5l-0.2 1.1h-9l0.2-1.1q1.7-0.3 2.5-1.2 0.9-0.9 2.8-4l14.1-24.1h1.3l5.6 23.2q0.9 3.8 1.5 5 0.7 1.1 2 1.1zm-14.1-20l-6.1 10.7h8.6zm22.6 17.1l3.9-21.7q0.3-1.5-0.4-2.1-0.6-0.6-2.7-0.9l0.2-1.1h13.4q7.6 0 11.3 3.9 3.6 3.9 2.4 10.7-1.2 6.8-6.4 11-5.1 4.2-12.2 4.2h-13.9l0.2-1.1q1.9-0.1 2.9-0.8 1-0.7 1.3-2.1zm20.3-10.5q0.7-3.9 0.5-6.7-0.3-2.8-1.4-4.3-1-1.4-2.4-2.1-1.3-0.7-2.9-0.7-2.6 0-2.9 1.6l-4.1 22.6q-0.2 1.5 0.2 2 0.4 0.5 1.9 0.5 8.8 0 11.1-12.9zm-21.5 10.5l4-21.7q0.2-1.5-0.4-2.1-0.7-0.6-2.7-0.9l0.2-1.1h13.4q7.6 0 11.2 3.9 3.7 3.9 2.4 10.7-1.2 6.8-6.3 11-5.1 4.2-12.3 4.2h-13.9l0.2-1.1q1.9-0.1 2.9-0.8 1.1-0.7 1.3-2.1zm20.4-10.5q0.7-3.9 0.4-6.7-0.3-2.8-1.3-4.3-1.1-1.4-2.4-2.1-1.3-0.7-2.9-0.7-2.6 0-2.9 1.6l-4.1 22.6q-0.3 1.5 0.1 2 0.5 0.5 2 0.5 8.7 0 11.1-12.9zm49.6-2.9l0.2-1.1h9.1l-0.2 1.1q-1.5 0.1-2.1 0.5-0.7 0.3-1.5 1.3l-1.5 1.9q-1.8 2.2-5.2 5.9 1.4 2.4 2.3 3.3 1 0.7 2.2 0.7 1.5 0 2.9-1.6l0.8 0.5-0.9 1.1q-0.1 0.1-0.4 0.5-0.3 0.3-0.4 0.6-0.2 0.1-0.6 0.6-0.4 0.4-0.7 0.6-0.3 0.3-0.8 0.7-0.4 0.3-0.9 0.6-0.4 0.2-1 0.4-0.6 0.3-1.2 0.4-0.7 0.1-1.3 0.1-1.8 0-3-0.8-1.3-0.9-2.9-3.1-5.8 3.8-10.4 3.8-3.7 0-5.7-2.1-1.9-2.2-1.3-5.6 0.5-3.1 2.9-5.4 2.4-2.3 7.5-4.6-0.9-2.3-1.1-3.6-0.3-1.3 0-2.8 0.6-3.2 3.2-5 2.7-1.9 6.6-1.9 3.4 0 5.1 1.5 1.7 1.4 1.3 3.8-0.4 2.1-2.2 3.7-1.9 1.5-5.7 2.8l5 9.4q2.4-2.4 3.3-3.8 0.9-1.3 1.2-2.6 0.2-1-0.3-1.3-0.4-0.3-2.3-0.5zm-17.6 5.8q-0.5 2.8 1.1 5.9 1.6 3 4.4 3 1.6 0 4.2-1.7-1.2-2.1-4.1-8.2l-1.6-3.2q-2 1.1-2.9 2-0.9 0.9-1.1 2.2zm10.1-8.3q1.8-0.6 2.7-1.4 0.8-0.8 1.1-2.2 0.4-2.2-0.6-3.8-0.8-1.7-2.5-1.7-1 0-1.8 0.7-0.7 0.7-0.9 1.8-0.5 2.5 2 6.6zm6.3 2.5l0.2-1.1h9.1l-0.2 1.1q-1.4 0.1-2.1 0.5-0.6 0.3-1.4 1.3l-1.6 1.9q-1.7 2.2-5.1 5.9 1.4 2.4 2.3 3.3 0.9 0.7 2.2 0.7 1.5 0 2.8-1.6l0.8 0.5-0.9 1.1q0 0.1-0.3 0.5-0.3 0.3-0.5 0.6-0.2 0.1-0.5 0.6-0.4 0.4-0.7 0.6-0.4 0.3-0.8 0.7-0.5 0.3-1 0.6-0.4 0.2-1 0.4-0.5 0.3-1.2 0.4-0.6 0.1-1.3 0.1-1.7 0-3-0.8-1.2-0.9-2.8-3.1-5.9 3.8-10.5 3.8-3.7 0-5.7-2.1-1.9-2.2-1.3-5.6 0.6-3.1 3-5.4 2.4-2.3 7.5-4.6-0.9-2.3-1.2-3.6-0.2-1.3 0-2.8 0.6-3.2 3.2-5 2.7-1.9 6.7-1.9 3.3 0 5 1.5 1.8 1.4 1.3 3.8-0.3 2.1-2.2 3.7-1.9 1.5-5.6 2.8l4.9 9.4q2.4-2.4 3.3-3.8 1-1.3 1.2-2.6 0.2-1-0.2-1.3-0.5-0.3-2.4-0.5zm-17.5 5.8q-0.6 2.8 1 5.9 1.6 3 4.4 3 1.6 0 4.3-1.7-1.3-2.1-4.2-8.2l-1.5-3.2q-2 1.1-2.9 2-0.9 0.9-1.1 2.2zm10.1-8.3q1.8-0.6 2.6-1.4 0.9-0.8 1.1-2.2 0.4-2.2-0.5-3.8-0.9-1.7-2.5-1.7-1.1 0-1.8 0.7-0.8 0.7-1 1.8-0.4 2.5 2.1 6.6zm36.9 18.4q-0.2 0.9-0.9 1.7-0.8 0.7-0.8 1.1-0.1 0.7 0.3 1.1 0.5 0.4 1.4 0.4 1.5 0 2.3-0.9 0.8-0.9 1.2-3l4.5-24.4q0.3-1.8-0.5-2.4-0.8-0.7-3.4-0.8l0.2-1.1h15.5l-0.2 1.1q-2.5 0.2-3.4 1-0.9 0.7-1.3 3.1l-3.5 19.2q-0.8 4.7-3.7 7.1-2.8 2.5-7.4 2.5-3.3 0-5.2-1.6-1.9-1.6-1.4-4.2 0.2-1.3 1.3-2.2 1.1-1 2.4-1 1.2 0 2 1 0.8 1 0.6 2.3zm-1.2 0q-0.1 0.9-0.9 1.7-0.7 0.7-0.8 1.1-0.1 0.7 0.3 1.1 0.5 0.4 1.4 0.4 1.5 0 2.3-0.9 0.9-0.9 1.2-3l4.5-24.4q0.3-1.8-0.5-2.4-0.7-0.7-3.4-0.8l0.2-1.1h15.5l-0.2 1.1q-2.5 0.2-3.4 1-0.8 0.7-1.2 3.1l-3.5 19.2q-0.9 4.7-3.8 7.1-2.8 2.5-7.4 2.5-3.3 0-5.2-1.6-1.8-1.6-1.4-4.2 0.3-1.3 1.4-2.2 1.1-1 2.3-1 1.3 0 2.1 1 0.7 1 0.5 2.3zm40.4-28.9q6.7 0 10.2 4.4 3.6 4.5 2.4 11.2-1.2 6.8-6.4 11.2-5.2 4.4-12 4.4-6.8 0-10.4-4.3-3.6-4.4-2.4-11.3 1.3-6.8 6.5-11.2 5.2-4.4 12.1-4.4zm-0.3 1.4q-3.8 0-6.5 3.8-2.7 3.7-4 10.8-1.3 6.7 0.1 10.2 1.4 3.6 5.1 3.6 3.8 0 6.5-3.6 2.6-3.5 3.9-10.3 1.2-6.9-0.1-10.6-1.3-3.9-5-3.9zm-0.8-1.4q6.6 0 10.2 4.4 3.6 4.5 2.3 11.2-1.2 6.8-6.4 11.2-5.2 4.4-12 4.4-6.8 0-10.4-4.3-3.6-4.4-2.3-11.3 1.2-6.8 6.4-11.2 5.3-4.4 12.2-4.4zm-0.3 1.4q-3.9 0-6.6 3.8-2.7 3.7-4 10.8-1.2 6.7 0.1 10.2 1.4 3.6 5.2 3.6 3.8 0 6.4-3.6 2.7-3.5 3.9-10.3 1.2-6.9-0.1-10.6-1.3-3.9-4.9-3.9zm43.8-1.4q2.1 0 4.2 0.7 2.2 0.7 2.5 0.7 0.6 0 0.9-0.3 0.4-0.3 0.8-1.2h1.3l-1.7 9.6h-1.3q-0.5-4.2-2.4-6.2-1.9-2-4.6-2-2.2 0-3.8 1.2-1.4 1.2-1.8 3.2-0.3 1.6 0.4 2.7 0.8 1 3.2 2.3l5.9 3.2q1.9 1.1 2.9 3.3 0.9 2.3 0.5 4.7-0.8 4.2-4.3 6.8-3.4 2.5-8.3 2.5-2.4 0-4.6-0.7-2.2-0.8-2.7-0.8-0.9 0-1.6 1.5h-1.2l1.9-10.8h1.3q0.6 9.4 7.3 9.4 2.5 0 4.3-1.4 1.7-1.4 2.1-3.6 0.3-1.8-0.5-2.9-0.8-1.1-3.4-2.4l-2.7-1.4q-3.6-1.9-5-4.1-1.4-2.2-0.9-5.1 0.8-4.2 3.8-6.5 3-2.4 7.5-2.4zm-1.2 0q2.1 0 4.3 0.7 2.1 0.7 2.4 0.7 0.6 0 1-0.3 0.4-0.3 0.7-1.2h1.3l-1.7 9.6h-1.2q-0.5-4.2-2.5-6.2-1.9-2-4.5-2-2.3 0-3.8 1.2-1.5 1.2-1.9 3.2-0.3 1.6 0.5 2.7 0.7 1 3.1 2.3l5.9 3.2q2 1.1 2.9 3.3 1 2.3 0.5 4.7-0.7 4.2-4.2 6.8-3.5 2.5-8.4 2.5-2.4 0-4.6-0.7-2.2-0.8-2.6-0.8-1 0-1.6 1.5h-1.3l2-10.8h1.2q0.6 9.4 7.3 9.4 2.6 0 4.3-1.4 1.8-1.4 2.2-3.6 0.3-1.8-0.5-2.9-0.8-1.1-3.5-2.4l-2.7-1.4q-3.6-1.9-5-4.1-1.4-2.2-0.9-5.1 0.8-4.2 3.8-6.5 3-2.4 7.5-2.4zm28.2 29.1q2.9 0 5.5-1.4 2.7-1.4 5.6-4l1.1 1.1-0.7 0.7q-0.6 0.6-0.8 0.7-0.2 0.2-1 0.8-0.7 0.7-1.1 0.9-0.4 0.3-1.3 0.9-0.8 0.5-1.4 0.7-0.6 0.3-1.6 0.7-0.9 0.4-1.8 0.6-0.8 0.2-1.8 0.3-1.1 0.1-2.1 0.1-6.8 0-10.5-4.3-3.5-4.4-2.3-11.2 1.2-6.7 6.4-11.2 5.2-4.5 11.8-4.5 2.1 0 3.8 0.6 1.7 0.5 2.8 1 1.2 0.5 1.8 0.5 0.7 0 1.2-0.4 0.5-0.4 1.1-1.6h1.2l-1.8 10.3h-1.1q-0.3-1-0.6-1.8-0.4-0.9-1.1-2.3-0.8-1.4-1.6-2.4-0.9-1-2.4-1.7-1.4-0.8-3-0.8-4 0-6.7 3.6-2.7 3.6-3.9 10.4-2.5 13.7 6.3 13.7zm-1.1 0q2.9 0 5.5-1.4 2.6-1.4 5.6-4l1.1 1.1-0.7 0.7q-0.7 0.6-0.9 0.7-0.2 0.2-0.9 0.8-0.8 0.7-1.2 0.9-0.4 0.3-1.2 0.9-0.9 0.5-1.5 0.7-0.6 0.3-1.5 0.7-1 0.4-1.8 0.6-0.9 0.2-1.9 0.3-1 0.1-2.1 0.1-6.8 0-10.4-4.3-3.6-4.4-2.3-11.2 1.2-6.7 6.4-11.2 5.2-4.5 11.7-4.5 2.1 0 3.8 0.6 1.8 0.5 2.9 1 1.1 0.5 1.8 0.5 0.6 0 1.1-0.4 0.5-0.4 1.2-1.6h1.2l-1.9 10.3h-1.1q-0.3-1-0.6-1.8-0.3-0.9-1.1-2.3-0.7-1.4-1.6-2.4-0.9-1-2.3-1.7-1.4-0.8-3.1-0.8-3.9 0-6.6 3.6-2.8 3.6-4 10.4-2.5 13.7 6.4 13.7zm45.9 0.2h0.1l-0.2 1.1h-14.2l0.2-1.1q0.9-0.1 1.4-0.1 2.2-0.2 2.4-1.5 0.2-1.3-0.9-6h-9.9l-1 1.7q-1.9 3.3-2 4.1-0.2 0.8 0.6 1.3 0.7 0.4 2.7 0.5l-0.2 1.1h-9l0.2-1.1q1.7-0.3 2.5-1.2 0.9-0.9 2.8-4l14.1-24.1h1.3l5.6 23.2q0.9 3.8 1.5 5 0.7 1.1 2 1.1zm-14.1-20l-6.1 10.7h8.6zm12.9 20h0.2l-0.2 1.1h-14.3l0.2-1.1q1-0.2 1.5-0.2 2.1-0.1 2.3-1.4 0.3-1.3-0.9-6h-9.9l-1 1.7q-1.8 3.3-2 4.1-0.1 0.8 0.6 1.2 0.8 0.4 2.7 0.6l-0.2 1.1h-8.9l0.2-1.1q1.6-0.3 2.5-1.2 0.9-0.9 2.7-4l14.2-24.1h1.2l5.6 23.2q0.9 3.8 1.6 5 0.6 1.1 1.9 1.1zm-14-20l-6.1 10.7h8.6zm23.7-8.7h9.3l11.9 18.9 2.4-13.4q0.5-2.4-0.2-3.2-0.7-1-3.1-1.2l0.2-1.1h9.5l-0.2 1.1q-2.2 0.4-3 1-0.7 0.7-1.1 2.5l-4.7 26h-1.2l-15.3-24-3.3 17.7q-0.4 2.3 0.2 3.2 0.7 0.9 3.2 1.2l-0.2 1.1h-10l0.2-1.1q2.5-0.3 3.3-1 0.9-0.7 1.2-2.6l3.8-20.8q-1.2-1.9-1.8-2.5-0.7-0.7-1.3-0.7zm-1.2 0h9.3l11.9 18.9 2.5-13.4q0.4-2.4-0.3-3.2-0.7-1-3-1.2l0.2-1.1h9.4l-0.2 1.1q-2.2 0.4-3 1-0.7 0.7-1 2.5l-4.8 26h-1.2l-15.3-24-3.2 17.7q-0.4 2.3 0.2 3.2 0.7 0.9 3.2 1.2l-0.2 1.1h-10l0.2-1.1q2.5-0.3 3.3-1 0.8-0.7 1.2-2.6l3.8-20.8q-1.3-1.9-1.9-2.5-0.6-0.7-1.3-0.7zm33.1 25.8l4-21.7q0.2-1.5-0.5-2.1-0.6-0.7-2.7-0.9l0.2-1.1h13.5q7.6 0 11.2 3.9 3.7 3.9 2.4 10.7-1.2 6.8-6.3 11-5.1 4.2-12.3 4.2h-13.9l0.2-1.1q1.9-0.1 2.9-0.8 1-0.7 1.3-2.1zm20.4-10.6q0.7-3.8 0.4-6.6-0.3-2.9-1.4-4.3-1-1.5-2.3-2.1-1.3-0.7-3-0.7-2.6 0-2.8 1.6l-4.2 22.6q-0.2 1.5 0.2 2 0.4 0.5 1.9 0.5 8.8 0 11.2-13zm-21.6 10.6l4-21.7q0.3-1.5-0.4-2.1-0.7-0.7-2.7-0.9l0.2-1.1h13.4q7.6 0 11.3 3.9 3.6 3.9 2.4 10.7-1.3 6.8-6.4 11-5.1 4.2-12.2 4.2h-13.9l0.2-1.1q1.9-0.1 2.9-0.8 1-0.7 1.2-2.1zm20.4-10.6q0.7-3.8 0.4-6.6-0.3-2.9-1.3-4.3-1.1-1.5-2.4-2.1-1.3-0.7-2.9-0.7-2.6 0-2.9 1.6l-4.1 22.6q-0.3 1.5 0.1 2 0.5 0.5 2 0.5 8.7 0 11.1-13zm14.6 10.3l3.9-21.3q0.3-1.6-0.5-2.2-0.7-0.7-3-0.9l0.2-1.1h15.4l-0.2 1.1q-2.4 0.1-3.4 0.8-1 0.6-1.4 2.3l-3.8 21.3q-0.3 1.8 0.4 2.4 0.7 0.6 3.2 0.8l-0.2 1.1h-15.4l0.2-1.1q2.5-0.3 3.4-0.9 0.9-0.6 1.2-2.3zm-1.1 0l3.9-21.3q0.3-1.6-0.5-2.2-0.7-0.7-3.1-0.9l0.2-1.1h15.4l-0.2 1.1q-2.4 0.1-3.4 0.8-1 0.6-1.3 2.3l-3.9 21.3q-0.3 1.8 0.4 2.4 0.7 0.6 3.2 0.8l-0.2 1.1h-15.4l0.2-1.1q2.5-0.3 3.4-0.9 1-0.6 1.3-2.3zm20.2-25.5h9.3l11.9 18.9 2.4-13.4q0.4-2.4-0.2-3.2-0.7-1-3.1-1.2l0.2-1.1h9.5l-0.2 1.1q-2.2 0.4-3 1-0.8 0.7-1.1 2.5l-4.7 26h-1.2l-15.4-24-3.2 17.7q-0.4 2.3 0.2 3.2 0.7 0.9 3.2 1.2l-0.2 1.1h-10l0.2-1.1q2.5-0.3 3.3-1 0.9-0.7 1.2-2.6l3.8-20.8q-1.2-1.9-1.8-2.5-0.7-0.7-1.3-0.7zm-1.2 0h9.3l11.9 18.9 2.5-13.4q0.4-2.4-0.3-3.2-0.7-1-3-1.2l0.2-1.1h9.4l-0.2 1.1q-2.2 0.4-3 1-0.7 0.7-1.1 2.5l-4.7 26h-1.2l-15.3-24-3.2 17.7q-0.5 2.3 0.2 3.2 0.7 0.9 3.2 1.2l-0.2 1.1h-10l0.2-1.1q2.4-0.3 3.3-1 0.8-0.7 1.2-2.6l3.8-20.8q-1.3-1.9-1.9-2.5-0.6-0.7-1.3-0.7zm58.7 28.7h0.1l-0.2 1.1h-14.2l0.2-1.1q0.9-0.2 1.4-0.2 2.1-0.1 2.4-1.4 0.2-1.3-1-6h-9.9l-0.9 1.7q-1.9 3.3-2 4.1-0.2 0.8 0.6 1.2 0.7 0.4 2.6 0.6l-0.2 1.1h-8.9l0.2-1.1q1.7-0.3 2.5-1.2 0.9-0.9 2.8-4l14.1-24.1h1.2l5.6 23.2q1 3.8 1.6 5 0.7 1.1 2 1.1zm-14.1-20l-6.1 10.7h8.6zm12.9 20h0.2l-0.2 1.1h-14.3l0.2-1.1q1-0.2 1.4-0.2 2.2-0.1 2.4-1.4 0.3-1.3-0.9-6h-9.9l-1 1.7q-1.9 3.3-2 4.1-0.2 0.8 0.6 1.2 0.8 0.4 2.7 0.6l-0.2 1.1h-9l0.2-1.1q1.7-0.3 2.6-1.2 0.9-0.9 2.7-4l14.2-24.1h1.2l5.6 23.1q0.9 3.9 1.5 5.1 0.7 1.1 2 1.1zm-14.1-20l-6 10.7h8.5zm40.9-8.7h9.4l-0.2 1.1q-1.8 0.2-2.7 0.9-0.8 0.6-2 2.7l-14.7 25.8h-1.2l-6.5-26.3q-0.5-1.8-1-2.3-0.5-0.6-2.1-0.8l0.2-1.1h14.8l-0.2 1.1q-1.3 0.1-1.5 0.1-2.3 0.1-2.6 1.6-0.1 0.8 0.4 3.1l3.4 14.7 8.3-14.4q1.3-2.3 1.4-3.2 0.2-1-0.4-1.4-0.7-0.3-3-0.5zm-1.2 0h9.4l-0.2 1.1q-1.8 0.2-2.6 0.9-0.9 0.6-2 2.7l-14.8 25.8h-1.1l-6.5-26.3q-0.5-1.8-1-2.3-0.6-0.6-2.1-0.8l0.2-1.1h14.7l-0.2 1.1q-1.3 0.1-1.4 0.1-2.4 0.1-2.7 1.6-0.1 0.8 0.5 3.1l3.4 14.7 8.2-14.4q1.3-2.3 1.5-3.2 0.1-1-0.5-1.4-0.6-0.3-3-0.5zm12.5 25.5l3.9-21.3q0.3-1.6-0.5-2.3-0.7-0.6-3-0.8l0.2-1.1h15.4l-0.2 1.1q-2.5 0.1-3.5 0.8-1 0.6-1.3 2.3l-3.9 21.3q-0.3 1.7 0.4 2.4 0.8 0.6 3.2 0.8l-0.2 1.1h-15.4l0.2-1.1q2.6-0.3 3.5-0.9 0.9-0.6 1.2-2.3zm-1.2 0l3.9-21.3q0.3-1.6-0.4-2.3-0.8-0.6-3.1-0.8l0.2-1.1h15.4l-0.2 1.1q-2.4 0.1-3.4 0.8-1 0.6-1.3 2.3l-3.9 21.3q-0.3 1.7 0.4 2.4 0.7 0.6 3.2 0.8l-0.2 1.1h-15.4l0.2-1.1q2.5-0.3 3.4-0.9 0.9-0.6 1.2-2.3zm44.6 3.2h0.2l-0.2 1.1h-14.2l0.2-1.1q0.9-0.2 1.4-0.2 2.1-0.1 2.4-1.4 0.2-1.4-1-6h-9.9l-0.9 1.7q-1.9 3.3-2.1 4-0.1 0.9 0.7 1.3 0.7 0.4 2.6 0.6l-0.2 1.1h-8.9l0.2-1.1q1.6-0.4 2.5-1.2 0.9-0.9 2.7-4l14.2-24.1h1.2l5.6 23.1q1 3.9 1.6 5.1 0.7 1.1 1.9 1.1zm-14-20l-6.1 10.7h8.6zm12.9 19.9h0.2l-0.2 1.1h-14.3l0.2-1.1q0.9-0.1 1.4-0.1 2.2-0.1 2.4-1.4 0.2-1.4-0.9-6h-9.9l-1 1.7q-1.9 3.3-2 4-0.2 0.9 0.6 1.3 0.8 0.4 2.7 0.5l-0.2 1.1h-9l0.2-1.1q1.7-0.3 2.5-1.1 0.9-0.9 2.8-4l14.1-24.1h1.3l5.6 23.1q0.9 3.9 1.5 5 0.7 1.1 2 1.1zm-14.1-19.9l-6.1 10.7h8.6zm-361.4 39.6q0.1-0.7-0.3-0.9-0.4-0.2-1.8-0.4l0.2-0.8h9q4.4 0 6.4 2.3 2.1 2.2 1.4 6.2-1 5.2-5.6 8.7-4.6 3.5-10.5 3.5h-8.8l0.1-0.7q1.2-0.2 1.7-0.6 0.7-0.5 1.2-1.7l6.3-13.8q0.6-1.5 0.7-1.8zm4.6 0l-6.7 14.9q-0.6 1.4-0.6 1.6-0.2 1.1 1.4 1.1 4.4 0 7.5-3.5 1.6-1.8 2.7-4.4 1.3-2.6 1.7-5.2 1.1-5.6-4.1-5.6-1.4 0-1.9 1.1zm-5.5 0q0.2-0.7-0.2-0.9-0.4-0.2-1.8-0.4l0.2-0.8h8.9q4.4 0 6.5 2.3 2.1 2.2 1.3 6.2-0.9 5.2-5.5 8.7-4.6 3.5-10.5 3.5h-8.9l0.2-0.7q1.2-0.2 1.7-0.6 0.6-0.5 1.2-1.7l6.2-13.8q0.7-1.5 0.7-1.8zm4.7 0l-6.7 14.9q-0.6 1.4-0.7 1.6-0.2 1.1 1.5 1.1 4.4 0 7.4-3.5 1.6-1.8 2.8-4.4 1.2-2.6 1.7-5.2 1-5.6-4.1-5.6-1.4 0-1.9 1.1zm17.5 14.9l0.6-0.6 0.6 0.4q-2.1 2.4-3.4 3.3-1.2 0.9-2.6 0.9-0.9 0-1.4-0.5-0.5-0.6-0.3-1.4 0.1-0.8 0.7-2.2l3.1-6.6q0.3-1 0.4-1.3 0.1-0.5-0.3-0.7-0.4-0.2-1.4-0.2l0.2-0.8q3.6-0.3 6.4-0.9l-4.7 10.4q-0.5 1.1-0.6 1.6 0 0.2 0.1 0.3 0.1 0.1 0.3 0.1 0.8 0 2.3-1.8zm3-17.5q0.8 0 1.3 0.6 0.6 0.6 0.4 1.5-0.1 0.9-0.9 1.5-0.7 0.6-1.6 0.6-0.9 0-1.3-0.6-0.5-0.7-0.4-1.6 0.2-0.8 0.9-1.4 0.8-0.6 1.6-0.6zm-3.8 17.5l0.6-0.6 0.6 0.4q-2.1 2.4-3.4 3.3-1.2 0.9-2.6 0.9-0.9 0-1.4-0.5-0.5-0.6-0.4-1.4 0.2-0.8 0.8-2.2l3-6.6q0.4-1 0.5-1.3 0.1-0.5-0.3-0.7-0.4-0.2-1.4-0.2l0.2-0.8q3.6-0.3 6.4-0.9l-4.7 10.4q-0.5 1.1-0.6 1.6 0 0.2 0.1 0.3 0.1 0.1 0.3 0.1 0.7 0 2.3-1.8zm2.9-17.5q0.9 0 1.4 0.6 0.6 0.6 0.4 1.5-0.2 0.9-0.9 1.5-0.7 0.6-1.6 0.6-0.9 0-1.4-0.6-0.4-0.7-0.3-1.6 0.2-0.8 0.9-1.4 0.7-0.6 1.5-0.6zm10 6.9l-3.1 6.2q3.1-3.6 4.6-4.9 1.6-1.3 3.4-1.3 1.1 0 1.6 0.6 0.5 0.6 0.3 1.7-0.2 1.1-1.5 3.6l-1.7 3.4q-1.2 2.3-1.3 2.7-0.1 0.5 0.3 0.5 0.4 0 0.9-0.5 0.6-0.4 1.7-1.8l0.7 0.4q-1.8 2.2-3.1 3.1-1.3 0.9-2.6 0.9-1 0-1.5-0.5-0.4-0.5-0.3-1.3 0.3-1.5 1.6-4.1l2.7-5.2q0.2-0.5 0.2-0.6 0.1-0.3-0.1-0.4-0.2-0.3-0.5-0.3-0.5 0-1.2 0.5-0.7 0.4-1.2 1.1-1.8 1.8-3.2 4.2-1.4 2.3-3.3 6.3h-3.7l2.9-6.3q2.3-5 2.4-5.5 0.1-0.4-0.2-0.6-0.3-0.1-1.3-0.2l0.1-0.8q2.9-0.1 6.4-0.9zm-0.8 0l-3.1 6.2q3-3.6 4.6-4.9 1.6-1.3 3.4-1.3 1.1 0 1.6 0.6 0.4 0.6 0.2 1.7-0.2 1.1-1.4 3.6l-1.7 3.4q-1.2 2.3-1.3 2.7-0.1 0.5 0.3 0.5 0.4 0 0.9-0.5 0.5-0.4 1.7-1.8l0.6 0.4q-1.7 2.2-3 3.1-1.3 0.9-2.6 0.9-1 0-1.5-0.5-0.5-0.5-0.3-1.3 0.3-1.5 1.6-4.1l2.6-5.2q0.3-0.5 0.3-0.6 0.1-0.3-0.1-0.4-0.3-0.3-0.5-0.3-0.5 0-1.2 0.5-0.7 0.4-1.3 1.1-1.7 1.8-3.1 4.2-1.4 2.3-3.3 6.3h-3.7l2.9-6.3q2.3-5 2.4-5.5 0.1-0.4-0.2-0.6-0.4-0.1-1.3-0.2l0.1-0.8q2.9-0.1 6.4-0.9zm27.1 9.9l0.8 0.6q-1.8 2.3-3.3 3.2-1.6 1-3.3 1-2 0-3.1-1.3-1.1-1.3-0.8-3.2 0.7-3.9 4.1-7 3.3-3.2 6.7-3.2 1.4 0 2.2 0.8 0.8 0.7 0.6 1.9-0.2 0.7-0.6 1.4-0.4 0.7-1.3 1.6-0.9 0.9-2.8 1.7-1.8 0.8-4.4 1.3-0.4 0.9-0.5 1.5-0.4 2.6 1.6 2.6 1 0 1.8-0.6 1-0.7 2.3-2.3zm-4.8-2.2q2.4-0.8 3.9-2 1.6-1.3 2-3.6 0.2-1.1-0.7-1.1-2.3 0-5.2 6.7zm4 2.2l0.8 0.6q-1.8 2.3-3.3 3.2-1.6 1-3.3 1-2.1 0-3.2-1.3-1.1-1.3-0.7-3.2 0.7-3.9 4.1-7 3.3-3.2 6.7-3.2 1.4 0 2.2 0.8 0.8 0.7 0.5 1.9-0.1 0.7-0.5 1.4-0.4 0.7-1.3 1.6-0.9 0.9-2.8 1.7-1.9 0.8-4.4 1.3-0.4 0.9-0.5 1.5-0.4 2.6 1.6 2.6 0.9 0 1.8-0.6 0.9-0.7 2.3-2.3zm-4.8-2.2q2.4-0.8 3.9-2 1.6-1.3 2-3.6 0.2-1.1-0.7-1.1-2.3 0-5.2 6.7zm7 9.6q0-0.3 0.2-0.6 0.1-0.4 0.3-0.6 0.2-0.3 0.5-0.5 0.3-0.2 0.5-0.4 0.2-0.2 0.6-0.3 0.4-0.2 0.6-0.3 0.2 0 0.6-0.1 0.4-0.2 0.5-0.2 0.2 0 0.5-0.1l0.4-0.1q-1.8-0.6-1.6-2 0.2-0.9 0.8-1.4 0.6-0.5 2.7-1.6-2.3-1.1-1.8-3.4 0.4-2.4 2.7-4 2.3-1.7 5.2-1.7 2 0 3.2 1h3.4l-0.3 1.8h-2q0 0.6-0.1 1.3-0.3 1.6-1.3 2.8-1 1.1-2.3 1.7-1.3 0.5-2.4 0.8-1 0.2-1.7 0.2-0.5 0-0.9-0.1-0.4-0.2-0.6-0.2-0.3 0-0.7 0.4-0.3 0.4-0.4 0.8-0.1 0.7 1.4 1.1l1.5 0.5q2.4 0.7 3.3 1.6 0.9 0.9 0.6 2.3-0.3 2-2.7 3.3-2.3 1.3-5.5 1.3-2.7 0-4.1-0.8-1.4-0.9-1.1-2.5zm5.6-2.8q-0.5 0-1.6 0.9-1.1 0.8-1.3 1.8-0.2 1 0.6 1.7 0.9 0.7 2.4 0.7 1.7 0 2.8-0.6 1.1-0.6 1.3-1.6 0.2-1.1-1-1.7-0.4-0.2-1.7-0.7-1.3-0.5-1.5-0.5zm3.6-5.9q1.4 0 2.7-2 1.3-2 1.6-3.8 0.2-0.8-0.2-1.3-0.3-0.5-0.9-0.5-1.3 0-2.6 2-1.3 2-1.6 3.8-0.4 1.8 1 1.8zm-10.1 8.7q0.1-0.3 0.3-0.6 0.1-0.4 0.3-0.6 0.2-0.3 0.5-0.5 0.3-0.2 0.5-0.4 0.2-0.2 0.6-0.3 0.4-0.2 0.6-0.3 0.2 0 0.6-0.1 0.4-0.2 0.5-0.2 0.1 0 0.5-0.1l0.3-0.1q-1.8-0.6-1.5-2 0.1-0.9 0.8-1.4 0.6-0.5 2.7-1.6-2.3-1.1-1.8-3.4 0.4-2.4 2.7-4 2.3-1.7 5.2-1.7 2 0 3.2 1h3.4l-0.3 1.8h-2.1q0.1 0.6 0 1.3-0.3 1.6-1.3 2.8-1 1.1-2.4 1.7-1.3 0.5-2.3 0.8-1 0.2-1.7 0.2-0.5 0-1-0.1-0.3-0.2-0.5-0.2-0.4 0-0.7 0.4-0.4 0.4-0.4 0.8-0.2 0.7 1.3 1.1l1.6 0.5q2.4 0.7 3.3 1.6 0.9 0.9 0.6 2.3-0.4 2-2.7 3.3-2.3 1.3-5.5 1.3-2.7 0-4.1-0.8-1.4-0.9-1.2-2.5zm5.7-2.8q-0.5 0-1.6 0.9-1.2 0.8-1.3 1.8-0.2 1 0.6 1.7 0.8 0.7 2.4 0.7 1.7 0 2.8-0.6 1.1-0.6 1.3-1.6 0.2-1.1-1-1.7-0.4-0.2-1.7-0.7-1.3-0.5-1.5-0.5zm3.5-5.9q1.4 0 2.7-2 1.4-2 1.7-3.8 0.1-0.8-0.2-1.3-0.3-0.5-0.9-0.5-1.3 0-2.6 2-1.3 2-1.7 3.8-0.3 1.8 1 1.8zm19.5-8.6l-3.1 6.2q3.1-3.6 4.6-4.9 1.6-1.3 3.4-1.3 1.1 0 1.6 0.6 0.5 0.6 0.3 1.7-0.2 1.1-1.5 3.6l-1.7 3.4q-1.2 2.3-1.3 2.7-0.1 0.5 0.4 0.5 0.4 0 0.9-0.5 0.5-0.4 1.7-1.8l0.6 0.4q-1.8 2.2-3.1 3.1-1.2 0.9-2.6 0.9-1 0-1.5-0.5-0.4-0.5-0.3-1.3 0.3-1.5 1.6-4.1l2.7-5.2q0.2-0.5 0.3-0.6 0-0.3-0.2-0.4-0.2-0.3-0.5-0.3-0.4 0-1.1 0.5-0.7 0.4-1.3 1.1-1.8 1.8-3.2 4.2-1.4 2.3-3.2 6.3h-3.8l2.9-6.3q2.3-5 2.4-5.5 0.1-0.4-0.2-0.6-0.3-0.1-1.3-0.2l0.2-0.8q2.8-0.1 6.3-0.9zm-0.8 0l-3.1 6.2q3.1-3.6 4.6-4.9 1.6-1.3 3.4-1.3 1.1 0 1.6 0.6 0.5 0.6 0.3 1.7-0.2 1.1-1.5 3.6l-1.7 3.4q-1.2 2.3-1.3 2.7-0.1 0.5 0.3 0.5 0.5 0 0.9-0.5 0.6-0.4 1.7-1.8l0.7 0.4q-1.8 2.2-3.1 3.1-1.2 0.9-2.6 0.9-1 0-1.5-0.5-0.4-0.5-0.3-1.3 0.3-1.5 1.6-4.1l2.7-5.2q0.2-0.5 0.2-0.6 0.1-0.3-0.1-0.4-0.2-0.3-0.5-0.3-0.4 0-1.2 0.5-0.7 0.4-1.2 1.1-1.8 1.8-3.2 4.2-1.4 2.3-3.2 6.3h-3.8l2.9-6.3q2.3-5 2.4-5.5 0.1-0.4-0.2-0.6-0.3-0.1-1.3-0.2l0.1-0.8q2.9-0.1 6.4-0.9zm19.9 2.8q0.2-0.7-0.1-1.1-0.3-0.4-0.8-0.4-0.9 0-2.5 1.8-1.5 1.7-2.7 4-1.3 2.2-1.6 3.8-0.1 0.7 0.2 1.2 0.3 0.4 0.9 0.4 1.3 0 2.8-2 1.6-2.1 2.6-4.3 1-2.2 1.2-3.4zm2.7 7.6l0.6 0.5q-3.3 3.9-5.4 3.9-0.9 0-1.4-0.6-0.5-0.6-0.3-1.5 0.1-0.5 0.8-2.1-1.7 2.2-3.1 3.2-1.3 0.9-2.7 0.9-1.6 0-2.3-1-0.7-1.1-0.4-2.9 0.5-2.4 2.2-4.9 1.8-2.5 4.1-4.2 2.3-1.7 4.2-1.7 0.9 0 1.4 0.5 0.4 0.6 0.4 1.7l0.9-1.8 3.5-0.2-3.5 7.3q-1.7 3.6-1.9 4.6-0.1 0.5 0.3 0.5 0.4 0 0.9-0.5 0.5-0.4 1.7-1.7zm-3.5-7.6q0.1-0.7-0.2-1.1-0.2-0.4-0.7-0.4-1 0-2.5 1.8-1.5 1.7-2.8 4-1.2 2.2-1.5 3.8-0.1 0.7 0.2 1.2 0.3 0.4 0.9 0.4 1.2 0 2.8-2 1.6-2.1 2.6-4.3 1-2.2 1.2-3.4zm2.7 7.6l0.6 0.5q-3.3 3.9-5.4 3.9-0.9 0-1.4-0.6-0.5-0.6-0.3-1.5 0.1-0.5 0.8-2.1-1.8 2.2-3.1 3.2-1.3 0.9-2.8 0.9-1.5 0-2.2-1-0.7-1.1-0.4-2.9 0.4-2.4 2.2-4.9 1.8-2.5 4.1-4.2 2.3-1.7 4.1-1.7 1 0 1.5 0.5 0.4 0.6 0.4 1.7l0.9-1.8 3.5-0.2-3.5 7.3q-1.7 3.6-1.9 4.6-0.1 0.5 0.3 0.5 0.3 0 0.8-0.5 0.6-0.4 1.8-1.7zm23.8-6.1q-0.7 0-1.1-0.6-0.5-0.6-0.6-0.6-0.7 0-2.2 2.2-1.6 2-3.5 5.8-0.2 0.5-1.6 3.2h-3.7q5.1-10.6 5.3-11.8 0.1-0.4-0.2-0.6-0.3-0.1-1.4-0.2l0.2-0.8q4.1-0.4 6.4-0.9l-3.3 6.5q2.5-3.7 3.9-5.1 1.4-1.4 2.6-1.4 0.8 0 1.2 0.6 0.4 0.5 0.2 1.5-0.2 1-0.8 1.6-0.7 0.6-1.4 0.6zm-0.9 0q-0.6 0-1.1-0.6-0.4-0.6-0.5-0.6-0.7 0-2.2 2.2-1.6 2-3.5 5.8-0.2 0.5-1.6 3.2h-3.8q5.1-10.6 5.4-11.8 0-0.4-0.2-0.6-0.3-0.1-1.4-0.2l0.2-0.8q4.1-0.4 6.3-0.9l-3.2 6.5q2.5-3.7 3.9-5.1 1.4-1.4 2.6-1.4 0.8 0 1.2 0.6 0.4 0.5 0.2 1.5-0.2 1-0.8 1.6-0.7 0.6-1.5 0.6zm11.1 5.6l0.8 0.6q-1.8 2.3-3.4 3.2-1.5 1-3.3 1-2 0-3.1-1.3-1.1-1.3-0.8-3.2 0.7-3.9 4.1-7 3.4-3.2 6.7-3.2 1.5 0 2.2 0.8 0.8 0.7 0.6 1.9-0.1 0.7-0.5 1.4-0.4 0.7-1.4 1.6-0.9 0.9-2.7 1.7-1.9 0.8-4.5 1.3-0.3 0.9-0.4 1.5-0.5 2.6 1.5 2.6 1 0 1.9-0.6 0.9-0.7 2.3-2.3zm-4.9-2.2q2.4-0.8 4-2 1.5-1.3 2-3.6 0.1-1.1-0.7-1.1-2.3 0-5.3 6.7zm4 2.2l0.9 0.6q-1.9 2.3-3.4 3.2-1.5 1-3.3 1-2 0-3.1-1.3-1.1-1.3-0.8-3.2 0.7-3.9 4.1-7 3.4-3.2 6.7-3.2 1.4 0 2.2 0.8 0.8 0.7 0.6 1.9-0.1 0.7-0.6 1.4-0.4 0.7-1.3 1.6-0.9 0.9-2.8 1.7-1.8 0.8-4.4 1.3-0.3 0.9-0.4 1.5-0.5 2.6 1.5 2.6 1 0 1.9-0.6 0.9-0.7 2.2-2.3zm-4.8-2.2q2.4-0.8 4-2 1.5-1.3 1.9-3.6 0.2-1.1-0.6-1.1-2.3 0-5.3 6.7zm17-7.7q0.7 0 1.6 0.4 0.9 0.3 1.2 0.3 0.4 0 0.5-0.1 0.2-0.1 0.5-0.6h0.9l-1.5 4.8-0.9-0.1q0-1.9-0.5-2.8-0.5-0.9-1.5-0.9-0.8 0-1.3 0.5-0.5 0.4-0.7 1.2-0.1 0.6 0.4 1.6 0.5 1 1.1 1.9 0.6 0.9 1.1 2.1 0.4 1.3 0.2 2.3-0.3 1.8-1.8 3-1.6 1.1-3.5 1.1-0.8 0-1.7-0.3-0.9-0.3-1.1-0.3-0.7 0-1 0.6h-0.9l1.7-5.1 0.8 0.1q-0.1 4.1 2.2 4.1 0.7 0 1.3-0.5 0.6-0.5 0.8-1.2 0.1-0.7-0.4-1.7-0.4-1-1.1-1.9-0.6-0.9-1-2.1-0.5-1.3-0.2-2.5 0.3-1.7 1.6-2.8 1.3-1.1 3.2-1.1zm-0.8 0q0.7 0 1.6 0.4 0.9 0.3 1.2 0.3 0.3 0 0.5-0.1 0.2-0.1 0.5-0.6h0.9l-1.6 4.8-0.8-0.1q0-1.9-0.5-2.8-0.5-0.9-1.5-0.9-0.8 0-1.3 0.5-0.6 0.4-0.7 1.2-0.1 0.6 0.4 1.6 0.5 1 1.1 1.9 0.6 0.9 1 2.1 0.5 1.3 0.3 2.3-0.3 1.8-1.9 3-1.5 1.1-3.4 1.1-0.8 0-1.7-0.3-0.9-0.3-1.1-0.3-0.7 0-1 0.6h-0.9l1.6-5.1 0.9 0.1q-0.1 4.1 2.2 4.1 0.7 0 1.3-0.5 0.6-0.5 0.8-1.2 0.1-0.7-0.4-1.7-0.4-1-1.1-1.9-0.6-0.9-1.1-2.1-0.4-1.3-0.2-2.5 0.4-1.7 1.7-2.8 1.3-1.1 3.2-1.1zm15.1 9.9l0.8 0.6q-1.8 2.3-3.4 3.2-1.5 1-3.3 1-2 0-3.1-1.3-1.1-1.3-0.7-3.2 0.7-3.9 4.1-7 3.3-3.2 6.7-3.2 1.4 0 2.1 0.8 0.8 0.7 0.6 1.9-0.1 0.7-0.5 1.4-0.4 0.7-1.3 1.6-1 0.9-2.8 1.7-1.9 0.8-4.4 1.3-0.4 0.9-0.5 1.5-0.5 2.6 1.6 2.6 0.9 0 1.8-0.6 0.9-0.7 2.3-2.3zm-4.8-2.2q2.3-0.8 3.9-2 1.6-1.3 2-3.6 0.2-1.1-0.7-1.1-2.3 0-5.2 6.7zm4 2.2l0.8 0.6q-1.8 2.3-3.4 3.2-1.5 1-3.3 1-2 0-3.1-1.3-1.1-1.3-0.7-3.2 0.7-3.9 4-7 3.4-3.2 6.7-3.2 1.5 0 2.2 0.8 0.8 0.7 0.6 1.9-0.1 0.7-0.5 1.4-0.4 0.7-1.4 1.6-0.9 0.9-2.7 1.7-1.9 0.8-4.4 1.3-0.4 0.9-0.5 1.5-0.5 2.6 1.5 2.6 1 0 1.9-0.6 0.9-0.7 2.3-2.3zm-4.8-2.2q2.3-0.8 3.9-2 1.6-1.3 2-3.6 0.2-1.1-0.7-1.1-2.3 0-5.2 6.7zm6.9 9.6q0.1-0.3 0.2-0.6 0.2-0.4 0.4-0.6 0.2-0.3 0.5-0.5 0.2-0.2 0.5-0.4 0.2-0.2 0.6-0.3 0.3-0.2 0.5-0.3 0.3 0 0.7-0.1 0.4-0.2 0.5-0.2 0.1 0 0.5-0.1l0.3-0.1q-1.8-0.6-1.5-2 0.1-0.9 0.8-1.4 0.6-0.5 2.7-1.6-2.3-1.1-1.9-3.4 0.5-2.4 2.8-4 2.3-1.7 5.2-1.7 2 0 3.2 1h3.4l-0.3 1.8h-2.1q0.1 0.6 0 1.3-0.3 1.6-1.3 2.8-1.1 1.1-2.4 1.7-1.3 0.5-2.3 0.8-1 0.2-1.7 0.2-0.6 0-1-0.1-0.3-0.2-0.6-0.2-0.3 0-0.6 0.4-0.4 0.4-0.4 0.8-0.2 0.7 1.3 1.1l1.6 0.5q2.4 0.7 3.3 1.6 0.9 0.9 0.6 2.3-0.4 2-2.7 3.3-2.3 1.3-5.5 1.3-2.7 0-4.1-0.8-1.5-0.9-1.2-2.5zm5.7-2.8q-0.5 0-1.6 0.9-1.2 0.8-1.3 1.8-0.2 1 0.6 1.7 0.8 0.7 2.4 0.7 1.7 0 2.8-0.6 1.1-0.6 1.3-1.6 0.2-1.1-1-1.7-0.4-0.2-1.7-0.7-1.3-0.5-1.5-0.5zm3.5-5.9q1.4 0 2.7-2 1.4-2 1.7-3.8 0.1-0.8-0.2-1.3-0.3-0.5-0.9-0.5-1.3 0-2.6 2-1.3 2-1.7 3.8-0.3 1.8 1 1.8zm-10 8.7q0.1-0.3 0.2-0.6 0.2-0.4 0.3-0.6 0.2-0.3 0.5-0.5 0.3-0.2 0.5-0.4 0.3-0.2 0.7-0.3 0.3-0.2 0.5-0.3 0.3 0 0.6-0.1 0.4-0.2 0.6-0.2 0.1 0 0.5-0.1l0.3-0.1q-1.8-0.6-1.5-2 0.1-0.9 0.7-1.4 0.7-0.5 2.8-1.6-2.3-1.1-1.9-3.4 0.5-2.4 2.8-4 2.3-1.7 5.1-1.7 2.1 0 3.3 1h3.4l-0.3 1.8h-2.1q0.1 0.6 0 1.3-0.3 1.6-1.4 2.8-1 1.1-2.3 1.7-1.3 0.5-2.3 0.8-1 0.2-1.7 0.2-0.6 0-1-0.1-0.4-0.2-0.6-0.2-0.3 0-0.6 0.4-0.4 0.4-0.4 0.8-0.2 0.7 1.3 1.1l1.6 0.5q2.4 0.7 3.2 1.6 0.9 0.9 0.7 2.3-0.4 2-2.7 3.3-2.3 1.3-5.6 1.3-2.6 0-4.1-0.8-1.4-0.9-1.1-2.5zm5.7-2.8q-0.5 0-1.6 0.9-1.2 0.8-1.4 1.8-0.2 1 0.7 1.7 0.8 0.7 2.3 0.7 1.8 0 2.9-0.6 1.1-0.6 1.2-1.6 0.3-1.1-0.9-1.7-0.5-0.2-1.7-0.7-1.3-0.5-1.5-0.5zm3.5-5.9q1.4 0 2.7-2 1.3-2 1.7-3.8 0.1-0.8-0.2-1.3-0.3-0.5-0.9-0.5-1.4 0-2.7 2-1.3 2-1.6 3.8-0.3 1.8 1 1.8zm24.8 1.6l0.6 0.4q-3 4-5.7 4-2 0-1.7-1.8 0.2-1.2 1.4-3.5-3 3.4-4.3 4.4-1.3 0.9-2.9 0.9-2.3 0-1.9-2.3 0.2-1.1 1.3-3.3l2-4.1q0.7-1.4 0.8-2.3 0.1-0.5-0.2-0.6-0.3-0.2-1.4-0.3l0.2-0.8q1.9-0.1 6.6-0.9l-4.6 9.6q-0.8 1.5-0.9 2-0.1 0.8 0.6 0.8 0.8 0 2.5-1.7 1.7-1.7 2.9-3.7 1.3-2.1 3.4-6.6h3.7l-4 8.3q-1.2 2.7-1.3 3.2 0 0 0 0 0 0 0 0.1-0.1 0.5 0.3 0.5 0.7 0 2.6-2.3zm-0.8 0l0.6 0.4q-3 4-5.7 4-2 0-1.7-1.8 0.2-1.2 1.4-3.5-3 3.4-4.3 4.4-1.3 0.9-2.9 0.9-2.3 0-1.9-2.3 0.2-1.1 1.3-3.3l2-4.1q0.7-1.4 0.8-2.3 0.1-0.5-0.2-0.6-0.3-0.2-1.4-0.3l0.2-0.8q1.9-0.1 6.6-0.9l-4.6 9.6q-0.8 1.5-0.9 2-0.1 0.8 0.5 0.8 0.9 0 2.6-1.7 1.7-1.7 2.9-3.7 1.3-2.1 3.4-6.6h3.6l-3.9 8.3q-1.2 2.7-1.3 3.2 0 0 0 0-0.1 0-0.1 0.1-0.1 0.5 0.4 0.5 0.7 0 2.6-2.3zm10 0.4l0.5-0.6 0.6 0.4q-2.1 2.4-3.3 3.3-1.2 0.9-2.6 0.9-1 0-1.5-0.5-0.5-0.6-0.3-1.4 0.1-0.8 0.8-2.2l3-6.6q0.4-1 0.4-1.3 0.1-0.5-0.3-0.7-0.3-0.2-1.3-0.2l0.1-0.8q3.7-0.3 6.4-0.9l-4.7 10.4q-0.5 1.1-0.5 1.6-0.1 0.2 0 0.3 0.1 0.1 0.3 0.1 0.8 0 2.4-1.8zm2.9-17.5q0.9 0 1.4 0.6 0.5 0.6 0.3 1.5-0.1 0.9-0.8 1.5-0.8 0.6-1.7 0.6-0.8 0-1.3-0.6-0.5-0.7-0.3-1.6 0.1-0.8 0.9-1.4 0.7-0.6 1.5-0.6zm-3.8 17.5l0.6-0.6 0.6 0.4q-2.1 2.4-3.3 3.3-1.3 0.9-2.7 0.9-0.9 0-1.4-0.5-0.5-0.6-0.3-1.4 0.1-0.8 0.8-2.2l3-6.6q0.4-1 0.4-1.3 0.1-0.5-0.3-0.7-0.4-0.2-1.4-0.2l0.2-0.8q3.6-0.3 6.4-0.9l-4.7 10.4q-0.5 1.1-0.6 1.6 0 0.2 0.1 0.3 0.1 0.1 0.3 0.1 0.8 0 2.3-1.8zm3-17.5q0.8 0 1.3 0.6 0.6 0.6 0.4 1.5-0.1 0.9-0.9 1.5-0.7 0.6-1.6 0.6-0.9 0-1.3-0.6-0.5-0.7-0.3-1.6 0.1-0.8 0.8-1.4 0.8-0.6 1.6-0.6zm14.4 17.2l0.6 0.5q-1.6 2-2.9 2.9-1.3 1-2.4 1-0.9 0-1.3-0.5-0.4-0.5-0.2-1.4 0-0.5 0.7-2.1-1.8 2.2-3.1 3.1-1.4 0.9-2.8 0.9-1.4 0-2.2-1-0.7-1.2-0.4-2.8 0.4-2.4 2.2-4.9 1.8-2.6 4.1-4.3 2.3-1.7 4.1-1.7 1.2 0 2.1 1l0.9-2.1q1.5-3.1 1.6-3.6 0.1-0.9-1.1-0.9h-0.7l0.2-0.8q4-0.3 6.6-0.9l-5.7 12.5q-3 6.4-3.1 6.9 0 0.2 0.1 0.3 0.1 0.1 0.2 0.1 0.8 0 2.5-2.2zm-2.3-7.4q0.1-0.7-0.2-1.1-0.2-0.5-0.8-0.5-1.2 0-2.8 1.9-1.6 2-2.7 4.2-1.1 2.1-1.3 3.3-0.2 0.8 0.1 1.3 0.3 0.5 0.8 0.5 1.3 0 2.9-2.1 1.6-2.1 2.7-4.4 1.1-2.2 1.3-3.1zm1.5 7.4l0.6 0.5q-1.7 2-2.9 2.9-1.3 1-2.4 1-0.9 0-1.3-0.5-0.4-0.5-0.3-1.4 0.1-0.5 0.8-2.1-1.8 2.2-3.1 3.1-1.4 0.9-2.8 0.9-1.5 0-2.2-1-0.7-1.2-0.4-2.8 0.4-2.4 2.2-4.9 1.8-2.6 4-4.3 2.4-1.7 4.2-1.7 1.2 0 2 1l1-2.1q1.5-3.1 1.6-3.6 0.1-0.9-1.2-0.9h-0.6l0.1-0.8q4.1-0.3 6.7-0.9l-5.7 12.5q-3 6.4-3.1 6.9 0 0.2 0.1 0.3 0.1 0.1 0.2 0.1 0.7 0 2.5-2.2zm-2.4-7.4q0.2-0.7-0.1-1.1-0.3-0.5-0.8-0.5-1.2 0-2.8 1.9-1.6 2-2.7 4.2-1.1 2.1-1.3 3.3-0.2 0.8 0.1 1.3 0.3 0.5 0.8 0.5 1.2 0 2.9-2.1 1.6-2.1 2.7-4.4 1.1-2.2 1.2-3.1zm15.8 7l0.8 0.6q-1.8 2.3-3.3 3.2-1.6 1-3.3 1-2.1 0-3.2-1.3-1-1.3-0.7-3.2 0.7-3.9 4.1-7 3.3-3.2 6.7-3.2 1.4 0 2.2 0.8 0.8 0.7 0.5 1.9-0.1 0.7-0.5 1.4-0.4 0.7-1.3 1.6-0.9 0.9-2.8 1.7-1.8 0.8-4.4 1.3-0.4 0.9-0.5 1.5-0.4 2.6 1.6 2.6 0.9 0 1.8-0.6 0.9-0.7 2.3-2.3zm-4.8-2.2q2.4-0.8 3.9-2 1.6-1.3 2-3.6 0.2-1.1-0.7-1.1-2.3 0-5.2 6.7zm4 2.2l0.8 0.6q-1.8 2.3-3.3 3.2-1.6 1-3.4 1-2 0-3.1-1.3-1.1-1.3-0.7-3.2 0.7-3.9 4.1-7 3.3-3.2 6.7-3.2 1.4 0 2.2 0.8 0.7 0.7 0.5 1.9-0.1 0.7-0.5 1.4-0.4 0.7-1.3 1.6-1 0.9-2.8 1.7-1.9 0.8-4.4 1.3-0.4 0.9-0.5 1.5-0.4 2.6 1.6 2.6 0.9 0 1.8-0.6 0.9-0.7 2.3-2.3zm-4.8-2.2q2.4-0.8 3.9-2 1.6-1.3 2-3.6 0.2-1.1-0.7-1.1-2.3 0-5.2 6.7zm-344.4 67.2h0.1l-0.1 0.6h-8.4l0.1-0.6q0.5-0.1 0.8-0.1 1.3-0.1 1.4-0.9 0.2-0.7-0.5-3.5h-5.9l-0.6 1q-1.1 2-1.1 2.4-0.1 0.5 0.3 0.8 0.5 0.2 1.6 0.3l-0.1 0.6h-5.3l0.1-0.6q1-0.2 1.5-0.7 0.5-0.5 1.6-2.4l8.4-14.2h0.7l3.3 13.7q0.6 2.3 0.9 2.9 0.4 0.7 1.2 0.7zm-8.3-11.8l-3.6 6.3h5.1zm7.6 11.8h0.1l-0.1 0.7h-8.5l0.2-0.7q0.5-0.1 0.8-0.1 1.3-0.1 1.4-0.8 0.2-0.8-0.5-3.6h-5.9l-0.6 1q-1.1 2-1.2 2.4 0 0.5 0.4 0.8 0.5 0.2 1.6 0.3l-0.1 0.7h-5.3l0.1-0.7q1-0.2 1.5-0.7 0.5-0.5 1.6-2.3l8.4-14.3h0.7l3.3 13.7q0.6 2.3 0.9 3 0.4 0.6 1.2 0.6zm-8.3-11.8l-3.6 6.3h5.1zm18.1 12.8l0.4-1.7q-1.1 1-2 1.4-0.8 0.3-1.8 0.3-2.1 0-3.1-1.7-1-1.7-0.5-4.4 0.5-2.8 2.2-4.7 1.8-1.8 4-1.8 0.9 0 1.5 0.3 0.6 0.4 1.3 1.3l0.8-4.8q0.2-0.9-0.1-1.1-0.3-0.3-1.6-0.4l0.2-0.6h5.5l-2.7 14.9q-0.1 0.9 0.1 1.2 0.3 0.3 1.2 0.4l-0.1 0.6-1.7 0.2q-2.2 0.2-3.6 0.6zm-2-1.4q0.9 0 1.7-0.7 0.8-0.8 0.9-1.1l1.1-6.4q-0.1-0.7-0.6-1.1-0.5-0.5-1.1-0.5-2.2 0-3.1 4.9-0.9 4.9 1.1 4.9zm1.4 1.4l0.3-1.7q-1.1 1-1.9 1.4-0.9 0.3-1.9 0.3-2.1 0-3.1-1.7-1-1.7-0.5-4.4 0.5-2.8 2.3-4.7 1.7-1.8 3.9-1.8 0.9 0 1.5 0.3 0.6 0.4 1.3 1.3l0.9-4.8q0.1-0.9-0.2-1.1-0.3-0.3-1.5-0.4l0.1-0.6h5.6l-2.8 14.9q-0.1 0.9 0.1 1.2 0.3 0.3 1.2 0.4l-0.1 0.6-1.7 0.2q-2.1 0.2-3.5 0.6zm-2.1-1.4q0.9 0 1.7-0.7 0.8-0.8 0.9-1.1l1.1-6.4q-0.1-0.7-0.6-1.1-0.5-0.5-1.1-0.5-2.2 0-3.1 4.9-0.9 4.9 1.1 4.9zm18.8-10.9h3.9l-0.1 0.6q-0.6 0.1-0.9 0.3-0.3 0.3-0.8 1.1l-6.1 10.3h-0.6l-1.8-7.7q-0.1-0.5-0.3-1.3-0.3-0.9-0.5-1.6-0.2-0.7-0.2-0.7-0.1-0.3-0.8-0.4l0.1-0.6h6.5l-0.1 0.6q-0.5 0.1-0.5 0.1-0.9 0-1 0.6-0.1 0.2 0.1 0.8l1.1 5.3 2.7-4.8q0.4-0.7 0.5-1.1 0.1-0.5-0.2-0.7-0.3-0.1-1.1-0.2zm-0.7 0h4l-0.2 0.6q-0.6 0.1-0.9 0.3-0.3 0.3-0.8 1.2l-6.1 10.3h-0.6l-1.8-7.7q-0.1-0.5-0.3-1.4-0.3-0.9-0.5-1.6-0.2-0.7-0.2-0.7-0.1-0.3-0.8-0.4l0.1-0.6h6.5l-0.1 0.6q-0.5 0.1-0.5 0.1-0.9 0.1-1 0.6-0.1 0.2 0.1 0.8l1.1 5.3 2.7-4.7q0.4-0.8 0.5-1.2 0.1-0.5-0.2-0.6-0.3-0.2-1.1-0.3zm15 5.7h-6.6q-0.1 0.7-0.1 1.2 0 0.6 0 1.3 0.1 0.7 0.3 1.2 0.3 0.4 0.8 0.8 0.5 0.3 1.2 0.3 0.9 0 1.6-0.4 0.7-0.4 1.7-1.3l0.6 0.3q-1.6 1.9-2.9 2.6-1.2 0.7-2.8 0.7-2.4 0-3.6-1.7-1.1-1.8-0.6-4.6 0.5-2.9 2.3-4.6 1.8-1.8 4.3-1.8 4.4 0 3.8 6zm-3.1-1l0.1-0.4q0.1-0.8 0.2-1.3 0-0.4 0-1 0-0.5-0.1-0.8-0.1-0.3-0.4-0.5-0.2-0.2-0.7-0.2-0.9 0-1.5 0.9-0.6 0.9-1 3.3zm2.3 1h-6.6q-0.1 0.7-0.1 1.2 0 0.6 0 1.3 0.1 0.7 0.3 1.2 0.3 0.4 0.8 0.8 0.5 0.3 1.3 0.3 0.8 0 1.5-0.4 0.8-0.4 1.7-1.3l0.6 0.3q-1.6 1.9-2.9 2.6-1.2 0.7-2.8 0.7-2.4 0-3.6-1.7-1.1-1.8-0.6-4.6 0.5-2.9 2.3-4.6 1.9-1.8 4.3-1.8 4.5 0 3.8 6zm-3-1v-0.4q0.2-0.8 0.2-1.3 0.1-0.4 0.1-1 0-0.5-0.2-0.8-0.1-0.3-0.3-0.5-0.3-0.2-0.7-0.2-1 0-1.6 0.9-0.5 0.9-1 3.3zm13.2-3.2q-0.7 0-1.6 0.6-0.9 0.6-0.9 0.9l-1.3 6.9q-0.1 0.7 0.1 1.1 0.2 0.3 0.9 0.4l-0.1 0.6h-6.3l0.2-0.6q0.9-0.2 1.2-0.5 0.3-0.3 0.4-1.1l1.4-7.6q0.2-0.8-0.1-1.1-0.2-0.3-1-0.4l0.1-0.7h5l-0.4 2q1.9-2.3 4.2-2.3 1.6 0 2.3 1 0.8 1 0.5 2.7l-1.2 6.5q-0.1 0.8 0.1 1.2 0.2 0.2 0.9 0.3l-0.1 0.6h-6.1l0.1-0.6q0.7-0.1 1-0.4 0.4-0.4 0.5-1.1l1.2-6.3q0.3-2.1-1-2.1zm-0.7 0q-0.7 0-1.6 0.6-0.9 0.6-0.9 0.9l-1.3 6.9q-0.1 0.7 0.1 1.1 0.2 0.3 0.9 0.4l-0.1 0.6h-6.2l0.1-0.6q0.9-0.2 1.2-0.5 0.3-0.3 0.4-1.1l1.4-7.6q0.2-0.8 0-1.1-0.2-0.3-1.1-0.4l0.1-0.7h5l-0.3 2q1.8-2.3 4.1-2.3 1.6 0 2.3 1 0.8 1 0.5 2.7l-1.2 6.5q-0.1 0.8 0.1 1.2 0.2 0.2 0.9 0.3l-0.1 0.6h-6.1l0.1-0.6q0.7-0.1 1-0.4 0.4-0.4 0.5-1.1l1.2-6.3q0.4-2.1-1-2.1zm13.5-1.5h2.5l-0.2 1.2h-2.5l-1.4 7.8q-0.1 0.8 0 1.1 0.2 0.4 0.7 0.4 0.8 0 1.8-1.4l0.6 0.3q-1.1 1.6-2.1 2.3-1 0.6-2.3 0.6-1.4 0-2-0.7-0.7-0.7-0.4-2l1.5-8.4h-1.3l0.1-0.7q1.5-1.1 2.6-2.1 1.1-1.1 2.6-2.8h0.6zm-0.6 0h2.4l-0.2 1.2h-2.5l-1.4 7.8q-0.1 0.8 0 1.2 0.2 0.3 0.8 0.3 0.7 0 1.7-1.4l0.6 0.3q-1.1 1.6-2.1 2.3-1 0.6-2.3 0.6-1.3 0-2-0.7-0.6-0.7-0.4-2l1.5-8.4h-1.3l0.1-0.7q1.5-1.1 2.6-2.1 1.1-1.1 2.6-2.8h0.7zm11.4 12.4l0.4-1.7q-1.4 1-2.2 1.3-0.9 0.4-1.9 0.4-1.6 0-2.4-1-0.7-0.9-0.4-2.6l1.2-6.6q0.1-0.8-0.1-1.1-0.2-0.3-1-0.4l0.1-0.7h5l-1.6 8.9q-0.2 0.9 0 1.4 0.3 0.4 1.1 0.4 1 0 2.3-1.1l1.4-7.4q0.1-0.8-0.2-1.1-0.2-0.4-1.2-0.4l0.1-0.7h5.3l-1.7 9.4q-0.2 0.8 0.1 1.2 0.3 0.3 1.1 0.3l-0.1 0.6-1.7 0.2q-2.2 0.2-3.6 0.7zm-0.6 0l0.3-1.7q-1.4 1-2.2 1.3-0.9 0.4-1.9 0.4-1.6 0-2.4-1-0.7-0.9-0.4-2.6l1.2-6.6q0.1-0.8-0.1-1.1-0.2-0.3-1-0.4l0.1-0.7h5l-1.6 8.9q-0.2 0.9 0 1.4 0.3 0.4 1.1 0.4 1 0 2.3-1.1l1.4-7.4q0.1-0.8-0.1-1.1-0.3-0.4-1.2-0.4l0.1-0.7h5.2l-1.7 9.4q-0.2 0.8 0.1 1.2 0.3 0.3 1.1 0.3l-0.1 0.6-1.7 0.2q-2.2 0.2-3.5 0.7zm17.9-8.9q-0.6 0-1-0.4-0.4-0.4-0.6-0.7-0.2-0.4-0.4-0.4-0.7 0-1.3 0.7-0.6 0.7-0.8 1.7l-0.9 5q-0.2 1.2 0.1 1.6 0.3 0.3 1.5 0.4l-0.1 0.6h-6.9l0.1-0.6q0.9-0.1 1.2-0.4 0.3-0.3 0.4-1.2l1.4-7.6q0.2-0.8-0.1-1.1-0.2-0.3-1-0.4l0.1-0.7h4.9l-0.4 2.2q1.2-1.3 2.1-1.9 0.9-0.6 1.9-0.6 0.9 0 1.4 0.6 0.5 0.6 0.3 1.5-0.1 0.7-0.7 1.2-0.5 0.5-1.2 0.5zm-0.7 0q-0.6 0-1-0.4-0.4-0.4-0.6-0.7-0.2-0.4-0.4-0.4-0.7 0-1.3 0.7-0.6 0.7-0.7 1.7l-0.9 5q-0.3 1.2 0 1.6 0.3 0.3 1.5 0.4l-0.1 0.6h-6.9l0.1-0.6q0.9-0.1 1.2-0.4 0.3-0.3 0.5-1.2l1.3-7.6q0.2-0.8 0-1.1-0.2-0.3-1.1-0.4l0.2-0.7h4.9l-0.4 2.2q1.1-1.3 2-1.9 1-0.6 1.9-0.6 0.9 0 1.4 0.6 0.5 0.6 0.4 1.5-0.2 0.7-0.7 1.2-0.6 0.5-1.3 0.5zm13.4 2.2h-6.5q-0.1 0.7-0.1 1.2-0.1 0.6 0 1.3 0.1 0.7 0.3 1.2 0.3 0.4 0.7 0.8 0.6 0.3 1.3 0.3 0.8 0 1.6-0.4 0.7-0.4 1.7-1.3l0.5 0.3q-1.6 1.9-2.8 2.6-1.2 0.7-2.8 0.7-2.4 0-3.6-1.7-1.1-1.8-0.6-4.6 0.5-2.9 2.3-4.6 1.8-1.8 4.3-1.8 4.4 0 3.7 6zm-3-1l0.1-0.4q0.1-0.8 0.2-1.3 0-0.4 0-1 0-0.5-0.1-0.8-0.1-0.3-0.4-0.5-0.2-0.2-0.7-0.2-0.9 0-1.5 1-0.6 0.9-1.1 3.2zm2.4 1h-6.6q-0.1 0.7-0.1 1.2 0 0.6 0 1.3 0.1 0.7 0.3 1.2 0.3 0.4 0.8 0.8 0.5 0.3 1.2 0.3 0.9 0 1.6-0.4 0.8-0.4 1.7-1.3l0.6 0.3q-1.6 1.9-2.9 2.6-1.2 0.7-2.8 0.7-2.4 0-3.6-1.7-1.1-1.8-0.6-4.6 0.5-2.9 2.3-4.6 1.9-1.8 4.3-1.8 4.4 0 3.8 6zm-3-1v-0.4q0.2-0.8 0.2-1.3 0.1-0.4 0.1-1 0-0.5-0.2-0.8-0.1-0.3-0.4-0.5-0.2-0.2-0.7-0.2-0.9 0-1.5 1-0.6 0.9-1 3.2zm10.8-5q0.8 0 1.7 0.3 0.9 0.3 1.1 0.3 0.4 0 0.7-0.5h0.6l-0.7 3.8h-0.6q-0.5-3-2.7-3-0.7 0-1.3 0.4-0.6 0.5-0.7 1.1-0.1 0.6 0.3 1.1 0.4 0.5 1 0.7 0.6 0.3 1.3 0.7 0.7 0.4 1.3 0.9 0.6 0.4 0.9 1.2 0.3 0.7 0.2 1.7-0.4 1.8-1.7 2.9-1.3 1.1-3.1 1.1-1 0-2.1-0.4-1-0.4-1.1-0.4-0.3 0-0.8 0.8h-0.7l0.8-4.3h0.7q0.2 3.4 3 3.4 0.8 0 1.4-0.5 0.7-0.4 0.8-1.2 0.1-0.7-0.4-1.2-0.5-0.5-1.4-0.9-0.8-0.4-1.6-0.9-0.9-0.5-1.4-1.3-0.4-0.9-0.2-2 0.3-1.6 1.6-2.7 1.4-1.1 3.1-1.1zm-0.6 0q0.7 0 1.6 0.3 0.9 0.3 1.1 0.3 0.4 0 0.7-0.5h0.6l-0.7 3.8h-0.6q-0.5-3-2.7-3-0.7 0-1.3 0.4-0.5 0.5-0.7 1.1-0.1 0.6 0.3 1.1 0.4 0.5 1 0.7 0.6 0.3 1.3 0.7 0.7 0.4 1.3 0.9 0.6 0.4 0.9 1.2 0.4 0.7 0.2 1.7-0.3 1.8-1.7 2.9-1.3 1.1-3 1.1-1.1 0-2.1-0.4-1.1-0.4-1.2-0.4-0.3 0-0.8 0.8h-0.7l0.8-4.3h0.7q0.2 3.4 3 3.4 0.9 0 1.5-0.5 0.6-0.4 0.7-1.2 0.2-0.7-0.4-1.2-0.5-0.5-1.4-0.9-0.8-0.4-1.6-0.9-0.8-0.5-1.3-1.3-0.5-0.9-0.3-2 0.3-1.6 1.6-2.7 1.4-1.1 3.2-1.1zm28.7 2.1l0.1-0.7h5.4l-0.2 0.7q-0.8 0-1.2 0.2-0.4 0.2-0.8 0.8l-1 1.1q-1 1.3-3 3.6 0.8 1.4 1.4 1.9 0.5 0.4 1.3 0.4 0.8 0 1.6-1l0.5 0.3-0.5 0.7q-0.1 0-0.2 0.3-0.2 0.2-0.3 0.3-0.1 0.1-0.3 0.4-0.3 0.2-0.4 0.4-0.2 0.1-0.5 0.4-0.3 0.2-0.6 0.3-0.2 0.2-0.6 0.3-0.3 0.1-0.7 0.2-0.3 0-0.7 0-1.1 0-1.8-0.4-0.8-0.5-1.7-1.8-3.4 2.2-6.2 2.2-2.2 0-3.3-1.3-1.2-1.3-0.8-3.3 0.3-1.8 1.7-3.2 1.5-1.3 4.5-2.7-0.6-1.3-0.7-2.1-0.2-0.8 0-1.6 0.3-1.9 1.9-3 1.6-1.1 3.9-1.1 2 0 3 0.9 1 0.8 0.8 2.2-0.2 1.3-1.3 2.2-1.1 0.9-3.4 1.6l3 5.6q1.4-1.4 1.9-2.2 0.6-0.8 0.7-1.6 0.1-0.5-0.1-0.7-0.3-0.2-1.4-0.3zm-10.4 3.4q-0.3 1.6 0.6 3.5 1 1.7 2.6 1.7 1 0 2.5-1-0.7-1.2-2.4-4.8l-0.9-1.9q-1.2 0.6-1.8 1.2-0.5 0.5-0.6 1.3zm6-4.9q1-0.4 1.5-0.8 0.5-0.5 0.7-1.3 0.2-1.3-0.3-2.3-0.6-1-1.5-1-0.6 0-1.1 0.4-0.4 0.4-0.5 1.1-0.3 1.5 1.2 3.9zm3.7 1.5l0.1-0.7h5.4l-0.1 0.7q-0.9 0-1.3 0.2-0.4 0.2-0.8 0.8l-0.9 1.1q-1.1 1.3-3.1 3.6 0.8 1.4 1.4 1.9 0.5 0.4 1.3 0.4 0.9 0 1.7-1l0.4 0.3-0.5 0.7q0 0-0.2 0.3-0.2 0.2-0.3 0.3-0.1 0.1-0.3 0.4-0.2 0.2-0.4 0.4-0.2 0.1-0.5 0.4-0.3 0.2-0.5 0.3-0.3 0.2-0.6 0.3-0.4 0.1-0.8 0.2-0.3 0-0.7 0-1.1 0-1.8-0.4-0.7-0.5-1.7-1.8-3.4 2.2-6.2 2.2-2.1 0-3.3-1.3-1.2-1.3-0.8-3.3 0.3-1.8 1.8-3.2 1.4-1.3 4.4-2.7-0.6-1.3-0.7-2.1-0.1-0.8 0-1.6 0.4-1.9 1.9-3 1.6-1.1 3.9-1.1 2 0 3 0.9 1.1 0.8 0.8 2.2-0.2 1.3-1.3 2.2-1.1 0.9-3.3 1.6l2.9 5.6q1.4-1.4 1.9-2.2 0.6-0.8 0.7-1.6 0.1-0.5-0.1-0.7-0.3-0.2-1.4-0.3zm-10.4 3.4q-0.3 1.6 0.6 3.5 1 1.7 2.6 1.7 1 0 2.6-1-0.8-1.2-2.5-4.8l-0.9-1.9q-1.2 0.6-1.7 1.2-0.6 0.5-0.7 1.3zm6-4.9q1-0.4 1.5-0.8 0.6-0.5 0.7-1.3 0.2-1.3-0.3-2.3-0.5-1-1.5-1-0.6 0-1.1 0.4-0.4 0.4-0.5 1.1-0.3 1.5 1.2 3.9zm21.8 10.9q-0.1 0.5-0.6 0.9-0.4 0.5-0.4 0.7-0.1 0.4 0.2 0.6 0.3 0.3 0.8 0.3 0.9 0 1.4-0.5 0.5-0.6 0.7-1.8l2.6-14.4q0.2-1.1-0.3-1.5-0.4-0.3-2-0.4l0.1-0.6h9.2l-0.1 0.6q-1.5 0.1-2 0.6-0.5 0.4-0.8 1.8l-2 11.3q-0.5 2.8-2.2 4.3-1.7 1.4-4.4 1.4-2 0-3.1-0.9-1.1-0.9-0.8-2.5 0.1-0.8 0.8-1.3 0.6-0.6 1.3-0.6 0.8 0 1.3 0.6 0.4 0.6 0.3 1.4zm-0.7 0q-0.1 0.5-0.5 0.9-0.5 0.5-0.5 0.7-0.1 0.4 0.2 0.6 0.3 0.3 0.8 0.3 0.9 0 1.4-0.5 0.5-0.6 0.7-1.8l2.6-14.4q0.2-1.1-0.2-1.5-0.5-0.3-2.1-0.4l0.1-0.6h9.2l-0.1 0.6q-1.5 0.1-2 0.6-0.5 0.4-0.8 1.8l-2 11.3q-0.5 2.8-2.2 4.3-1.7 1.4-4.4 1.4-2 0-3.1-0.9-1.1-0.9-0.8-2.5 0.1-0.8 0.8-1.3 0.6-0.6 1.4-0.6 0.7 0 1.2 0.6 0.4 0.6 0.3 1.4zm19.2-11.5q2.5 0 3.8 1.9 1.4 1.7 0.9 4.5-0.5 2.7-2.5 4.5-2 1.8-4.5 1.8-2.6 0-3.9-1.8-1.3-1.8-0.8-4.6 0.4-2.7 2.5-4.4 2-1.9 4.5-1.9zm-0.1 0.8q-1.2 0-1.9 1.3-0.7 1.2-1.3 4.7-0.5 2.8-0.3 4 0.3 1.1 1.4 1.1 1.2 0 1.8-1.2 0.7-1.2 1.2-4.2 0.6-3.2 0.4-4.4-0.2-1.3-1.3-1.3zm-0.6-0.8q2.5 0 3.8 1.9 1.4 1.7 0.9 4.5-0.5 2.7-2.5 4.5-2 1.8-4.5 1.8-2.6 0-3.9-1.8-1.3-1.8-0.8-4.6 0.5-2.7 2.5-4.4 2-1.9 4.5-1.9zm-0.1 0.8q-1.2 0-1.9 1.3-0.7 1.2-1.3 4.7-0.5 2.8-0.3 4 0.3 1.1 1.4 1.1 1.2 0 1.8-1.2 0.7-1.2 1.2-4.2 0.6-3.2 0.4-4.4-0.2-1.3-1.3-1.3zm14.5 11.9l0.3-1.7q-1.3 1-2.2 1.3-0.9 0.4-1.9 0.4-1.6 0-2.4-1-0.7-0.9-0.4-2.6l1.2-6.6q0.2-0.8-0.1-1.1-0.2-0.3-1-0.4l0.1-0.7h5l-1.6 8.9q-0.2 0.9 0.1 1.4 0.2 0.4 1 0.4 1 0 2.4-1.1l1.3-7.4q0.2-0.8-0.1-1.1-0.3-0.4-1.2-0.4l0.1-0.7h5.2l-1.7 9.4q-0.1 0.8 0.1 1.2 0.3 0.3 1.2 0.3l-0.1 0.6-1.8 0.2q-2.2 0.2-3.5 0.7zm-0.7 0l0.3-1.7q-1.3 1-2.2 1.3-0.9 0.4-1.9 0.4-1.6 0-2.3-1-0.8-0.9-0.5-2.6l1.2-6.6q0.2-0.8-0.1-1.1-0.2-0.3-1-0.4l0.1-0.7h5l-1.6 8.9q-0.1 0.9 0.1 1.4 0.2 0.4 1.1 0.4 0.9 0 2.3-1.1l1.3-7.4q0.2-0.8-0.1-1.1-0.3-0.4-1.2-0.4l0.1-0.7h5.2l-1.7 9.4q-0.1 0.8 0.2 1.2 0.2 0.3 1.1 0.3l-0.1 0.6-1.7 0.2q-2.2 0.2-3.6 0.7zm17.9-8.9q-0.6 0-1-0.4-0.3-0.4-0.6-0.7-0.2-0.4-0.4-0.4-0.6 0-1.2 0.7-0.6 0.7-0.8 1.7l-0.9 5q-0.2 1.2 0 1.6 0.3 0.3 1.5 0.4l-0.1 0.6h-6.9l0.1-0.6q0.9-0.1 1.2-0.4 0.3-0.3 0.5-1.2l1.4-7.6q0.1-0.8-0.1-1.1-0.2-0.3-1-0.4l0.1-0.7h4.9l-0.4 2.2q1.1-1.3 2.1-1.9 0.9-0.6 1.8-0.6 1 0 1.5 0.6 0.4 0.6 0.3 1.5-0.2 0.7-0.7 1.2-0.5 0.5-1.3 0.5zm-0.7 0q-0.6 0-1-0.4-0.3-0.4-0.5-0.7-0.3-0.4-0.5-0.4-0.6 0-1.2 0.7-0.6 0.7-0.8 1.7l-0.9 5q-0.2 1.2 0.1 1.6 0.2 0.3 1.4 0.4l-0.1 0.6h-6.9l0.1-0.6q0.9-0.1 1.2-0.4 0.4-0.3 0.5-1.2l1.4-7.6q0.1-0.8-0.1-1.1-0.2-0.3-1-0.4l0.1-0.7h4.9l-0.4 2.2q1.2-1.3 2.1-1.9 0.9-0.6 1.9-0.6 0.9 0 1.4 0.6 0.5 0.6 0.3 1.5-0.1 0.7-0.7 1.2-0.5 0.5-1.3 0.5zm11.3-2q-0.8 0-1.6 0.6-0.9 0.6-0.9 0.9l-1.3 6.9q-0.1 0.8 0.1 1.1 0.2 0.3 0.9 0.4l-0.1 0.6h-6.3l0.1-0.6q0.9-0.2 1.2-0.5 0.3-0.2 0.5-1.1l1.4-7.6q0.1-0.8-0.1-1.1-0.2-0.3-1-0.4l0.1-0.7h5l-0.4 2q1.9-2.3 4.1-2.3 1.7 0 2.4 1 0.8 1 0.5 2.7l-1.2 6.5q-0.2 0.9 0 1.2 0.3 0.3 1 0.3l-0.1 0.6h-6.1l0.1-0.6q0.7-0.1 1-0.4 0.3-0.3 0.5-1.1l1.1-6.3q0.4-2.1-0.9-2.1zm-0.7 0q-0.7 0-1.6 0.6-0.9 0.6-0.9 0.9l-1.3 6.9q-0.1 0.8 0.1 1.1 0.2 0.3 0.9 0.4l-0.1 0.6h-6.3l0.1-0.6q1-0.2 1.2-0.5 0.4-0.2 0.5-1.1l1.4-7.6q0.1-0.8-0.1-1.1-0.2-0.3-1-0.4l0.1-0.7h5l-0.4 2q1.9-2.3 4.2-2.3 1.6 0 2.3 1 0.8 1 0.5 2.7l-1.2 6.5q-0.1 0.9 0.1 1.2 0.2 0.3 0.9 0.3l-0.1 0.6h-6.1l0.1-0.6q0.7-0.1 1-0.4 0.4-0.3 0.5-1.1l1.1-6.3q0.4-2.1-0.9-2.1zm18 4.2h-6.6q-0.1 0.7-0.1 1.2 0 0.6 0 1.3 0.1 0.7 0.4 1.2 0.2 0.4 0.7 0.8 0.5 0.3 1.3 0.3 0.8 0 1.5-0.4 0.8-0.4 1.7-1.3l0.6 0.3q-1.6 1.9-2.9 2.6-1.2 0.7-2.8 0.7-2.4 0-3.6-1.7-1.1-1.8-0.6-4.6 0.5-2.9 2.3-4.6 1.9-1.8 4.3-1.8 4.5 0 3.8 6zm-3-1v-0.4q0.2-0.8 0.2-1.3 0.1-0.4 0.1-1 0-0.5-0.2-0.8-0.1-0.3-0.3-0.5-0.3-0.2-0.7-0.2-1 0-1.6 1-0.5 0.9-1 3.2zm2.3 1h-6.5q-0.1 0.7-0.1 1.2-0.1 0.6 0 1.3 0.1 0.7 0.3 1.2 0.2 0.4 0.7 0.8 0.5 0.3 1.3 0.3 0.8 0 1.6-0.4 0.7-0.4 1.7-1.3l0.5 0.3q-1.6 1.9-2.8 2.6-1.2 0.7-2.8 0.7-2.5 0-3.6-1.7-1.2-1.8-0.6-4.6 0.5-2.9 2.3-4.6 1.8-1.8 4.2-1.8 4.5 0 3.8 6zm-3-1l0.1-0.4q0.1-0.8 0.2-1.3 0-0.4 0-1 0-0.5-0.1-0.8-0.1-0.3-0.4-0.5-0.3-0.2-0.7-0.2-1 0-1.5 1-0.6 0.9-1.1 3.2zm6 10.2q-0.1 0.1-0.1 0.3-0.1 0.2-0.1 0.2 0 0.2 0.1 0.4 0.1 0.1 0.3 0.1 0.4 0 1-0.6 0.6-0.6 1.1-1.6l0.7-1.3-1.7-7.7q-0.2-0.9-0.6-2.2-0.4-1.4-0.5-1.4-0.1-0.3-0.8-0.4l0.1-0.7h6.5l-0.1 0.7h-0.4q-1 0.1-1.1 0.6 0 0.3 0.2 1.6l1 4.8 2.7-5q0.4-0.8 0.5-1.2 0.1-0.4-0.2-0.6-0.2-0.2-1.1-0.2l0.1-0.7h4l-0.1 0.7q-0.6 0-1 0.3-0.4 0.3-0.8 1.1l-5.8 10.3q-1.4 2.6-2 3.4-1.3 1.6-3 1.6-1.1 0-1.7-0.6-0.6-0.6-0.5-1.5 0.2-0.7 0.7-1.2 0.6-0.5 1.3-0.5 0.7 0 1 0.4 0.4 0.3 0.3 0.9zm-0.7 0q0 0.1-0.1 0.3-0.1 0.2-0.1 0.2 0 0.2 0.1 0.4 0.1 0.1 0.3 0.1 0.4 0 1-0.6 0.6-0.6 1.1-1.6l0.7-1.3-1.7-7.7q-0.2-0.9-0.6-2.2-0.4-1.4-0.5-1.4-0.1-0.3-0.8-0.4l0.1-0.7h6.5l-0.1 0.7h-0.4q-1 0.1-1.1 0.6 0 0.3 0.2 1.6l1 4.8 2.7-5q0.5-0.8 0.5-1.2 0.1-0.4-0.2-0.6-0.2-0.2-1.1-0.2l0.2-0.7h3.9l-0.1 0.7q-0.6 0-1 0.3-0.3 0.3-0.8 1.1l-5.7 10.3q-1.5 2.6-2.1 3.4-1.3 1.6-3 1.6-1.1 0-1.7-0.6-0.6-0.6-0.5-1.5 0.2-0.7 0.7-1.2 0.6-0.5 1.3-0.5 0.7 0 1 0.4 0.4 0.3 0.3 0.9zm18-15.2q0.8 0 1.7 0.3 0.9 0.3 1.1 0.3 0.4 0 0.7-0.5h0.6l-0.7 3.8h-0.6q-0.5-3-2.7-3-0.7 0-1.3 0.4-0.5 0.5-0.7 1.1-0.1 0.6 0.3 1.1 0.4 0.5 1 0.7 0.6 0.3 1.3 0.7 0.7 0.4 1.3 0.9 0.6 0.4 0.9 1.2 0.3 0.7 0.2 1.7-0.4 1.8-1.7 2.9-1.3 1.1-3.1 1.1-1 0-2-0.4-1.1-0.4-1.2-0.4-0.3 0-0.8 0.8h-0.7l0.8-4.3h0.7q0.2 3.4 3 3.4 0.8 0 1.5-0.5 0.6-0.4 0.7-1.2 0.1-0.7-0.4-1.2-0.5-0.5-1.4-0.9-0.8-0.4-1.6-0.9-0.9-0.5-1.4-1.3-0.4-0.9-0.2-2 0.3-1.6 1.6-2.7 1.4-1.1 3.1-1.1zm-0.6 0q0.7 0 1.6 0.3 0.9 0.3 1.1 0.3 0.4 0 0.7-0.5h0.6l-0.7 3.8h-0.6q-0.5-3-2.7-3-0.7 0-1.3 0.4-0.5 0.5-0.6 1.1-0.2 0.6 0.2 1.1 0.4 0.5 1 0.7 0.6 0.3 1.3 0.7 0.7 0.4 1.3 0.9 0.6 0.4 0.9 1.2 0.4 0.7 0.2 1.7-0.3 1.8-1.7 2.9-1.3 1.1-3 1.1-1.1 0-2.1-0.4-1.1-0.4-1.2-0.4-0.3 0-0.8 0.8h-0.7l0.8-4.3h0.7q0.2 3.4 3 3.4 0.9 0 1.5-0.5 0.6-0.4 0.7-1.2 0.2-0.7-0.4-1.2-0.5-0.5-1.4-0.9-0.8-0.4-1.6-0.9-0.8-0.5-1.3-1.3-0.5-0.9-0.3-2 0.3-1.6 1.6-2.7 1.4-1.1 3.2-1.1zm21.6-2.9q0.1-0.3 0.5-0.8 0.4-0.5 0.4-0.6 0.1-0.5-0.7-0.5-0.7 0-1.1 0.4-0.4 0.5-0.6 1.6l-0.5 3.1h2.2l-0.2 1.2h-2.2l-1.5 8.2q-0.3 1.2 0.1 1.6 0.3 0.4 1.6 0.4l-0.1 0.6h-7.2l0.1-0.6q0.9-0.1 1.3-0.4 0.3-0.3 0.5-1.2l1.5-8.6h-1.4l0.2-1.2h1.5q0.2-1.1 0.4-1.9 0.2-0.8 0.7-1.6 0.4-0.8 1-1.3 0.6-0.5 1.4-0.8 0.9-0.3 2.1-0.3 1.6 0 2.5 0.7 0.9 0.7 0.7 1.9-0.1 0.7-0.6 1.1-0.5 0.5-1.3 0.5-0.6 0-1-0.4-0.4-0.5-0.3-1.1zm-0.7 0q0.1-0.3 0.5-0.8 0.4-0.5 0.4-0.6 0.1-0.5-0.7-0.5-0.6 0-1 0.4-0.4 0.5-0.6 1.6l-0.6 3.1h2.2l-0.2 1.2h-2.2l-1.5 8.2q-0.2 1.2 0.1 1.6 0.3 0.4 1.7 0.4l-0.2 0.6h-7.2l0.1-0.6q0.9-0.1 1.3-0.4 0.3-0.3 0.5-1.2l1.6-8.6h-1.5l0.2-1.2h1.5q0.2-1.1 0.4-1.9 0.3-0.8 0.7-1.6 0.4-0.8 1-1.3 0.6-0.5 1.5-0.8 0.8-0.3 2-0.3 1.6 0 2.6 0.7 0.9 0.7 0.7 1.9-0.2 0.7-0.7 1.1-0.5 0.5-1.3 0.5-0.6 0-1-0.4-0.4-0.5-0.3-1.1zm11.2 6.7q-0.6 0-1-0.4-0.4-0.4-0.6-0.7-0.2-0.4-0.4-0.4-0.7 0-1.3 0.7-0.6 0.7-0.8 1.7l-0.9 5q-0.2 1.2 0.1 1.6 0.3 0.3 1.5 0.4l-0.2 0.6h-6.8l0.1-0.6q0.9-0.1 1.2-0.4 0.3-0.3 0.4-1.2l1.4-7.6q0.2-0.8-0.1-1.1-0.2-0.3-1-0.4l0.1-0.7h4.9l-0.4 2.2q1.2-1.3 2.1-1.9 0.9-0.6 1.9-0.6 0.9 0 1.4 0.6 0.5 0.6 0.3 1.5-0.1 0.7-0.7 1.2-0.5 0.5-1.2 0.5zm-0.7 0q-0.6 0-1-0.4-0.4-0.4-0.6-0.7-0.2-0.4-0.4-0.4-0.7 0-1.3 0.7-0.6 0.7-0.8 1.7l-0.9 5q-0.2 1.2 0.1 1.6 0.3 0.3 1.5 0.4l-0.1 0.6h-6.9l0.1-0.6q0.9-0.1 1.2-0.4 0.3-0.3 0.4-1.2l1.4-7.6q0.2-0.8-0.1-1.1-0.2-0.3-1-0.4l0.2-0.7h4.8l-0.3 2.2q1.1-1.3 2-1.9 0.9-0.6 1.9-0.6 0.9 0 1.4 0.6 0.5 0.6 0.3 1.5-0.1 0.7-0.7 1.2-0.5 0.5-1.2 0.5zm10.1-3.8q2.5 0 3.8 1.9 1.4 1.7 0.9 4.5-0.5 2.7-2.5 4.5-2 1.8-4.5 1.8-2.6 0-3.9-1.8-1.3-1.8-0.8-4.6 0.5-2.7 2.5-4.4 2-1.9 4.5-1.9zm-0.1 0.8q-1.2 0-1.9 1.3-0.7 1.2-1.3 4.7-0.5 2.8-0.3 4 0.3 1.1 1.4 1.1 1.2 0 1.8-1.2 0.7-1.2 1.2-4.2 0.6-3.2 0.4-4.4-0.2-1.3-1.3-1.3zm-0.6-0.8q2.5 0 3.9 1.9 1.3 1.7 0.8 4.5-0.5 2.7-2.5 4.5-2 1.8-4.5 1.8-2.5 0-3.9-1.8-1.3-1.8-0.8-4.6 0.5-2.7 2.5-4.4 2-1.9 4.5-1.9zm-0.1 0.8q-1.2 0-1.9 1.3-0.6 1.2-1.3 4.7-0.5 2.8-0.3 4 0.3 1.1 1.5 1.1 1.1 0 1.8-1.2 0.6-1.2 1.2-4.2 0.5-3.2 0.3-4.4-0.2-1.3-1.3-1.3zm15.1 1q-0.7 0-1.6 0.6-0.8 0.6-0.9 0.9l-1.3 6.9q-0.1 0.8 0.1 1.1 0.2 0.3 0.9 0.4l-0.1 0.6h-6.2l0.1-0.6q0.9-0.1 1.2-0.4 0.3-0.3 0.4-1.2l1.4-7.6q0.2-0.8 0-1.1-0.2-0.3-1.1-0.4l0.1-0.7h5l-0.4 2q1.8-2.3 4.2-2.3 1.3 0 1.9 0.6 0.7 0.5 1.1 1.7 1.2-1.3 2.1-1.7 1-0.6 2.1-0.6 1.6 0 2.4 1 0.7 1 0.4 2.7l-1.2 6.5q-0.1 0.9 0.1 1.2 0.2 0.3 1 0.3l-0.1 0.6h-6.2l0.1-0.6q0.8 0 1.1-0.4 0.3-0.3 0.4-1.1l1.2-6.3q0.2-1.1-0.1-1.6-0.2-0.5-0.9-0.5-0.7 0-1.6 0.6-0.8 0.6-0.9 0.9l-1.3 6.9q-0.1 0.8 0.1 1.1 0.2 0.3 0.9 0.4l-0.1 0.6h-6.1l0.1-0.6q0.7 0 1.1-0.4 0.3-0.3 0.4-1.1l1.2-6.3q0.2-1.1-0.1-1.6-0.2-0.5-0.9-0.5zm-0.7 0q-0.7 0-1.6 0.6-0.8 0.6-0.9 0.9l-1.2 6.9q-0.2 0.8 0 1.1 0.2 0.3 0.9 0.4l-0.1 0.6h-6.2l0.1-0.6q0.9-0.1 1.2-0.4 0.3-0.3 0.5-1.2l1.3-7.6q0.2-0.8 0-1.1-0.2-0.3-1.1-0.4l0.2-0.7h4.9l-0.4 2q1.9-2.3 4.3-2.3 1.2 0 1.8 0.6 0.7 0.5 1.1 1.7 1.2-1.3 2.1-1.7 1-0.6 2.1-0.6 1.6 0 2.4 1 0.8 1 0.4 2.7l-1.1 6.5q-0.2 0.9 0 1.2 0.2 0.3 1 0.3l-0.1 0.6h-6.2l0.1-0.6q0.8 0 1.1-0.4 0.3-0.3 0.4-1.1l1.2-6.3q0.2-1.1 0-1.6-0.3-0.5-1-0.5-0.7 0-1.6 0.6-0.8 0.6-0.9 0.9l-1.2 6.9q-0.2 0.8 0 1.1 0.2 0.3 0.9 0.4l-0.1 0.6h-6.1l0.1-0.6q0.8 0 1.1-0.4 0.3-0.3 0.4-1.1l1.2-6.3q0.2-1.1 0-1.6-0.3-0.5-1-0.5zm31-7.4q1.2 0 2.5 0.4 1.3 0.4 1.5 0.4 0.3 0 0.5-0.2 0.3-0.2 0.5-0.7h0.8l-1.1 5.7h-0.7q-0.3-2.5-1.4-3.7-1.2-1.1-2.7-1.1-1.4 0-2.3 0.7-0.9 0.7-1.1 1.9-0.1 0.9 0.3 1.5 0.4 0.6 1.9 1.4l3.4 1.9q1.2 0.6 1.7 2 0.6 1.3 0.3 2.7-0.4 2.5-2.5 4-2 1.5-4.9 1.5-1.4 0-2.7-0.4-1.3-0.5-1.6-0.5-0.6 0-0.9 0.9h-0.8l1.2-6.4h0.7q0.4 5.6 4.3 5.6 1.5 0 2.6-0.8 1-0.8 1.2-2.2 0.2-1-0.3-1.7-0.4-0.6-2-1.4l-1.6-0.8q-2.1-1.2-2.9-2.4-0.9-1.3-0.6-3.1 0.5-2.4 2.3-3.8 1.7-1.4 4.4-1.4zm-0.7 0q1.3 0 2.5 0.4 1.3 0.4 1.5 0.4 0.3 0 0.5-0.2 0.3-0.2 0.5-0.7h0.8l-1.1 5.7h-0.7q-0.3-2.5-1.4-3.7-1.1-1.1-2.7-1.1-1.4 0-2.3 0.7-0.8 0.7-1.1 1.9-0.1 0.9 0.3 1.5 0.5 0.6 1.9 1.4l3.5 1.9q1.1 0.6 1.7 2 0.5 1.3 0.3 2.7-0.5 2.5-2.6 4-2 1.5-4.9 1.5-1.4 0-2.7-0.4-1.3-0.5-1.6-0.5-0.5 0-0.9 0.9h-0.8l1.2-6.4h0.8q0.3 5.6 4.2 5.6 1.6 0 2.6-0.8 1-0.8 1.3-2.2 0.1-1-0.3-1.7-0.5-0.6-2.1-1.4l-1.6-0.8q-2.1-1.2-2.9-2.4-0.9-1.3-0.5-3.1 0.4-2.4 2.2-3.8 1.8-1.4 4.4-1.4zm17 15.1l0.4 0.5q-1.4 1.4-2.7 2.1-1.2 0.6-2.7 0.6-2.5 0-3.7-1.7-1.3-1.8-0.8-4.5 0.5-2.8 2.6-4.6 2.1-1.9 4.7-1.9 1.7 0 2.7 0.9 1.1 0.8 0.8 2-0.1 0.7-0.6 1.2-0.6 0.4-1.4 0.4-1.5 0-1.1-1.8 0.2-1.1 0.1-1.4-0.2-0.5-0.9-0.5-1 0-1.8 1.2-0.8 1.2-1.2 3.2-0.5 2.6 0.2 4.2 0.8 1.6 2.5 1.6 0.8 0 1.4-0.4 0.7-0.3 1.5-1.1zm-0.7 0l0.4 0.5q-1.4 1.4-2.7 2.1-1.2 0.6-2.7 0.6-2.5 0-3.7-1.7-1.3-1.8-0.8-4.5 0.5-2.8 2.6-4.6 2.1-1.9 4.7-1.9 1.8 0 2.8 0.9 1 0.8 0.8 2-0.2 0.7-0.7 1.2-0.6 0.4-1.4 0.4-1.4 0-1.1-1.8 0.2-1.1 0.1-1.4-0.2-0.5-0.9-0.5-1 0-1.8 1.2-0.8 1.2-1.2 3.2-0.4 2.6 0.3 4.2 0.7 1.6 2.4 1.6 0.8 0 1.4-0.4 0.7-0.3 1.5-1.1zm7-7.7q0 0.2 0.3 0.7 0.2 0.6 0.2 1-0.2 0.7-0.7 1.1-0.6 0.4-1.4 0.4-0.8 0-1.1-0.4-0.4-0.5-0.3-1.3 0.3-1.4 1.8-2.4 1.5-0.9 3.8-0.9 2.3 0 3.5 1 1.3 1 1 2.6l-1.3 6.8q-0.1 0.6 0.4 0.6 0.2 0 0.3-0.1l0.4-0.2 0.2 0.5q-1.6 1.5-3.1 1.5-1 0-1.4-0.4-0.4-0.4-0.4-1.4-2.4 1.8-4.5 1.8-1.2 0-1.9-0.8-0.7-0.8-0.5-2 0.2-0.8 0.7-1.4 0.6-0.7 1.2-1.2 0.7-0.4 1.8-0.9 1.1-0.4 1.8-0.6 0.8-0.3 2-0.6 0.3-0.1 0.4-0.1l0.4-1.9q0.2-1.2-0.2-1.8-0.5-0.5-1.6-0.5-0.7 0-1.2 0.3-0.5 0.2-0.6 0.6zm2.3 7.9l0.7-3.7q-3.3 0.8-3.7 3.1-0.2 0.8 0.1 1.3 0.3 0.5 0.9 0.5 0.9 0 2-1.2zm-3-7.9q0 0.2 0.3 0.7 0.3 0.6 0.2 1-0.1 0.7-0.7 1.1-0.6 0.4-1.4 0.4-0.8 0-1.1-0.4-0.4-0.5-0.2-1.3 0.2-1.4 1.7-2.4 1.6-0.9 3.8-0.9 2.3 0 3.5 1 1.3 1 1 2.6l-1.3 6.8q-0.1 0.6 0.5 0.6 0.1 0 0.3-0.1l0.3-0.2 0.3 0.5q-1.7 1.5-3.2 1.5-1 0-1.4-0.4-0.4-0.4-0.4-1.4-2.4 1.8-4.5 1.8-1.2 0-1.9-0.8-0.7-0.8-0.4-2 0.1-0.8 0.6-1.4 0.6-0.7 1.3-1.2 0.6-0.4 1.7-0.9 1.1-0.4 1.8-0.6 0.8-0.3 2-0.6 0.3-0.1 0.4-0.1l0.4-1.9q0.2-1.2-0.2-1.8-0.4-0.5-1.6-0.5-0.7 0-1.2 0.3-0.5 0.2-0.6 0.6zm2.4 7.9l0.6-3.7q-3.3 0.8-3.7 3.1-0.1 0.8 0.1 1.3 0.3 0.5 0.9 0.5 0.9 0 2.1-1.2zm15.9-7.9q-0.8 0-1.6 0.6-0.9 0.6-0.9 0.9l-1.3 6.9q-0.1 0.8 0.1 1.1 0.2 0.3 0.9 0.4l-0.1 0.6h-6.3l0.1-0.6q1-0.2 1.2-0.5 0.4-0.2 0.5-1.1l1.4-7.6q0.1-0.8-0.1-1.1-0.2-0.3-1-0.4l0.1-0.7h5l-0.4 2q1.9-2.3 4.1-2.3 1.7 0 2.4 1 0.8 1 0.5 2.7l-1.2 6.5q-0.1 0.9 0.1 1.2 0.2 0.3 0.9 0.3l-0.1 0.6h-6.1l0.1-0.6q0.7-0.1 1-0.4 0.4-0.3 0.5-1.1l1.1-6.3q0.4-2.1-0.9-2.1zm-0.7 0q-0.7 0-1.6 0.6-0.9 0.6-0.9 0.9l-1.3 6.9q-0.1 0.8 0.1 1.1 0.2 0.3 0.9 0.4l-0.1 0.6h-6.3l0.2-0.6q0.9-0.2 1.2-0.5 0.3-0.2 0.4-1.1l1.4-7.6q0.2-0.8-0.1-1.1-0.2-0.3-1-0.4l0.1-0.7h5l-0.4 2q1.9-2.3 4.2-2.3 1.6 0 2.3 1 0.8 1 0.5 2.7l-1.2 6.5q-0.1 0.9 0.1 1.2 0.2 0.3 0.9 0.3l-0.1 0.6h-6.1l0.1-0.6q0.7-0.1 1-0.4 0.4-0.3 0.5-1.1l1.1-6.3q0.4-2.1-0.9-2.1zm14.7 10.9l0.3-1.7q-1.1 0.9-1.9 1.3-0.9 0.4-1.9 0.4-2.1 0-3.1-1.7-1-1.8-0.5-4.4 0.5-2.8 2.3-4.7 1.7-1.9 3.9-1.9 0.9 0 1.5 0.4 0.6 0.3 1.3 1.2l0.9-4.7q0.1-0.9-0.2-1.2-0.3-0.2-1.6-0.3l0.2-0.6h5.6l-2.8 14.9q-0.1 0.8 0.1 1.2 0.3 0.3 1.2 0.3l-0.1 0.6-1.7 0.2q-2.2 0.3-3.5 0.7zm-2.1-1.5q0.9 0 1.7-0.7 0.8-0.7 0.9-1.1l1.1-6.3q-0.1-0.7-0.6-1.2-0.5-0.4-1.1-0.4-2.2 0-3.1 4.9-0.9 4.8 1.1 4.8zm1.4 1.5l0.3-1.7q-1.1 0.9-1.9 1.3-0.9 0.4-1.9 0.4-2 0-3.1-1.7-1-1.8-0.5-4.4 0.5-2.8 2.3-4.7 1.7-1.9 3.9-1.9 0.9 0 1.5 0.4 0.6 0.3 1.3 1.2l0.9-4.7q0.1-0.9-0.2-1.2-0.3-0.2-1.5-0.3l0.1-0.6h5.6l-2.8 14.9q-0.1 0.8 0.2 1.2 0.2 0.3 1.1 0.3l-0.1 0.6-1.7 0.2q-2.1 0.3-3.5 0.7zm-2.1-1.5q0.9 0 1.7-0.7 0.8-0.7 0.9-1.1l1.1-6.3q-0.1-0.7-0.6-1.2-0.5-0.4-1.1-0.4-2.2 0-3.1 4.9-0.9 4.8 1.1 4.8zm11.9-10.9h5l-1.8 9.9q-0.2 0.8 0 1.1 0.3 0.3 1 0.4l-0.2 0.6h-6.2l0.1-0.6q0.9-0.2 1.2-0.5 0.3-0.2 0.5-1.1l1.3-7.6q0.2-0.8 0-1.1-0.2-0.2-1-0.4zm2.7-5.4q0.7-0.6 1.5-0.6 0.8 0 1.3 0.6 0.5 0.6 0.3 1.4-0.1 0.9-0.8 1.4-0.7 0.6-1.5 0.6-0.9 0-1.4-0.6-0.4-0.5-0.3-1.4 0.2-0.8 0.9-1.4zm-3.4 5.4h5l-1.8 9.9q-0.2 0.7 0.1 1 0.2 0.3 0.9 0.4l-0.2 0.7h-6.2l0.1-0.7q0.9-0.2 1.2-0.4 0.3-0.3 0.5-1.1l1.3-7.7q0.2-0.8 0-1-0.2-0.3-1-0.5zm2.7-5.4q0.7-0.6 1.5-0.6 0.8 0 1.3 0.6 0.5 0.6 0.3 1.4-0.1 0.9-0.8 1.5-0.7 0.5-1.5 0.5-0.9 0-1.4-0.5-0.4-0.6-0.3-1.5 0.2-0.8 0.9-1.4zm13 6.8q-0.8 0-1.6 0.6-0.9 0.6-0.9 0.9l-1.3 7q-0.1 0.7 0.1 1 0.2 0.4 0.9 0.5l-0.1 0.6h-6.3l0.1-0.6q0.9-0.2 1.2-0.5 0.3-0.3 0.5-1.1l1.4-7.6q0.1-0.9-0.1-1.1-0.2-0.4-1-0.5l0.1-0.6h5l-0.4 1.9q1.8-2.2 4.1-2.2 1.6 0 2.4 1 0.8 1 0.5 2.6l-1.2 6.6q-0.2 0.8 0 1.1 0.3 0.3 1 0.4l-0.1 0.6h-6.1l0.1-0.6q0.7-0.1 1-0.5 0.3-0.3 0.5-1l1.1-6.3q0.4-2.2-0.9-2.2zm-0.7 0q-0.7 0-1.6 0.6-0.9 0.6-0.9 0.9l-1.3 7q-0.1 0.7 0.1 1 0.2 0.4 0.9 0.5l-0.1 0.6h-6.3l0.1-0.6q1-0.2 1.2-0.5 0.4-0.3 0.5-1.1l1.4-7.6q0.1-0.9-0.1-1.1-0.2-0.4-1-0.5l0.1-0.6h5l-0.4 1.9q1.9-2.2 4.2-2.2 1.6 0 2.3 1 0.8 1 0.5 2.6l-1.2 6.6q-0.1 0.8 0.1 1.1 0.2 0.3 0.9 0.4l-0.1 0.6h-6.1l0.1-0.6q0.7-0.1 1-0.5 0.4-0.3 0.5-1l1.1-6.3q0.4-2.2-0.9-2.2zm11.8 0.1q-0.1 0.1 0.2 0.7 0.3 0.5 0.2 1-0.1 0.6-0.7 1.1-0.5 0.4-1.3 0.4-0.8 0-1.2-0.5-0.3-0.4-0.2-1.2 0.3-1.5 1.8-2.4 1.5-0.9 3.7-0.9 2.4 0 3.6 0.9 1.2 1 0.9 2.6l-1.2 6.8q-0.1 0.7 0.4 0.7 0.2 0 0.3-0.1l0.3-0.3 0.3 0.6q-1.6 1.4-3.2 1.4-0.9 0-1.3-0.4-0.4-0.4-0.5-1.4-2.3 1.8-4.4 1.8-1.3 0-1.9-0.7-0.7-0.8-0.5-2 0.2-0.8 0.7-1.5 0.6-0.7 1.2-1.1 0.7-0.5 1.7-0.9 1.1-0.5 1.9-0.7 0.7-0.2 1.9-0.6 0.3 0 0.5-0.1l0.3-1.9q0.3-1.2-0.2-1.7-0.4-0.6-1.5-0.6-0.7 0-1.3 0.3-0.5 0.3-0.5 0.7zm2.3 7.9l0.7-3.8q-3.3 0.8-3.7 3.2-0.2 0.7 0.1 1.2 0.3 0.5 0.9 0.5 0.8 0 2-1.1zm-3-7.9q-0.1 0.1 0.2 0.7 0.3 0.5 0.2 1-0.1 0.6-0.6 1.1-0.6 0.4-1.4 0.4-0.8 0-1.2-0.5-0.3-0.4-0.2-1.2 0.3-1.5 1.8-2.4 1.5-0.9 3.7-0.9 2.4 0 3.6 0.9 1.2 1 0.9 2.6l-1.2 6.8q-0.1 0.7 0.4 0.7 0.2 0 0.3-0.1l0.3-0.3 0.3 0.6q-1.6 1.4-3.2 1.4-0.9 0-1.3-0.4-0.4-0.4-0.5-1.4-2.3 1.8-4.4 1.8-1.2 0-1.9-0.7-0.7-0.8-0.5-2 0.2-0.8 0.7-1.5 0.6-0.7 1.2-1.1 0.7-0.5 1.8-0.9 1-0.5 1.8-0.7 0.7-0.2 1.9-0.6 0.3 0 0.5-0.1l0.4-1.9q0.2-1.2-0.3-1.7-0.4-0.6-1.5-0.6-0.7 0-1.2 0.3-0.6 0.3-0.6 0.7zm2.3 7.9l0.7-3.8q-3.3 0.8-3.7 3.2-0.2 0.7 0.1 1.2 0.3 0.5 0.9 0.5 0.9 0 2-1.1zm15.8-9.4h4l-0.1 0.6q-0.7 0.1-1 0.3-0.3 0.3-0.8 1.1l-6.1 10.3h-0.6l-1.7-7.7q-0.1-0.4-0.4-1.3-0.2-0.9-0.5-1.6-0.1-0.7-0.2-0.7-0.1-0.3-0.8-0.4l0.1-0.6h6.5l-0.1 0.6q-0.4 0.1-0.5 0.1-0.9 0-1 0.6 0 0.2 0.1 0.8l1.1 5.3 2.7-4.8q0.4-0.7 0.5-1.1 0.1-0.5-0.2-0.6-0.3-0.2-1.1-0.3zm-0.7 0h4l-0.1 0.6q-0.7 0.1-1 0.4-0.3 0.2-0.8 1.1l-6 10.3h-0.7l-1.7-7.7q-0.1-0.5-0.4-1.4-0.2-0.9-0.5-1.6-0.1-0.7-0.2-0.7-0.1-0.3-0.8-0.4l0.1-0.6h6.5l-0.1 0.6q-0.4 0.1-0.5 0.1-0.9 0.1-1 0.6 0 0.2 0.1 0.8l1.1 5.3 2.7-4.7q0.4-0.8 0.5-1.2 0.1-0.5-0.2-0.6-0.3-0.2-1.1-0.3zm6.2 0h5l-1.8 9.9q-0.1 0.8 0.1 1.1 0.2 0.3 0.9 0.4l-0.1 0.6h-6.3l0.1-0.6q1-0.2 1.2-0.5 0.3-0.2 0.5-1.1l1.4-7.6q0.1-0.8-0.1-1.1-0.2-0.3-1-0.4zm2.7-5.4q0.7-0.6 1.5-0.6 0.9 0 1.3 0.6 0.5 0.6 0.4 1.4-0.2 0.9-0.9 1.4-0.7 0.6-1.5 0.6-0.9 0-1.3-0.6-0.5-0.5-0.3-1.4 0.1-0.8 0.8-1.4zm-3.4 5.4h5l-1.8 9.8q-0.1 0.8 0.1 1.1 0.2 0.3 0.9 0.4l-0.1 0.7h-6.3l0.1-0.7q1-0.2 1.2-0.4 0.3-0.3 0.5-1.1l1.4-7.7q0.1-0.8-0.1-1-0.2-0.3-1-0.5zm2.7-5.4q0.7-0.6 1.5-0.6 0.9 0 1.3 0.6 0.5 0.6 0.4 1.4-0.2 0.9-0.9 1.5-0.7 0.5-1.5 0.5-0.9 0-1.3-0.5-0.5-0.6-0.3-1.5 0.1-0.8 0.8-1.4zm8.9 6.9q-0.1 0.1 0.2 0.7 0.3 0.5 0.2 1-0.1 0.6-0.7 1.1-0.5 0.4-1.3 0.4-0.8 0-1.2-0.5-0.3-0.4-0.2-1.2 0.3-1.5 1.8-2.4 1.5-0.9 3.7-0.9 2.4 0 3.6 0.9 1.2 1 0.9 2.6l-1.2 6.8q-0.1 0.7 0.4 0.7 0.2 0 0.3-0.1l0.3-0.3 0.3 0.6q-1.6 1.4-3.2 1.4-0.9 0-1.3-0.4-0.4-0.4-0.5-1.4-2.3 1.8-4.4 1.8-1.3 0-1.9-0.7-0.7-0.8-0.5-2 0.2-0.8 0.7-1.5 0.6-0.7 1.2-1.1 0.7-0.5 1.7-0.9 1.1-0.5 1.9-0.7 0.7-0.2 1.9-0.6 0.3-0.1 0.5-0.1l0.3-1.9q0.3-1.2-0.2-1.7-0.4-0.6-1.5-0.6-0.7 0-1.3 0.3-0.5 0.3-0.5 0.7zm2.3 7.9l0.7-3.8q-3.3 0.8-3.7 3.2-0.2 0.7 0.1 1.2 0.3 0.5 0.9 0.5 0.8 0 2-1.1zm-3-7.9q-0.1 0.1 0.2 0.7 0.3 0.5 0.2 1-0.1 0.6-0.7 1.1-0.5 0.4-1.3 0.4-0.8 0-1.2-0.5-0.3-0.4-0.2-1.2 0.3-1.5 1.8-2.4 1.5-0.9 3.7-0.9 2.4 0 3.6 0.9 1.2 1 0.9 2.6l-1.2 6.8q-0.1 0.7 0.4 0.7 0.2 0 0.3-0.1l0.3-0.3 0.3 0.6q-1.6 1.4-3.2 1.4-0.9 0-1.3-0.4-0.4-0.4-0.5-1.4-2.3 1.8-4.4 1.8-1.2 0-1.9-0.7-0.7-0.8-0.5-2 0.2-0.8 0.7-1.5 0.6-0.7 1.2-1.1 0.7-0.5 1.7-0.9 1.1-0.5 1.9-0.7 0.7-0.2 1.9-0.6 0.3-0.1 0.5-0.1l0.3-1.9q0.3-1.2-0.2-1.7-0.4-0.6-1.5-0.6-0.7 0-1.2 0.3-0.6 0.3-0.6 0.7zm2.3 7.9l0.7-3.8q-3.3 0.8-3.7 3.2-0.2 0.7 0.1 1.2 0.3 0.5 0.9 0.5 0.9 0 2-1.1zm-313.2 26.3h6.3l-0.5 3h-6.4zm-0.6 0h6.3l-0.6 3h-6.3zm25.1-10.5q1.3 0 2.5 0.5 1.3 0.4 1.5 0.4 0.3 0 0.5-0.2 0.3-0.2 0.5-0.7h0.8l-1.1 5.7h-0.7q-0.3-2.5-1.4-3.7-1.1-1.2-2.7-1.2-1.4 0-2.3 0.8-0.8 0.7-1.1 1.8-0.1 1 0.3 1.6 0.5 0.6 1.9 1.4l3.5 1.9q1.1 0.6 1.7 1.9 0.5 1.4 0.3 2.8-0.5 2.5-2.6 4-2 1.5-4.9 1.5-1.4 0-2.7-0.4-1.3-0.5-1.6-0.5-0.5 0-0.9 0.9h-0.8l1.2-6.4h0.8q0.3 5.5 4.2 5.5 1.6 0 2.6-0.8 1-0.8 1.3-2.1 0.1-1-0.3-1.7-0.5-0.6-2.1-1.4l-1.6-0.9q-2.1-1.1-2.9-2.4-0.8-1.3-0.5-3 0.4-2.4 2.2-3.9 1.8-1.4 4.4-1.4zm-0.7 0q1.3 0 2.6 0.5 1.2 0.4 1.4 0.4 0.3 0 0.6-0.2 0.2-0.2 0.4-0.7h0.8l-1 5.7h-0.8q-0.3-2.5-1.4-3.7-1.1-1.2-2.7-1.2-1.3 0-2.2 0.8-0.9 0.7-1.1 1.8-0.2 1 0.2 1.6 0.5 0.6 1.9 1.4l3.5 1.9q1.1 0.6 1.7 1.9 0.5 1.4 0.3 2.8-0.5 2.5-2.5 4-2.1 1.5-5 1.5-1.4 0-2.7-0.4-1.3-0.5-1.6-0.5-0.5 0-0.9 0.9h-0.8l1.2-6.4h0.8q0.3 5.5 4.3 5.5 1.5 0 2.5-0.8 1-0.8 1.3-2.1 0.2-1-0.3-1.7-0.5-0.6-2.1-1.4l-1.6-0.9q-2.1-1.1-2.9-2.4-0.8-1.3-0.5-3 0.4-2.4 2.2-3.9 1.8-1.4 4.4-1.4zm8.6 6h5l-1.8 9.9q-0.1 0.7 0.1 1.1 0.2 0.3 0.9 0.4l-0.1 0.6h-6.3l0.2-0.6q0.9-0.2 1.2-0.5 0.3-0.3 0.4-1.1l1.4-7.6q0.2-0.8-0.1-1.1-0.2-0.3-1-0.5zm2.7-5.3q0.7-0.6 1.6-0.6 0.8 0 1.3 0.6 0.5 0.6 0.3 1.4-0.1 0.9-0.9 1.4-0.6 0.6-1.5 0.6-0.8 0-1.3-0.6-0.5-0.5-0.3-1.4 0.1-0.9 0.8-1.4zm-3.4 5.3h5l-1.8 9.9q-0.1 0.8 0.1 1.1 0.2 0.3 0.9 0.4l-0.1 0.6h-6.3l0.2-0.6q0.9-0.2 1.2-0.5 0.3-0.2 0.4-1.1l1.4-7.6q0.2-0.8-0.1-1.1-0.2-0.2-1-0.4zm2.7-5.4q0.7-0.6 1.6-0.6 0.8 0 1.3 0.6 0.5 0.6 0.3 1.4-0.1 0.9-0.9 1.4-0.6 0.6-1.5 0.6-0.8 0-1.3-0.6-0.5-0.5-0.3-1.4 0.1-0.8 0.8-1.4zm13 6.8q-0.7 0-1.6 0.6-0.8 0.6-0.9 0.9l-1.2 7q-0.2 0.7 0 1 0.2 0.3 1 0.4l-0.2 0.7h-6.2l0.1-0.7q0.9-0.1 1.2-0.4 0.3-0.3 0.5-1.1l1.3-7.7q0.2-0.8 0-1.1-0.2-0.3-1.1-0.4l0.2-0.6h4.9l-0.3 1.9q1.8-2.2 4.1-2.2 1.6 0 2.4 1 0.7 1 0.4 2.6l-1.1 6.6q-0.2 0.8 0 1.1 0.2 0.3 1 0.3l-0.2 0.7h-6.1l0.2-0.7q0.6 0 1-0.4 0.3-0.3 0.4-1l1.2-6.3q0.4-2.2-1-2.2zm-0.7 0q-0.7 0-1.6 0.6-0.8 0.6-0.9 0.9l-1.2 7q-0.2 0.7 0 1 0.3 0.3 1 0.4l-0.1 0.7h-6.3l0.1-0.7q0.9-0.1 1.2-0.4 0.3-0.3 0.5-1.1l1.4-7.7q0.1-0.8-0.1-1.1-0.2-0.3-1-0.4l0.1-0.6h4.9l-0.3 1.9q1.8-2.2 4.1-2.2 1.6 0 2.4 1 0.8 1 0.5 2.6l-1.2 6.6q-0.2 0.8 0 1.1 0.2 0.3 1 0.3l-0.1 0.7h-6.1l0.1-0.7q0.6 0 1-0.4 0.3-0.3 0.5-1l1.1-6.3q0.4-2.2-1-2.2zm17.2 7.7l0.4 0.5q-1.4 1.4-2.7 2.1-1.3 0.6-2.8 0.6-2.4 0-3.7-1.7-1.2-1.8-0.7-4.4 0.5-2.8 2.6-4.7 2-1.8 4.7-1.8 1.7 0 2.7 0.8 1 0.8 0.8 2-0.1 0.8-0.7 1.2-0.5 0.5-1.4 0.5-1.4 0-1.1-1.9 0.2-1.1 0.1-1.3-0.2-0.5-0.9-0.5-1 0-1.8 1.1-0.8 1.2-1.1 3.2-0.5 2.6 0.2 4.2 0.7 1.6 2.4 1.6 0.8 0 1.5-0.3 0.6-0.4 1.5-1.2zm-0.7 0l0.4 0.5q-1.4 1.4-2.7 2.1-1.3 0.6-2.8 0.6-2.4 0-3.7-1.7-1.2-1.8-0.7-4.4 0.5-2.8 2.6-4.7 2-1.8 4.7-1.8 1.7 0 2.7 0.8 1 0.8 0.8 2-0.1 0.8-0.7 1.2-0.5 0.5-1.4 0.5-1.4 0-1.1-1.9 0.2-1.1 0.1-1.3-0.1-0.5-0.8-0.5-1.1 0-1.9 1.1-0.7 1.2-1.1 3.2-0.5 2.6 0.2 4.2 0.7 1.6 2.4 1.6 0.8 0 1.5-0.3 0.6-0.4 1.5-1.2zm13.3-3.5h-6.5q-0.1 0.7-0.2 1.3 0 0.5 0.1 1.2 0 0.7 0.3 1.2 0.2 0.5 0.7 0.8 0.5 0.3 1.3 0.3 0.8 0 1.5-0.3 0.8-0.4 1.8-1.4l0.5 0.4q-1.6 1.8-2.8 2.5-1.3 0.7-2.9 0.7-2.4 0-3.5-1.7-1.2-1.7-0.7-4.6 0.6-2.8 2.4-4.6 1.8-1.7 4.2-1.7 4.5 0 3.8 5.9zm-3-1l0.1-0.4q0.1-0.8 0.1-1.2 0.1-0.5 0.1-1 0-0.6-0.1-0.9-0.1-0.2-0.4-0.4-0.3-0.2-0.7-0.2-1 0-1.6 0.9-0.5 0.9-1 3.2zm2.3 1h-6.5q-0.1 0.7-0.1 1.3-0.1 0.5 0 1.2 0.1 0.7 0.3 1.2 0.3 0.5 0.7 0.8 0.5 0.3 1.3 0.3 0.8 0 1.6-0.3 0.7-0.4 1.7-1.4l0.5 0.4q-1.6 1.8-2.8 2.5-1.2 0.7-2.8 0.7-2.4 0-3.6-1.7-1.1-1.7-0.6-4.6 0.5-2.8 2.3-4.6 1.8-1.7 4.3-1.7 4.4 0 3.7 5.9zm-3-1l0.1-0.4q0.1-0.8 0.2-1.2 0-0.5 0-1 0-0.6-0.1-0.9-0.1-0.2-0.4-0.4-0.2-0.2-0.7-0.2-0.9 0-1.5 0.9-0.6 0.9-1.1 3.2zm14.9-5.2h-0.7q2.9-5.3 6.7-5.3 2.1 0 3.2 1.3 1.1 1.3 0.7 3.4-0.5 2.9-4 5.7l-4.9 4h3.9q2 0 2.6-0.3 0.7-0.3 1.5-1.7h0.6l-2.2 5.5h-10.8l0.1-0.6q5.3-4.8 7.2-7 1.9-2.3 2.2-4.1 0.2-1.3-0.4-2.3-0.7-1-2.1-1-2 0-3.6 2.4zm-0.7 0h-0.7q2.9-5.3 6.7-5.3 2.1 0 3.2 1.3 1.1 1.3 0.7 3.4-0.5 2.9-4 5.7l-4.9 4h3.9q2 0 2.6-0.3 0.7-0.3 1.5-1.7h0.6l-2.1 5.5h-10.9l0.2-0.6q5.3-4.8 7.1-7 1.9-2.3 2.2-4.1 0.3-1.3-0.4-2.3-0.7-1-2.1-1-2 0-3.6 2.4zm12.8 3.7q0.7-3.8 2.9-6.4 2.1-2.6 4.6-2.6 2.6 0 3.8 2.6 1.2 2.6 0.5 6.5-0.8 3.9-2.9 6.5-2.1 2.6-4.6 2.6-2.6 0-3.8-2.6-1.2-2.6-0.5-6.6zm4.4 8.5q0.8 0 1.5-1.2 0.7-1.2 1.2-4.2l1.1-6q0.5-2.9 0.3-4.1-0.2-1.3-1.1-1.3-0.9 0-1.6 1.2-0.6 1.3-1.1 4.2l-1.1 6q-0.6 2.9-0.4 4.1 0.2 1.3 1.2 1.3zm-5.1-8.5q0.7-3.8 2.9-6.4 2.2-2.6 4.7-2.6 2.5 0 3.7 2.6 1.2 2.6 0.5 6.5-0.7 3.9-2.9 6.5-2.1 2.6-4.6 2.6-2.6 0-3.8-2.6-1.2-2.6-0.5-6.6zm4.4 8.5q0.9 0 1.5-1.2 0.7-1.2 1.2-4.2l1.1-6q0.5-2.9 0.3-4.1-0.1-1.3-1.1-1.3-0.9 0-1.6 1.2-0.6 1.3-1.1 4.2l-1.1 6q-0.5 2.9-0.3 4.1 0.1 1.3 1.1 1.3zm11.6-12.2h-0.7q2.9-5.3 6.7-5.3 2.1 0 3.2 1.3 1.1 1.3 0.7 3.4-0.5 2.9-4 5.7l-4.9 4h3.9q2 0 2.6-0.3 0.7-0.3 1.5-1.7h0.6l-2.1 5.5h-10.9l0.1-0.6q5.4-4.8 7.2-7 1.9-2.3 2.2-4.1 0.2-1.3-0.4-2.3-0.7-1-2.1-1-2 0-3.6 2.4zm-0.7 0h-0.7q2.9-5.3 6.7-5.3 2.1 0 3.2 1.3 1.1 1.3 0.7 3.4-0.5 2.9-4 5.7l-4.9 4h3.9q2 0 2.7-0.3 0.6-0.3 1.4-1.7h0.6l-2.1 5.5h-10.9l0.2-0.6q5.3-4.8 7.1-7 1.9-2.3 2.2-4.1 0.3-1.3-0.4-2.3-0.7-1-2.1-1-2 0-3.6 2.4zm13.4 8.9q1 0 2.4 1.2 1.3 1.1 2.1 1.1 1.1 0 2-0.8 0.9-0.7 1.1-1.8 0.3-1.3-0.5-2.4-0.8-1-2.5-1.5-1.3-0.5-4.5-0.7l4.1-9h8.4l-1.7 3.3h-7.2l-1 2.1q2.7 0.1 3.8 0.5 2.1 0.6 3 2.1 0.9 1.5 0.5 3.5-0.5 2.8-2.9 4.5-2.3 1.8-5.5 1.8-1.8 0-2.7-0.7-0.9-0.6-0.8-1.6 0.2-0.7 0.7-1.1 0.5-0.5 1.2-0.5zm-0.6 0q0.9 0 2.3 1.2 1.4 1.1 2.2 1.1 1 0 1.9-0.8 0.9-0.7 1.1-1.8 0.3-1.3-0.5-2.4-0.8-1-2.4-1.5-1.4-0.5-4.6-0.7l4.2-9h8.3l-1.7 3.3h-7.2l-1 2.1q2.7 0.1 3.9 0.5 2 0.6 2.9 2.1 0.9 1.5 0.5 3.5-0.5 2.8-2.8 4.5-2.4 1.8-5.6 1.8-1.8 0-2.7-0.7-0.9-0.6-0.7-1.6 0.1-0.7 0.6-1.1 0.6-0.5 1.3-0.5zm21.2-3.8h6.3l-0.5 3h-6.3zm-0.7 0h6.3l-0.6 3h-6.3z"/>
	<path id="Form 3" fill-rule="evenodd" class="s1" d="m538.29 324.43h27.19c1.84 0 3.32 1.69 3.32 3.78 0 2.1-1.48 3.79-3.32 3.79h-53.16c-1.84 0-3.32-1.69-3.32-3.79 0-2.09 1.48-3.78 3.32-3.78h18.9l7.49-23.44 6.24 2.6c-0.01 0-6.66 20.84-6.66 20.84zm22.02-40.67l-0.02-0.71q-0.04-1.51-0.35-2.93c5.9 6.26 9.06 15.37 8.39 24.66-0.17 2.27-2.24 3.55-4.12 2.77l-7.03-2.91 0.35-1.08c2.02-6.34 2.97-13.06 2.78-19.8zm-3.32 0.11c0.17 6.26-0.71 12.5-2.59 18.39l-0.34 1.08-21.86-9.06 0.35-1.08c1.89-5.89 4.73-11.32 8.4-15.98l0.41-0.54c2.42-3.09 6.24-4.2 9.67-2.81q0.14 0.06 0.29 0.13c3.31 1.49 5.53 5.09 5.65 9.16zm-15.97-11.87q-1.16 0.93-2.13 2.15l-0.42 0.54c-3.94 5.02-7.01 10.87-9.04 17.21l-0.34 1.07-7.37-3.05c-1.88-0.78-2.74-3.27-1.59-5.13 4.83-7.8 12.62-12.49 20.89-12.79z"/>
	<path id="Form 4" fill-rule="evenodd" class="s1" d="m1088.3 239.71c1.23-0.71 2.76-0.64 3.92 0.17 1.17 0.8 1.78 2.23 1.56 3.64l-7.38 48.57c-0.36 2.36-2.89 3.8-5.07 2.88l-14.3-6.02-7.15 8.67c-0.71 0.88-1.78 1.38-2.9 1.38-2.08 0-3.77-1.7-3.77-3.82v-12.06l-16.19-6.83c-2.78-1.17-3.02-5.18-0.41-6.69zm-31.48 38.86l-0.14-0.12 25.34-28.65-39.4 22.78zm29.94-25.74l-24.7 27.94 19.22 8.12z"/>
</svg>