<svg version="1.2" xmlns="http://www.w3.org/2000/svg" viewBox="0 0 583 264" width="400" height="181">
	<style>
		.s0 { fill: #080101 } 
		.s1 { fill: #000000 } 
	</style>
	<path id="AD &amp; JO SCANDINAVIA Din egna res" class="s0" aria-label="AD &amp; JO SCANDINAVIA
Din egna reseguide

Adventures &amp; Journeys from Scandinavia
- Since 2025 -"  d="m69.3 88.4h0.1l-0.2 1h-13.2l0.1-1q0.9-0.1 1.4-0.1 2-0.2 2.2-1.4 0.2-1.2-0.9-5.6h-9.2l-0.9 1.6q-1.8 3.1-1.9 3.8-0.1 0.8 0.6 1.2 0.7 0.4 2.5 0.5l-0.2 1h-8.3l0.1-1q1.6-0.3 2.4-1.1 0.8-0.8 2.5-3.7l13.2-22.5h1.2l5.2 21.6q0.9 3.6 1.4 4.7 0.7 1 1.9 1zm-13.1-18.6l-5.7 9.9h8zm12 18.7h0.2l-0.2 1h-13.3l0.2-1q0.9-0.2 1.3-0.2 2-0.1 2.2-1.3 0.3-1.3-0.8-5.6h-9.3l-0.9 1.6q-1.7 3.1-1.8 3.8-0.2 0.7 0.5 1.2 0.7 0.3 2.5 0.5l-0.2 1h-8.3l0.2-1q1.5-0.3 2.3-1.2 0.9-0.8 2.6-3.6l13.2-22.5h1.1l5.2 21.6q0.9 3.6 1.5 4.6 0.6 1.1 1.8 1.1zm-13.1-18.7l-5.7 10h8zm21.1 15.9l3.6-20.2q0.3-1.4-0.3-2-0.6-0.5-2.6-0.8l0.2-1h12.5q7.1 0 10.5 3.6 3.4 3.6 2.3 10-1.2 6.3-6 10.2-4.7 3.9-11.4 3.9h-12.9l0.2-1q1.7 0 2.7-0.7 0.9-0.6 1.2-2zm18.9-9.8q0.7-3.6 0.4-6.2-0.2-2.6-1.2-4-1-1.4-2.2-2-1.2-0.6-2.8-0.6-2.4 0-2.6 1.5l-3.9 21q-0.2 1.4 0.2 1.9 0.4 0.5 1.8 0.5 8.1 0 10.3-12.1zm-20 9.8l3.7-20.2q0.2-1.4-0.4-2-0.6-0.5-2.5-0.8l0.1-1h12.6q7 0 10.4 3.6 3.4 3.6 2.3 10-1.2 6.3-5.9 10.2-4.8 3.9-11.4 3.9h-13l0.2-1q1.8 0 2.7-0.7 0.9-0.6 1.2-2zm18.9-9.8q0.7-3.6 0.4-6.2-0.2-2.6-1.2-4-1-1.4-2.2-2-1.2-0.6-2.7-0.6-2.5 0-2.7 1.5l-3.9 21q-0.2 1.4 0.2 1.9 0.4 0.5 1.8 0.5 8.1 0 10.3-12.1zm46.3-2.7l0.2-0.9h8.4l-0.2 0.9q-1.3 0.2-1.9 0.5-0.6 0.3-1.3 1.2l-1.5 1.8q-1.6 2-4.8 5.5 1.3 2.2 2.2 3 0.8 0.8 2 0.8 1.4 0 2.7-1.6l0.7 0.5-0.9 1.1q0 0-0.3 0.4-0.2 0.3-0.4 0.5-0.2 0.2-0.5 0.6-0.4 0.3-0.7 0.6-0.3 0.2-0.7 0.6-0.4 0.3-0.9 0.6-0.4 0.2-0.9 0.4-0.5 0.2-1.1 0.3-0.6 0.1-1.2 0.1-1.7 0-2.8-0.8-1.2-0.8-2.7-2.8-5.4 3.6-9.7 3.6-3.5 0-5.3-2.1-1.8-2-1.3-5.2 0.6-2.9 2.8-5 2.2-2.1 7-4.3-0.9-2.1-1.1-3.3-0.2-1.3 0-2.6 0.6-3 3-4.7 2.5-1.8 6.2-1.8 3.1 0 4.7 1.4 1.6 1.4 1.2 3.6-0.3 1.9-2.1 3.4-1.7 1.4-5.2 2.6l4.6 8.8q2.2-2.3 3.1-3.5 0.9-1.2 1.1-2.5 0.2-0.9-0.2-1.2-0.4-0.3-2.2-0.5zm-16.4 5.4q-0.5 2.6 1 5.5 1.5 2.8 4.1 2.8 1.5 0 4-1.6-1.2-1.9-3.9-7.6l-1.5-2.9q-1.8 0.9-2.7 1.8-0.8 0.9-1 2zm9.4-7.7q1.7-0.5 2.5-1.3 0.8-0.7 1-2 0.4-2.1-0.5-3.6-0.8-1.5-2.3-1.5-1 0-1.7 0.6-0.7 0.6-0.9 1.7-0.4 2.3 1.9 6.1zm5.9 2.3l0.2-0.9h8.4l-0.1 0.9q-1.4 0.2-2 0.5-0.6 0.3-1.3 1.2l-1.5 1.8q-1.6 2-4.8 5.5 1.3 2.2 2.2 3 0.8 0.8 2 0.8 1.4 0 2.7-1.6l0.7 0.5-0.8 1.1q-0.1 0-0.4 0.4-0.2 0.3-0.4 0.5-0.1 0.2-0.5 0.6-0.4 0.3-0.6 0.6-0.3 0.2-0.8 0.6-0.4 0.3-0.9 0.6-0.4 0.2-0.9 0.4-0.5 0.2-1.1 0.3-0.6 0.1-1.2 0.1-1.7 0-2.8-0.8-1.2-0.8-2.7-2.8-5.4 3.6-9.7 3.6-3.5 0-5.3-2.1-1.8-2-1.2-5.2 0.5-2.9 2.7-5 2.3-2.1 7-4.3-0.9-2.1-1.1-3.3-0.2-1.3 0-2.6 0.6-3 3-4.7 2.5-1.8 6.2-1.8 3.1 0 4.7 1.4 1.7 1.4 1.3 3.6-0.4 1.9-2.1 3.4-1.8 1.4-5.3 2.6l4.6 8.8q2.2-2.3 3.1-3.5 0.9-1.2 1.1-2.5 0.2-0.9-0.2-1.2-0.4-0.3-2.2-0.5zm-16.4 5.4q-0.4 2.6 1 5.5 1.5 2.8 4.1 2.8 1.5 0 4-1.6-1.2-1.9-3.9-7.6l-1.4-2.9q-1.9 0.9-2.7 1.8-0.9 0.9-1.1 2zm9.5-7.7q1.6-0.5 2.4-1.3 0.8-0.7 1-2 0.4-2.1-0.5-3.6-0.8-1.5-2.3-1.5-1 0-1.7 0.6-0.7 0.6-0.8 1.7-0.5 2.3 1.9 6.1zm34.3 17.2q-0.1 0.8-0.8 1.5-0.7 0.7-0.8 1.1-0.1 0.6 0.4 1 0.4 0.3 1.3 0.3 1.3 0 2.1-0.8 0.8-0.9 1.1-2.7l4.2-22.8q0.3-1.7-0.4-2.3-0.8-0.6-3.2-0.7l0.1-1h14.5l-0.2 1q-2.3 0.2-3.2 0.9-0.7 0.7-1.1 2.9l-3.3 17.9q-0.8 4.4-3.5 6.7-2.6 2.3-6.9 2.3-3 0-4.8-1.5-1.8-1.5-1.3-3.9 0.2-1.2 1.2-2.1 1-0.9 2.2-0.9 1.2 0 1.9 1 0.8 0.9 0.5 2.1zm-1.1 0q-0.1 0.8-0.8 1.5-0.7 0.7-0.7 1.1-0.1 0.6 0.3 1 0.5 0.3 1.3 0.3 1.4 0 2.1-0.8 0.8-0.9 1.1-2.7l4.2-22.8q0.3-1.7-0.4-2.3-0.7-0.6-3.2-0.7l0.2-1h14.4l-0.2 1q-2.3 0.2-3.1 0.9-0.8 0.7-1.2 2.9l-3.3 17.9q-0.8 4.4-3.4 6.7-2.7 2.3-7 2.3-3 0-4.8-1.5-1.7-1.5-1.3-3.9 0.2-1.2 1.2-2.1 1.1-0.9 2.2-0.9 1.2 0 1.9 1 0.8 0.9 0.5 2.1zm37.7-27q6.2 0 9.5 4.1 3.4 4.2 2.2 10.5-1.1 6.3-6 10.4-4.8 4.1-11.1 4.1-6.4 0-9.7-4-3.4-4.1-2.2-10.5 1.2-6.4 6-10.5 4.9-4.1 11.3-4.1zm-0.3 1.4q-3.6 0-6.1 3.4-2.5 3.5-3.7 10.2-1.1 6.2 0.1 9.5 1.3 3.3 4.8 3.3 3.5 0 6-3.3 2.5-3.3 3.6-9.7 1.2-6.3-0.1-9.9-1.2-3.5-4.6-3.5zm-0.7-1.4q6.1 0 9.4 4.1 3.4 4.2 2.3 10.5-1.2 6.3-6 10.4-4.9 4.1-11.2 4.1-6.4 0-9.7-4-3.3-4.1-2.2-10.5 1.2-6.4 6-10.5 4.9-4.1 11.4-4.1zm-0.3 1.4q-3.6 0-6.2 3.4-2.5 3.5-3.7 10.2-1.1 6.2 0.1 9.5 1.3 3.3 4.8 3.3 3.6 0 6-3.3 2.5-3.3 3.6-9.7 1.2-6.3 0-9.9-1.2-3.5-4.6-3.5zm40.8-1.4q1.9 0 3.9 0.7 2.1 0.7 2.3 0.7 0.6 0 0.9-0.3 0.4-0.4 0.7-1.1h1.2l-1.6 8.9h-1.1q-0.5-3.9-2.3-5.8-1.8-1.8-4.3-1.8-2 0-3.5 1.1-1.4 1.1-1.7 3-0.3 1.5 0.4 2.4 0.7 1 3 2.2l5.4 3q1.8 1 2.7 3.1 0.9 2.1 0.5 4.4-0.7 3.8-4 6.2-3.2 2.4-7.7 2.4-2.3 0-4.3-0.7-2.1-0.7-2.5-0.7-0.9 0-1.5 1.4h-1.2l1.9-10.1h1.2q0.5 8.8 6.7 8.8 2.4 0 4-1.3 1.7-1.3 2-3.4 0.3-1.6-0.4-2.6-0.8-1.1-3.3-2.3l-2.5-1.3q-3.3-1.8-4.6-3.8-1.3-2.1-0.8-4.8 0.7-3.9 3.5-6.1 2.8-2.2 7-2.2zm-1.1 0q2 0 4 0.7 2 0.7 2.3 0.7 0.5 0 0.8-0.3 0.4-0.4 0.7-1.1h1.3l-1.7 8.9h-1.1q-0.5-3.9-2.3-5.8-1.7-1.8-4.2-1.8-2.1 0-3.6 1.1-1.4 1.1-1.7 3-0.3 1.5 0.4 2.4 0.7 1 3 2.2l5.5 3q1.8 1 2.6 3.1 0.9 2.1 0.5 4.4-0.7 3.8-4 6.2-3.2 2.4-7.7 2.4-2.2 0-4.3-0.7-2.1-0.7-2.5-0.7-0.9 0-1.5 1.4h-1.2l1.9-10.1h1.2q0.5 8.8 6.7 8.8 2.4 0 4.1-1.3 1.6-1.3 2-3.4 0.3-1.6-0.5-2.6-0.8-1.1-3.2-2.3l-2.5-1.3q-3.4-1.8-4.7-3.8-1.3-2.1-0.8-4.8 0.7-3.9 3.5-6.1 2.8-2.2 7-2.2zm26.3 27.1q2.7 0 5.1-1.3 2.5-1.3 5.2-3.7l1.1 1-0.7 0.6q-0.6 0.6-0.8 0.8-0.2 0.1-0.9 0.7-0.7 0.6-1 0.8-0.4 0.3-1.2 0.8-0.8 0.5-1.4 0.8-0.5 0.2-1.4 0.6-0.9 0.3-1.7 0.5-0.8 0.2-1.7 0.3-1 0.1-2 0.1-6.3 0-9.7-4-3.3-4.1-2.2-10.4 1.2-6.3 6-10.5 4.9-4.2 11-4.2 1.9 0 3.5 0.5 1.6 0.5 2.7 1 1 0.5 1.7 0.5 0.5 0 1-0.4 0.5-0.4 1.1-1.5h1.1l-1.7 9.6h-1.1q-0.2-0.9-0.5-1.7-0.3-0.8-1-2.1-0.7-1.3-1.5-2.2-0.9-0.9-2.2-1.6-1.3-0.7-2.8-0.7-3.7 0-6.3 3.3-2.5 3.3-3.6 9.7-2.4 12.7 5.9 12.7zm-1.1 0q2.7 0 5.1-1.3 2.5-1.3 5.2-3.7l1.1 1-0.7 0.6q-0.6 0.6-0.8 0.8-0.1 0.1-0.9 0.7-0.6 0.6-1 0.8-0.4 0.3-1.2 0.8-0.8 0.5-1.4 0.8-0.5 0.2-1.4 0.6-0.9 0.3-1.7 0.5-0.7 0.2-1.7 0.3-1 0.1-2 0.1-6.3 0-9.7-4-3.3-4.1-2.1-10.4 1.1-6.3 5.9-10.5 4.9-4.2 11-4.2 1.9 0 3.5 0.5 1.6 0.5 2.7 1 1.1 0.5 1.7 0.5 0.5 0 1-0.4 0.5-0.4 1.1-1.5h1.1l-1.7 9.6h-1q-0.3-0.9-0.6-1.7-0.3-0.8-1-2.1-0.7-1.3-1.5-2.2-0.8-0.9-2.2-1.6-1.3-0.7-2.8-0.7-3.7 0-6.2 3.3-2.6 3.3-3.7 9.7-2.4 12.7 5.9 12.7zm42.8 0.2h0.1l-0.1 1h-13.3l0.2-1q0.8-0.1 1.3-0.1 2-0.1 2.2-1.4 0.2-1.2-0.9-5.5h-9.2l-0.9 1.6q-1.7 3-1.9 3.7-0.1 0.8 0.6 1.2 0.7 0.4 2.5 0.5l-0.2 1h-8.3l0.2-1q1.5-0.3 2.3-1.1 0.8-0.8 2.6-3.7l13.1-22.5h1.2l5.2 21.6q0.9 3.6 1.5 4.7 0.6 1 1.8 1zm-13.1-18.6l-5.7 10h8zm12 18.6h0.2l-0.2 1h-13.3l0.2-1q0.9-0.1 1.3-0.1 2-0.2 2.3-1.4 0.2-1.2-0.9-5.6h-9.2l-0.9 1.6q-1.8 3.1-1.9 3.8-0.2 0.8 0.5 1.2 0.8 0.4 2.5 0.5l-0.2 1h-8.3l0.2-1q1.5-0.3 2.3-1.1 0.9-0.9 2.6-3.7l13.2-22.5h1.1l5.3 21.6q0.8 3.6 1.4 4.7 0.6 1 1.8 1zm-13.1-18.6l-5.6 9.9h8zm22.1-8.1h8.6l11.1 17.6 2.3-12.5q0.4-2.1-0.2-3-0.7-0.8-2.9-1l0.2-1.1h8.8l-0.2 1.1q-2 0.3-2.8 0.9-0.6 0.6-1 2.4l-4.3 24.1h-1.2l-14.3-22.3-3 16.5q-0.4 2.2 0.2 3 0.7 0.8 3 1l-0.2 1.1h-9.3l0.2-1.1q2.3-0.2 3.1-0.9 0.8-0.6 1.1-2.3l3.5-19.5q-1.1-1.7-1.7-2.3-0.6-0.6-1.2-0.6zm-1.1 0h8.6l11.2 17.6 2.2-12.5q0.4-2.2-0.2-3-0.6-0.9-2.8-1.1l0.1-1h8.9l-0.2 1q-2.1 0.3-2.8 0.9-0.7 0.6-1 2.4l-4.4 24.1h-1.2l-14.2-22.3-3 16.5q-0.4 2.2 0.2 3 0.6 0.8 2.9 1.1l-0.2 1h-9.3l0.2-1q2.3-0.3 3.1-0.9 0.8-0.7 1.1-2.4l3.6-19.4q-1.2-1.8-1.8-2.4-0.6-0.6-1.2-0.6zm30.8 24l3.7-20.2q0.3-1.4-0.4-2-0.6-0.6-2.5-0.8l0.2-1h12.5q7.1 0 10.5 3.6 3.4 3.6 2.2 10-1.1 6.3-5.9 10.2-4.7 3.9-11.4 3.9h-12.9l0.1-1q1.8-0.1 2.8-0.7 0.9-0.7 1.1-2zm19-9.8q0.7-3.6 0.4-6.2-0.3-2.7-1.2-4-1-1.4-2.3-2-1.2-0.6-2.7-0.6-2.4 0-2.7 1.4l-3.8 21.1q-0.3 1.4 0.1 1.9 0.4 0.5 1.8 0.5 8.2 0 10.4-12.1zm-20 9.8l3.6-20.2q0.3-1.4-0.3-2-0.6-0.6-2.6-0.8l0.2-1h12.5q7.1 0 10.5 3.6 3.4 3.6 2.3 10-1.2 6.3-6 10.2-4.7 3.9-11.4 3.9h-12.9l0.2-1q1.7-0.1 2.7-0.7 0.9-0.7 1.2-2zm18.9-9.8q0.7-3.6 0.4-6.2-0.2-2.7-1.2-4-1-1.4-2.3-2-1.2-0.6-2.7-0.6-2.4 0-2.6 1.4l-3.9 21.1q-0.2 1.4 0.2 1.9 0.4 0.5 1.8 0.5 8.1 0 10.3-12.1zm13.7 9.6l3.6-19.9q0.3-1.5-0.5-2.1-0.6-0.6-2.8-0.8l0.2-1h14.3l-0.2 1q-2.2 0.1-3.2 0.7-0.9 0.6-1.2 2.2l-3.6 19.9q-0.3 1.6 0.4 2.2 0.7 0.5 3 0.7l-0.2 1h-14.4l0.2-1q2.4-0.2 3.2-0.8 0.9-0.6 1.2-2.1zm-1.1 0l3.6-19.9q0.3-1.5-0.4-2.1-0.7-0.6-2.9-0.8l0.2-1h14.3l-0.1 1q-2.3 0.1-3.2 0.7-1 0.6-1.3 2.2l-3.6 19.9q-0.3 1.6 0.4 2.2 0.7 0.5 3 0.7l-0.2 1h-14.3l0.1-1q2.4-0.2 3.2-0.8 0.9-0.6 1.2-2.1zm18.8-23.8h8.7l11.1 17.6 2.2-12.5q0.4-2.2-0.2-3-0.6-0.9-2.8-1.1l0.1-1h8.9l-0.2 1q-2.1 0.4-2.8 1-0.7 0.5-1 2.3l-4.4 24.2h-1.2l-14.2-22.4-3 16.5q-0.4 2.2 0.2 3 0.6 0.8 2.9 1.1l-0.2 1h-9.3l0.2-1q2.3-0.3 3.1-0.9 0.8-0.6 1.1-2.4l3.6-19.4q-1.2-1.8-1.8-2.4-0.6-0.6-1.2-0.6zm-1.1 0h8.7l11.1 17.6 2.3-12.5q0.4-2.2-0.3-3-0.6-0.8-2.8-1.1l0.2-1h8.8l-0.2 1q-2.1 0.4-2.8 1-0.7 0.6-1 2.3l-4.4 24.2h-1.1l-14.3-22.3-3 16.5q-0.4 2.1 0.2 2.9 0.6 0.8 3 1.1l-0.2 1h-9.3l0.2-1q2.3-0.3 3-0.9 0.8-0.6 1.2-2.4l3.5-19.4q-1.2-1.8-1.8-2.3-0.5-0.7-1.2-0.7zm54.7 26.7h0.2l-0.2 1.1h-13.3l0.2-1.1q0.9-0.1 1.3-0.1 2-0.1 2.2-1.3 0.2-1.3-0.8-5.6h-9.3l-0.9 1.6q-1.7 3.1-1.9 3.8-0.1 0.7 0.6 1.1 0.7 0.4 2.5 0.5l-0.2 1.1h-8.3l0.2-1.1q1.5-0.2 2.3-1.1 0.9-0.8 2.6-3.7l13.2-22.4h1.1l5.2 21.5q0.9 3.6 1.5 4.7 0.6 1 1.8 1zm-13.1-18.6l-5.7 10h8zm12 18.6h0.2l-0.2 1h-13.3l0.2-1q0.9-0.1 1.4-0.1 1.9-0.1 2.2-1.4 0.2-1.2-0.9-5.5h-9.2l-0.9 1.5q-1.8 3.1-1.9 3.8-0.1 0.8 0.6 1.2 0.7 0.4 2.4 0.5l-0.1 1h-8.4l0.2-1q1.6-0.3 2.4-1.1 0.8-0.8 2.5-3.7l13.2-22.5h1.2l5.2 21.6q0.8 3.6 1.4 4.7 0.7 1 1.8 1zm-13.1-18.6l-5.6 10h8zm38-8.1h8.8l-0.2 1q-1.7 0.2-2.5 0.8-0.7 0.6-1.8 2.6l-13.8 24h-1.1l-6-24.5q-0.5-1.7-0.9-2.2-0.5-0.5-2-0.7l0.2-1h13.8l-0.2 1q-1.3 0.1-1.4 0.1-2.2 0.1-2.4 1.5-0.2 0.7 0.4 2.9l3.1 13.7 7.7-13.5q1.2-2.1 1.3-2.9 0.2-1-0.4-1.3-0.6-0.3-2.8-0.5zm-1 0h8.7l-0.2 1q-1.6 0.2-2.4 0.8-0.8 0.7-1.9 2.6l-13.7 24.1h-1.1l-6.1-24.6q-0.4-1.7-0.9-2.2-0.5-0.5-2-0.7l0.2-1h13.8l-0.2 1q-1.2 0.1-1.4 0.1-2.2 0.1-2.4 1.5-0.1 0.7 0.4 2.9l3.2 13.7 7.6-13.5q1.2-2.1 1.4-2.9 0.2-1-0.4-1.3-0.6-0.3-2.8-0.5zm11.6 23.8l3.6-19.8q0.3-1.6-0.4-2.2-0.7-0.6-2.9-0.8l0.2-1h14.4l-0.2 1q-2.3 0.1-3.2 0.7-0.9 0.7-1.2 2.3l-3.6 19.8q-0.3 1.6 0.3 2.2 0.7 0.6 3 0.7l-0.2 1h-14.3l0.2-1q2.3-0.2 3.1-0.8 0.9-0.5 1.2-2.1zm-1.1 0l3.6-19.8q0.3-1.6-0.4-2.2-0.7-0.6-2.8-0.8l0.1-1h14.4l-0.2 1q-2.3 0.1-3.2 0.7-0.9 0.7-1.2 2.3l-3.6 19.8q-0.3 1.6 0.4 2.2 0.6 0.6 2.9 0.7l-0.1 1h-14.4l0.2-1q2.3-0.2 3.2-0.8 0.9-0.5 1.1-2.1zm41.6 2.9h0.1l-0.1 1h-13.3l0.2-1q0.8-0.1 1.3-0.1 2-0.1 2.2-1.4 0.2-1.2-0.9-5.5h-9.2l-0.9 1.6q-1.7 3-1.9 3.7-0.1 0.8 0.6 1.2 0.7 0.4 2.5 0.5l-0.2 1h-8.3l0.2-1q1.5-0.3 2.3-1.1 0.8-0.8 2.6-3.7l13.2-22.4h1.1l5.2 21.5q0.9 3.6 1.5 4.7 0.6 1 1.8 1zm-13.1-18.6l-5.7 10h8zm12 18.6h0.2l-0.2 1h-13.3l0.2-1q0.9-0.1 1.3-0.1 2-0.2 2.3-1.4 0.2-1.2-0.9-5.6h-9.2l-0.9 1.6q-1.8 3.1-1.9 3.8-0.2 0.8 0.5 1.2 0.8 0.4 2.5 0.5l-0.1 1h-8.4l0.2-1q1.5-0.3 2.3-1.1 0.9-0.8 2.6-3.7l13.2-22.5h1.1l5.3 21.6q0.8 3.6 1.4 4.7 0.6 1 1.8 1zm-13.1-18.6l-5.6 9.9h8zm-337.3 37q0.1-0.7-0.2-0.8-0.4-0.2-1.7-0.4l0.2-0.7h8.4q4.1 0 6 2.1 1.9 2.1 1.3 5.8-0.9 4.9-5.2 8.2-4.3 3.3-9.8 3.3h-8.3l0.1-0.8q1.1-0.1 1.6-0.5 0.6-0.4 1.1-1.5l5.9-13q0.6-1.4 0.6-1.7zm4.4 0.1l-6.3 13.8q-0.6 1.4-0.6 1.6-0.2 1 1.4 1 4 0 6.9-3.3 1.5-1.7 2.6-4.1 1.2-2.4 1.6-4.9 1-5.2-3.8-5.2-1.3 0-1.8 1.1zm-5.1-0.1q0.1-0.7-0.3-0.8-0.4-0.2-1.6-0.4l0.1-0.7h8.4q4.1 0 6 2.1 2 2.1 1.3 5.8-0.9 4.9-5.2 8.2-4.3 3.3-9.8 3.3h-8.3l0.1-0.8q1.1-0.1 1.7-0.5 0.5-0.4 1-1.5l5.9-13q0.6-1.4 0.7-1.7zm4.3 0.1l-6.2 13.8q-0.6 1.4-0.7 1.6-0.2 1 1.4 1 4.1 0 7-3.3 1.5-1.7 2.6-4.1 1.1-2.4 1.5-4.9 1-5.2-3.8-5.2-1.3 0-1.8 1.1zm16.4 13.9l0.5-0.6 0.6 0.4q-2 2.3-3.1 3.1-1.2 0.8-2.5 0.8-0.9 0-1.3-0.5-0.5-0.5-0.3-1.3 0.1-0.7 0.7-2l2.8-6.2q0.4-0.9 0.4-1.2 0.1-0.5-0.3-0.6-0.3-0.2-1.2-0.2l0.1-0.8q3.4-0.3 6-0.8l-4.4 9.7q-0.4 1-0.5 1.5 0 0.1 0 0.3 0.2 0.1 0.3 0.1 0.7 0 2.2-1.7zm2.8-16.4q0.8 0 1.2 0.6 0.5 0.6 0.4 1.4-0.2 0.8-0.8 1.4-0.7 0.5-1.6 0.5-0.8 0-1.2-0.6-0.5-0.5-0.3-1.4 0.1-0.7 0.8-1.3 0.7-0.6 1.5-0.6zm-3.6 16.4l0.6-0.6 0.5 0.4q-1.9 2.3-3.1 3.1-1.1 0.8-2.4 0.8-0.9 0-1.4-0.5-0.5-0.5-0.3-1.3 0.1-0.7 0.7-2l2.9-6.2q0.3-0.9 0.4-1.2 0-0.5-0.3-0.6-0.4-0.2-1.3-0.2l0.1-0.8q3.5-0.3 6.1-0.8l-4.4 9.7q-0.5 1-0.6 1.5 0 0.1 0.1 0.3 0.1 0.1 0.3 0.1 0.7 0 2.1-1.7zm2.8-16.4q0.8 0 1.3 0.6 0.5 0.6 0.3 1.4-0.1 0.8-0.8 1.4-0.7 0.5-1.5 0.5-0.8 0-1.3-0.6-0.4-0.5-0.3-1.4 0.2-0.7 0.9-1.3 0.6-0.6 1.4-0.6zm9.3 6.5l-2.9 5.7q2.9-3.3 4.3-4.5 1.5-1.2 3.2-1.2 1 0 1.5 0.5 0.4 0.6 0.2 1.6-0.2 1.1-1.3 3.4l-1.7 3.1q-1.1 2.2-1.1 2.6-0.1 0.5 0.3 0.5 0.4 0 0.8-0.5 0.5-0.4 1.6-1.7l0.6 0.3q-1.7 2.1-2.9 3-1.1 0.8-2.4 0.8-0.9 0-1.4-0.4-0.4-0.5-0.3-1.3 0.3-1.4 1.5-3.8l2.5-4.8q0.2-0.5 0.3-0.6 0-0.3-0.2-0.4-0.2-0.2-0.5-0.2-0.4 0-1 0.4-0.7 0.4-1.2 1-1.7 1.7-3 3.9-1.3 2.2-3 6h-3.5l2.7-5.9q2.2-4.7 2.2-5.2 0.1-0.4-0.2-0.6-0.3-0.1-1.2-0.1l0.1-0.8q2.7-0.1 6-0.8zm-0.8 0l-2.9 5.7q2.9-3.3 4.4-4.5 1.4-1.2 3.1-1.2 1.1 0 1.5 0.5 0.5 0.6 0.3 1.6-0.2 1.1-1.4 3.4l-1.6 3.1q-1.1 2.2-1.2 2.6-0.1 0.5 0.3 0.5 0.4 0 0.8-0.5 0.5-0.4 1.6-1.7l0.6 0.3q-1.6 2.1-2.8 3-1.2 0.8-2.5 0.8-0.9 0-1.4-0.4-0.4-0.5-0.2-1.3 0.2-1.4 1.5-3.8l2.4-4.8q0.3-0.5 0.3-0.6 0-0.3-0.2-0.4-0.2-0.2-0.4-0.2-0.4 0-1.1 0.4-0.6 0.4-1.2 1-1.6 1.7-3 3.9-1.3 2.2-3 6h-3.5l2.7-5.9q2.2-4.7 2.3-5.2 0-0.4-0.2-0.6-0.3-0.1-1.3-0.1l0.2-0.8q2.7-0.1 5.9-0.8zm25.4 9.2l0.8 0.5q-1.7 2.2-3.2 3.1-1.4 0.9-3.1 0.9-1.8 0-2.9-1.2-1-1.2-0.7-3 0.7-3.6 3.8-6.6 3.2-2.9 6.3-2.9 1.4 0 2.1 0.7 0.7 0.7 0.5 1.8-0.1 0.6-0.5 1.3-0.4 0.6-1.2 1.5-0.9 0.8-2.6 1.6-1.8 0.8-4.2 1.2-0.3 0.9-0.4 1.4-0.4 2.4 1.5 2.4 0.9 0 1.7-0.6 0.8-0.5 2.1-2.1zm-4.5-2q2.2-0.8 3.7-2 1.5-1.1 1.9-3.3 0.1-1-0.7-1-2.1 0-4.9 6.3zm3.8 2l0.7 0.5q-1.7 2.2-3.1 3.1-1.5 0.9-3.1 0.9-1.9 0-2.9-1.2-1.1-1.2-0.7-3 0.6-3.6 3.8-6.6 3.1-2.9 6.3-2.9 1.3 0 2 0.7 0.8 0.7 0.6 1.8-0.2 0.6-0.5 1.3-0.4 0.6-1.3 1.5-0.9 0.8-2.6 1.6-1.7 0.8-4.1 1.2-0.4 0.9-0.5 1.4-0.4 2.4 1.5 2.4 0.9 0 1.7-0.6 0.9-0.5 2.2-2.1zm-4.5-2q2.2-0.8 3.6-2 1.5-1.1 1.9-3.3 0.2-1-0.6-1-2.2 0-4.9 6.3zm6.5 9q0-0.4 0.2-0.7 0.1-0.3 0.3-0.5 0.2-0.2 0.4-0.4 0.3-0.3 0.5-0.4 0.2-0.2 0.6-0.3 0.3-0.2 0.5-0.2 0.2-0.1 0.6-0.2 0.4-0.1 0.5-0.2 0.1 0 0.4 0l0.4-0.1q-1.7-0.6-1.5-2 0.2-0.7 0.8-1.2 0.6-0.5 2.5-1.6-2.1-0.9-1.7-3.2 0.4-2.2 2.5-3.7 2.2-1.5 4.9-1.5 1.9 0 3 0.9h3.2l-0.3 1.6h-1.9q0.1 0.6-0.1 1.3-0.2 1.5-1.2 2.6-1 1.1-2.2 1.6-1.2 0.5-2.2 0.7-0.9 0.2-1.6 0.2-0.5 0-0.9-0.1-0.3-0.1-0.5-0.1-0.3 0-0.6 0.3-0.3 0.4-0.4 0.7-0.1 0.7 1.3 1.1l1.4 0.5q2.3 0.6 3.1 1.5 0.8 0.8 0.6 2.1-0.4 1.9-2.5 3.1-2.2 1.3-5.2 1.3-2.5 0-3.9-0.9-1.3-0.8-1-2.2zm5.3-2.7q-0.5 0-1.5 0.8-1.1 0.8-1.3 1.7-0.2 1 0.6 1.6 0.8 0.7 2.2 0.7 1.7 0 2.7-0.6 1-0.5 1.2-1.4 0.2-1.1-0.9-1.7-0.4-0.2-1.6-0.6-1.2-0.5-1.4-0.5zm3.3-5.5q1.3 0 2.5-1.9 1.3-1.9 1.6-3.5 0.1-0.8-0.2-1.2-0.3-0.5-0.8-0.5-1.3 0-2.5 1.9-1.2 1.9-1.5 3.5-0.4 1.7 0.9 1.7zm-9.4 8.2q0.1-0.4 0.2-0.7 0.2-0.3 0.3-0.5 0.2-0.2 0.5-0.4 0.2-0.3 0.4-0.4 0.3-0.2 0.6-0.3 0.4-0.2 0.6-0.2 0.2-0.1 0.5-0.2 0.4-0.1 0.5-0.2 0.1 0 0.5 0l0.3-0.1q-1.7-0.6-1.4-2 0.1-0.7 0.7-1.2 0.6-0.5 2.6-1.6-2.2-0.9-1.8-3.2 0.4-2.2 2.6-3.7 2.1-1.5 4.8-1.5 1.9 0 3 0.9h3.3l-0.3 1.6h-2q0.1 0.6 0 1.3-0.3 1.5-1.3 2.6-0.9 1.1-2.1 1.6-1.3 0.5-2.2 0.7-1 0.2-1.6 0.2-0.5 0-0.9-0.1-0.4-0.1-0.6-0.1-0.3 0-0.6 0.3-0.3 0.4-0.4 0.7-0.1 0.7 1.3 1.1l1.5 0.5q2.2 0.6 3 1.5 0.9 0.8 0.6 2.1-0.3 1.9-2.5 3.1-2.2 1.3-5.2 1.3-2.5 0-3.8-0.9-1.4-0.8-1.1-2.2zm5.3-2.7q-0.4 0-1.5 0.8-1.1 0.8-1.2 1.7-0.2 1 0.6 1.6 0.7 0.7 2.2 0.7 1.6 0 2.6-0.6 1-0.5 1.2-1.4 0.2-1.1-0.9-1.7-0.4-0.2-1.6-0.6-1.2-0.5-1.4-0.5zm3.3-5.5q1.3 0 2.5-1.9 1.3-1.9 1.6-3.5 0.1-0.8-0.2-1.2-0.3-0.5-0.8-0.5-1.3 0-2.5 1.9-1.2 1.9-1.5 3.5-0.3 1.7 0.9 1.7zm18.2-8l-2.9 5.7q2.9-3.3 4.4-4.5 1.4-1.2 3.1-1.2 1.1 0 1.5 0.5 0.5 0.6 0.3 1.6-0.2 1.1-1.4 3.4l-1.6 3.1q-1.1 2.2-1.2 2.6-0.1 0.5 0.3 0.5 0.4 0 0.8-0.5 0.5-0.4 1.6-1.7l0.6 0.3q-1.6 2.1-2.8 3-1.2 0.8-2.5 0.8-0.9 0-1.4-0.4-0.4-0.5-0.2-1.3 0.2-1.4 1.5-3.8l2.4-4.8q0.3-0.5 0.3-0.6 0-0.3-0.2-0.4-0.2-0.2-0.4-0.2-0.4 0-1.1 0.4-0.6 0.4-1.2 1-1.6 1.7-3 3.9-1.3 2.2-3 6h-3.5l2.7-5.9q2.2-4.7 2.3-5.2 0.1-0.4-0.2-0.6-0.3-0.1-1.3-0.1l0.2-0.8q2.7-0.1 5.9-0.8zm-0.7 0l-2.9 5.7q2.8-3.3 4.3-4.5 1.5-1.2 3.2-1.2 1 0 1.4 0.5 0.5 0.6 0.3 1.6-0.2 1.1-1.4 3.4l-1.6 3.1q-1.1 2.2-1.2 2.6-0.1 0.5 0.4 0.5 0.3 0 0.8-0.5 0.5-0.4 1.6-1.7l0.6 0.3q-1.7 2.1-2.9 3-1.2 0.8-2.4 0.8-0.9 0-1.4-0.4-0.5-0.5-0.3-1.3 0.2-1.4 1.5-3.8l2.5-4.8q0.2-0.5 0.2-0.6 0.1-0.3-0.1-0.4-0.2-0.2-0.5-0.2-0.4 0-1.1 0.4-0.6 0.4-1.1 1-1.7 1.7-3 3.9-1.3 2.2-3.1 6h-3.5l2.7-5.9q2.2-4.7 2.3-5.2 0.1-0.4-0.2-0.6-0.3-0.1-1.2-0.1l0.1-0.8q2.7-0.1 6-0.8zm18.6 2.5q0.1-0.6-0.1-0.9-0.3-0.4-0.8-0.4-0.8 0-2.3 1.6-1.4 1.6-2.6 3.8-1.1 2.1-1.4 3.5-0.1 0.7 0.2 1.1 0.3 0.5 0.8 0.5 1.2 0 2.6-1.9 1.5-1.9 2.5-4 0.9-2.1 1.1-3.3zm2.5 7.2l0.6 0.4q-3.1 3.7-5.1 3.7-0.8 0-1.3-0.6-0.4-0.5-0.3-1.3 0.1-0.5 0.8-2-1.7 2.1-2.9 3-1.2 0.8-2.6 0.8-1.4 0-2.1-1-0.6-1-0.3-2.6 0.4-2.2 2-4.6 1.7-2.4 3.8-4 2.2-1.5 3.9-1.5 0.9 0 1.3 0.5 0.5 0.5 0.5 1.6l0.8-1.8 3.3-0.2-3.3 6.9q-1.6 3.3-1.8 4.3-0.1 0.4 0.3 0.4 0.3 0 0.8-0.4 0.5-0.4 1.6-1.6zm-3.2-7.2q0.1-0.6-0.2-0.9-0.3-0.4-0.7-0.4-0.9 0-2.3 1.6-1.4 1.6-2.6 3.8-1.2 2.1-1.5 3.5-0.1 0.7 0.2 1.1 0.3 0.5 0.9 0.5 1.1 0 2.6-1.9 1.5-1.9 2.4-4 0.9-2.1 1.2-3.3zm2.5 7.2l0.5 0.4q-3.1 3.7-5.1 3.7-0.8 0-1.2-0.6-0.5-0.5-0.4-1.3 0.1-0.5 0.8-2-1.6 2.1-2.9 3-1.2 0.8-2.5 0.8-1.5 0-2.2-1-0.6-1-0.3-2.6 0.4-2.2 2-4.6 1.7-2.4 3.8-4 2.2-1.5 3.9-1.5 1 0 1.4 0.5 0.4 0.5 0.4 1.6l0.8-1.8 3.3-0.2-3.3 6.9q-1.6 3.3-1.8 4.3 0 0.4 0.3 0.4 0.3 0 0.8-0.4 0.5-0.4 1.7-1.6zm22.2-5.7q-0.6 0-1-0.6-0.5-0.5-0.5-0.5-0.7 0-2.1 2-1.5 1.9-3.3 5.5-0.2 0.4-1.5 3h-3.5q4.8-10 5-11.1 0.1-0.4-0.2-0.5-0.3-0.2-1.2-0.2l0.1-0.8q3.9-0.3 5.9-0.8l-3 6q2.4-3.4 3.7-4.7 1.3-1.3 2.4-1.3 0.7 0 1.1 0.5 0.4 0.5 0.2 1.4-0.2 0.9-0.8 1.5-0.6 0.6-1.3 0.6zm-0.8 0q-0.5 0-1-0.6-0.4-0.5-0.5-0.5-0.6 0-2.1 2-1.5 1.9-3.2 5.5-0.2 0.4-1.5 3h-3.5q4.7-10 4.9-11.1 0.1-0.4-0.2-0.5-0.2-0.2-1.2-0.2l0.1-0.8q3.9-0.3 6-0.8l-3 6q2.3-3.4 3.6-4.7 1.3-1.3 2.4-1.3 0.8 0 1.1 0.5 0.4 0.5 0.2 1.4-0.1 0.9-0.7 1.5-0.6 0.6-1.4 0.6zm10.3 5.2l0.8 0.5q-1.7 2.2-3.1 3.1-1.5 0.9-3.1 0.9-1.9 0-3-1.2-1-1.2-0.6-3 0.6-3.6 3.8-6.6 3.1-2.9 6.2-2.9 1.4 0 2.1 0.7 0.7 0.7 0.5 1.8-0.1 0.6-0.5 1.3-0.3 0.6-1.2 1.5-0.9 0.8-2.6 1.6-1.8 0.8-4.2 1.2-0.3 0.9-0.4 1.4-0.4 2.4 1.5 2.4 0.9 0 1.7-0.6 0.9-0.5 2.1-2.1zm-4.5-2q2.2-0.8 3.7-2 1.5-1.1 1.9-3.3 0.1-1-0.7-1-2.1 0-4.9 6.3zm3.8 2l0.7 0.5q-1.7 2.2-3.1 3.1-1.5 0.9-3.1 0.9-1.9 0-2.9-1.2-1-1.2-0.7-3 0.6-3.6 3.8-6.6 3.1-2.9 6.3-2.9 1.3 0 2 0.7 0.8 0.7 0.6 1.8-0.2 0.6-0.5 1.3-0.4 0.6-1.3 1.5-0.8 0.8-2.6 1.6-1.7 0.8-4.1 1.2-0.3 0.9-0.4 1.4-0.5 2.4 1.4 2.4 0.9 0 1.7-0.6 0.9-0.5 2.2-2.1zm-4.5-2q2.2-0.8 3.6-2 1.5-1.1 1.9-3.3 0.2-1-0.6-1-2.2 0-4.9 6.3zm15.9-7.2q0.6 0 1.4 0.3 0.9 0.3 1.2 0.3 0.3 0 0.5-0.1 0.1-0.1 0.4-0.5h0.9l-1.5 4.4h-0.8q0-1.8-0.5-2.6-0.4-0.9-1.4-0.9-0.7 0-1.2 0.5-0.5 0.4-0.6 1.1-0.1 0.6 0.3 1.5 0.5 0.9 1.1 1.7 0.6 0.9 1 2 0.4 1.2 0.2 2.2-0.3 1.6-1.7 2.7-1.5 1.1-3.3 1.1-0.7 0-1.6-0.2-0.8-0.3-1-0.3-0.7 0-1 0.5h-0.7l1.5-4.8 0.7 0.1q-0.1 3.9 2.1 3.9 0.7 0 1.3-0.5 0.5-0.4 0.7-1.1 0.1-0.7-0.4-1.6-0.4-0.9-1-1.8-0.6-0.8-1-2-0.4-1.1-0.2-2.3 0.3-1.6 1.5-2.6 1.3-1 3.1-1zm-0.8 0q0.6 0 1.5 0.3 0.8 0.3 1.1 0.3 0.3 0 0.5-0.1 0.2-0.1 0.5-0.5h0.8l-1.5 4.4h-0.7q-0.1-1.8-0.5-2.6-0.5-0.9-1.5-0.9-0.7 0-1.2 0.5-0.5 0.4-0.6 1.1-0.1 0.6 0.3 1.5 0.5 0.9 1.1 1.7 0.6 0.9 1 2 0.4 1.2 0.2 2.2-0.3 1.6-1.7 2.7-1.4 1.1-3.3 1.1-0.7 0-1.6-0.2-0.8-0.3-1-0.3-0.6 0-0.9 0.5h-0.8l1.5-4.8 0.8 0.1q-0.1 3.9 2.1 3.9 0.7 0 1.2-0.5 0.6-0.4 0.7-1.1 0.1-0.7-0.3-1.6-0.5-0.9-1.1-1.8-0.6-0.8-1-2-0.4-1.1-0.2-2.3 0.3-1.6 1.6-2.6 1.2-1 3-1zm14.1 9.2l0.8 0.5q-1.7 2.2-3.2 3.1-1.4 0.9-3.1 0.9-1.8 0-2.9-1.2-1-1.2-0.7-3 0.7-3.6 3.8-6.6 3.2-2.9 6.3-2.9 1.4 0 2.1 0.7 0.7 0.7 0.5 1.8-0.1 0.6-0.5 1.3-0.4 0.6-1.2 1.5-0.9 0.8-2.6 1.6-1.8 0.8-4.2 1.2-0.3 0.9-0.4 1.4-0.4 2.4 1.5 2.4 0.9 0 1.7-0.6 0.8-0.5 2.1-2.1zm-4.5-2q2.2-0.8 3.7-2 1.5-1.1 1.8-3.3 0.2-1-0.6-1-2.1 0-4.9 6.3zm3.8 2l0.7 0.5q-1.7 2.2-3.1 3.1-1.5 0.9-3.1 0.9-1.9 0-2.9-1.2-1.1-1.2-0.7-3 0.6-3.6 3.8-6.6 3.1-2.9 6.3-2.9 1.3 0 2 0.7 0.7 0.7 0.5 1.8-0.1 0.6-0.5 1.3-0.3 0.6-1.2 1.5-0.9 0.8-2.6 1.6-1.7 0.8-4.1 1.2-0.4 0.9-0.5 1.4-0.4 2.4 1.5 2.4 0.9 0 1.7-0.6 0.9-0.5 2.2-2.1zm-4.6-2q2.3-0.8 3.7-2 1.5-1.1 1.9-3.3 0.2-1-0.7-1-2.1 0-4.9 6.3zm6.6 9q0-0.4 0.2-0.7 0.1-0.3 0.3-0.5 0.2-0.2 0.4-0.4 0.3-0.3 0.5-0.4 0.2-0.2 0.6-0.3 0.3-0.2 0.5-0.2 0.2-0.1 0.6-0.2 0.4-0.1 0.5-0.2 0.1 0 0.4 0l0.4-0.1q-1.7-0.6-1.5-2 0.2-0.7 0.7-1.2 0.7-0.5 2.6-1.6-2.1-0.9-1.7-3.2 0.4-2.2 2.5-3.7 2.2-1.5 4.9-1.5 1.9 0 3 0.9h3.2l-0.3 1.6h-1.9q0 0.6-0.1 1.3-0.3 1.5-1.2 2.6-1 1.1-2.2 1.6-1.2 0.5-2.2 0.7-0.9 0.2-1.6 0.2-0.5 0-0.9-0.1-0.3-0.1-0.5-0.1-0.3 0-0.6 0.3-0.4 0.4-0.4 0.7-0.2 0.7 1.3 1.1l1.4 0.5q2.3 0.6 3.1 1.5 0.8 0.8 0.6 2.1-0.4 1.9-2.5 3.1-2.2 1.3-5.2 1.3-2.5 0-3.9-0.9-1.3-0.8-1-2.2zm5.3-2.7q-0.5 0-1.6 0.8-1 0.8-1.2 1.7-0.2 1 0.6 1.6 0.8 0.7 2.2 0.7 1.7 0 2.7-0.6 1-0.5 1.2-1.4 0.2-1.1-0.9-1.7-0.5-0.2-1.6-0.6-1.2-0.5-1.4-0.5zm3.3-5.5q1.3 0 2.5-1.9 1.2-1.9 1.5-3.5 0.2-0.8-0.1-1.2-0.3-0.5-0.9-0.5-1.2 0-2.4 1.9-1.3 1.9-1.6 3.5-0.3 1.7 1 1.7zm-9.4 8.2q0.1-0.4 0.2-0.7 0.1-0.3 0.3-0.5 0.2-0.2 0.5-0.4 0.2-0.3 0.4-0.4 0.3-0.2 0.6-0.3 0.4-0.2 0.5-0.2 0.3-0.1 0.6-0.2 0.4-0.1 0.5-0.2 0.1 0 0.5 0l0.3-0.1q-1.7-0.6-1.5-2 0.2-0.7 0.8-1.2 0.6-0.5 2.5-1.6-2.1-0.9-1.7-3.2 0.4-2.2 2.6-3.7 2.1-1.5 4.8-1.5 1.9 0 3 0.9h3.2l-0.3 1.6h-1.9q0.1 0.6 0 1.3-0.3 1.5-1.3 2.6-0.9 1.1-2.2 1.6-1.2 0.5-2.1 0.7-1 0.2-1.6 0.2-0.5 0-0.9-0.1-0.4-0.1-0.6-0.1-0.3 0-0.6 0.3-0.3 0.4-0.4 0.7-0.1 0.7 1.3 1.1l1.4 0.5q2.3 0.6 3.1 1.5 0.8 0.8 0.6 2.1-0.3 1.9-2.5 3.1-2.2 1.3-5.2 1.3-2.5 0-3.8-0.9-1.4-0.8-1.1-2.2zm5.3-2.7q-0.4 0-1.5 0.8-1.1 0.8-1.3 1.7-0.1 1 0.7 1.6 0.7 0.7 2.2 0.7 1.6 0 2.6-0.6 1-0.5 1.2-1.4 0.2-1.1-0.9-1.7-0.4-0.2-1.6-0.6-1.2-0.5-1.4-0.5zm3.3-5.5q1.3 0 2.5-1.9 1.3-1.9 1.6-3.5 0.1-0.8-0.2-1.2-0.3-0.5-0.8-0.5-1.3 0-2.5 1.9-1.2 1.9-1.5 3.5-0.3 1.7 0.9 1.7zm23.2 1.5l0.6 0.4q-2.9 3.7-5.4 3.7-1.9 0-1.5-1.7 0.2-1.1 1.2-3.2-2.8 3.1-4 4-1.2 0.9-2.7 0.9-2.1 0-1.7-2.1 0.1-1.1 1.1-3.2l1.9-3.8q0.6-1.3 0.8-2.1 0.1-0.5-0.2-0.6-0.3-0.2-1.3-0.2l0.2-0.8q1.7-0.1 6.2-0.8l-4.4 8.9q-0.7 1.5-0.8 1.9-0.1 0.7 0.5 0.7 0.8 0 2.4-1.6 1.5-1.5 2.7-3.4 1.2-2 3.2-6.2h3.4l-3.7 7.8q-1.2 2.5-1.2 2.9 0 0 0 0.1 0 0-0.1 0.1 0 0.5 0.4 0.5 0.6 0 2.4-2.2zm-0.7 0l0.5 0.4q-2.8 3.7-5.3 3.7-1.9 0-1.6-1.7 0.2-1.1 1.3-3.2-2.8 3.1-4.1 4-1.2 0.9-2.6 0.9-2.2 0-1.8-2.1 0.2-1.1 1.2-3.2l1.8-3.8q0.7-1.3 0.8-2.1 0.1-0.5-0.2-0.6-0.3-0.2-1.2-0.2l0.1-0.8q1.7-0.1 6.2-0.8l-4.3 8.9q-0.7 1.5-0.8 1.9-0.2 0.7 0.4 0.7 0.9 0 2.5-1.6 1.5-1.5 2.6-3.4 1.2-2 3.2-6.2h3.4l-3.6 7.8q-1.2 2.5-1.3 2.9 0 0 0 0.1 0 0 0 0.1-0.1 0.5 0.3 0.5 0.7 0 2.5-2.2zm9.3 0.4l0.5-0.6 0.5 0.4q-1.9 2.3-3.1 3.1-1.1 0.8-2.4 0.8-0.9 0-1.4-0.5-0.4-0.5-0.3-1.3 0.1-0.7 0.8-2l2.8-6.2q0.3-0.9 0.4-1.2 0.1-0.5-0.3-0.6-0.3-0.2-1.3-0.2l0.2-0.8q3.4-0.3 6-0.8l-4.4 9.7q-0.5 1-0.6 1.5 0 0.1 0.1 0.3 0.1 0.1 0.3 0.1 0.7 0 2.2-1.7zm2.7-16.4q0.8 0 1.3 0.6 0.5 0.6 0.3 1.4-0.1 0.8-0.8 1.4-0.7 0.5-1.5 0.5-0.8 0-1.3-0.6-0.4-0.5-0.3-1.4 0.2-0.7 0.9-1.3 0.7-0.6 1.4-0.6zm-3.5 16.4l0.5-0.6 0.6 0.4q-2 2.3-3.1 3.1-1.2 0.8-2.5 0.8-0.9 0-1.3-0.5-0.5-0.5-0.4-1.3 0.2-0.7 0.8-2l2.8-6.2q0.4-0.9 0.4-1.2 0.1-0.5-0.3-0.6-0.3-0.2-1.2-0.2l0.1-0.8q3.4-0.3 6-0.8l-4.4 9.7q-0.4 1-0.5 1.5-0.1 0.1 0 0.3 0.2 0.1 0.3 0.1 0.7 0 2.2-1.7zm2.7-16.4q0.9 0 1.3 0.6 0.5 0.6 0.4 1.4-0.2 0.8-0.8 1.4-0.7 0.5-1.6 0.5-0.8 0-1.2-0.6-0.5-0.5-0.3-1.4 0.1-0.7 0.8-1.3 0.7-0.6 1.4-0.6zm13.5 16.1l0.6 0.4q-1.5 1.9-2.7 2.8-1.2 0.9-2.3 0.9-0.8 0-1.2-0.5-0.4-0.5-0.2-1.3 0.1-0.5 0.7-2-1.7 2.1-2.9 3-1.3 0.8-2.6 0.8-1.4 0-2.1-1-0.6-1-0.3-2.6 0.4-2.2 2-4.6 1.7-2.4 3.8-3.9 2.2-1.6 3.9-1.6 1.1 0 1.9 0.9l0.9-1.9q1.3-2.9 1.4-3.5 0.2-0.8-1-0.8h-0.6l0.1-0.8q3.8-0.3 6.3-0.8l-5.4 11.7q-2.8 6-2.8 6.5-0.1 0.1 0 0.2 0.1 0.2 0.2 0.2 0.7 0 2.3-2.1zm-2.1-7q0.1-0.6-0.2-1-0.2-0.4-0.7-0.4-1.2 0-2.7 1.8-1.5 1.8-2.5 3.8-1 2.1-1.2 3.2-0.2 0.7 0.1 1.2 0.2 0.5 0.8 0.5 1.1 0 2.6-2 1.6-2 2.6-4.1 1-2.1 1.2-3zm1.4 7l0.5 0.4q-1.5 1.9-2.7 2.8-1.2 0.9-2.3 0.9-0.8 0-1.1-0.5-0.4-0.5-0.3-1.3 0.1-0.5 0.7-2-1.6 2.1-2.9 3-1.2 0.8-2.6 0.8-1.3 0-2-1-0.7-1-0.4-2.6 0.4-2.2 2-4.6 1.7-2.4 3.8-3.9 2.2-1.6 3.9-1.6 1.2 0 1.9 0.9l0.9-1.9q1.4-2.9 1.5-3.5 0.1-0.8-1.1-0.8h-0.6l0.2-0.8q3.8-0.3 6.2-0.8l-5.4 11.7q-2.7 6-2.8 6.5 0 0.1 0 0.2 0.1 0.2 0.3 0.2 0.7 0 2.3-2.1zm-2.2-7q0.1-0.6-0.1-1-0.3-0.4-0.8-0.4-1.1 0-2.7 1.8-1.4 1.8-2.5 3.8-1 2.1-1.2 3.2-0.1 0.7 0.1 1.2 0.3 0.5 0.8 0.5 1.2 0 2.7-2 1.5-2 2.5-4.1 1-2.1 1.2-3zm14.7 6.6l0.8 0.5q-1.7 2.2-3.1 3.1-1.5 0.9-3.1 0.9-1.9 0-3-1.2-1-1.2-0.6-3 0.6-3.6 3.8-6.6 3.1-2.9 6.2-2.9 1.4 0 2.1 0.7 0.7 0.7 0.5 1.8-0.1 0.6-0.5 1.3-0.3 0.6-1.2 1.5-0.9 0.8-2.6 1.6-1.7 0.8-4.1 1.2-0.4 0.9-0.5 1.4-0.4 2.4 1.5 2.4 0.9 0 1.7-0.6 0.9-0.5 2.1-2.1zm-4.5-2q2.3-0.8 3.7-2 1.5-1.1 1.9-3.3 0.1-1-0.7-1-2.1 0-4.9 6.3zm3.8 2l0.7 0.5q-1.7 2.2-3.1 3.1-1.5 0.9-3.1 0.9-1.9 0-2.9-1.2-1-1.2-0.7-3 0.6-3.6 3.8-6.6 3.1-2.9 6.3-2.9 1.3 0 2 0.7 0.8 0.7 0.6 1.8-0.2 0.6-0.5 1.3-0.4 0.6-1.3 1.5-0.8 0.8-2.6 1.6-1.7 0.8-4.1 1.2-0.3 0.9-0.4 1.4-0.5 2.4 1.4 2.4 0.9 0 1.7-0.6 0.9-0.5 2.2-2.1zm-4.5-2q2.2-0.8 3.6-2 1.5-1.1 1.9-3.3 0.2-1-0.6-1-2.2 0-4.9 6.3zm-267.7 57.3h0.1l-0.1 0.5h-5.8l0.1-0.5q0.4 0 0.6 0 0.8-0.1 0.9-0.6 0.1-0.6-0.3-2.5h-4.1l-0.4 0.7q-0.8 1.4-0.8 1.7-0.1 0.3 0.2 0.5 0.3 0.2 1.1 0.2l-0.1 0.5h-3.6l0.1-0.5q0.6-0.1 1-0.5 0.4-0.3 1.1-1.6l5.8-9.9h0.5l2.3 9.5q0.4 1.6 0.6 2.1 0.3 0.4 0.8 0.4zm-5.7-8.2l-2.5 4.4h3.5zm5.3 8.2h0.1l-0.1 0.4h-5.9l0.1-0.4q0.4-0.1 0.6-0.1 0.9 0 1-0.6 0.1-0.5-0.4-2.4h-4l-0.4 0.7q-0.8 1.3-0.9 1.7 0 0.3 0.3 0.5 0.3 0.1 1.1 0.2l-0.1 0.4h-3.7l0.1-0.4q0.7-0.1 1-0.5 0.4-0.4 1.2-1.6l5.8-9.9h0.5l2.3 9.5q0.3 1.6 0.6 2 0.3 0.5 0.8 0.5zm-5.8-8.2l-2.4 4.4h3.5zm12.6 8.8l0.2-1.1q-0.8 0.6-1.4 0.9-0.5 0.3-1.2 0.3-1.5 0-2.2-1.2-0.7-1.2-0.3-3.1 0.3-1.9 1.5-3.2 1.3-1.3 2.8-1.3 0.6 0 1 0.3 0.4 0.2 0.9 0.8l0.6-3.3q0.1-0.6-0.1-0.8-0.2-0.1-1.1-0.2l0.1-0.5h3.9l-1.9 10.4q-0.1 0.6 0.1 0.8 0.1 0.2 0.8 0.2l-0.1 0.5-1.2 0.1q-1.5 0.2-2.4 0.4zm-1.4-0.9q0.5 0 1.1-0.5 0.6-0.6 0.6-0.8l0.8-4.4q-0.1-0.5-0.4-0.8-0.3-0.3-0.8-0.3-1.5 0-2.1 3.4-0.6 3.4 0.8 3.4zm0.9 0.9l0.2-1.1q-0.8 0.6-1.3 0.9-0.6 0.3-1.3 0.3-1.4 0-2.1-1.2-0.7-1.2-0.4-3.1 0.4-1.9 1.6-3.2 1.2-1.3 2.7-1.3 0.6 0 1 0.3 0.5 0.2 0.9 0.8l0.6-3.3q0.1-0.6-0.1-0.8-0.2-0.1-1.1-0.2l0.1-0.5h3.9l-1.9 10.4q-0.1 0.6 0.1 0.8 0.2 0.2 0.8 0.2l-0.1 0.5-1.1 0.1q-1.6 0.2-2.5 0.4zm-1.4-0.9q0.6 0 1.1-0.5 0.6-0.6 0.6-0.8l0.8-4.4q-0.1-0.5-0.4-0.8-0.3-0.3-0.8-0.3-1.5 0-2.1 3.4-0.6 3.4 0.8 3.4zm13-7.6h2.7l-0.1 0.4q-0.4 0.1-0.6 0.3-0.3 0.1-0.6 0.7l-4.2 7.2h-0.4l-1.2-5.4q-0.1-0.3-0.3-0.9-0.1-0.6-0.3-1.1-0.1-0.5-0.1-0.5-0.2-0.2-0.6-0.3l0.1-0.4h4.5l-0.1 0.4q-0.3 0.1-0.4 0.1-0.6 0-0.7 0.4 0 0.1 0.1 0.6l0.8 3.6 1.8-3.2q0.3-0.6 0.4-0.9 0-0.3-0.1-0.4-0.2-0.1-0.8-0.2zm-0.5 0h2.8l-0.1 0.5q-0.4 0-0.7 0.2-0.2 0.2-0.6 0.8l-4.1 7.1h-0.5l-1.2-5.3q-0.1-0.4-0.2-1-0.2-0.6-0.3-1.1-0.2-0.4-0.2-0.4-0.1-0.2-0.6-0.3l0.1-0.5h4.5l-0.1 0.5q-0.3 0-0.3 0-0.6 0.1-0.7 0.4 0 0.2 0 0.6l0.8 3.7 1.9-3.3q0.3-0.5 0.3-0.8 0.1-0.3-0.1-0.5-0.2-0.1-0.7-0.1zm10.3 3.9h-4.5q-0.1 0.5-0.1 0.9 0 0.3 0 0.8 0.1 0.5 0.2 0.8 0.2 0.4 0.5 0.6 0.4 0.2 0.9 0.2 0.6 0 1.1-0.2 0.5-0.3 1.2-1l0.4 0.3q-1.2 1.2-2 1.7-0.9 0.5-2 0.5-1.6 0-2.4-1.2-0.8-1.2-0.5-3.1 0.4-2 1.6-3.2 1.3-1.2 3-1.2 3.1 0 2.6 4.1zm-2.1-0.7l0.1-0.3q0-0.5 0.1-0.8 0-0.4 0-0.7 0-0.4-0.1-0.6 0-0.2-0.2-0.3-0.2-0.2-0.5-0.2-0.7 0-1.1 0.7-0.4 0.6-0.7 2.2zm1.6 0.7h-4.5q-0.1 0.5-0.1 0.9 0 0.3 0 0.8 0.1 0.5 0.2 0.8 0.2 0.4 0.5 0.6 0.4 0.2 0.9 0.2 0.6 0 1.1-0.2 0.5-0.3 1.2-1l0.4 0.3q-1.1 1.2-2 1.7-0.9 0.5-1.9 0.5-1.7 0-2.5-1.2-0.8-1.2-0.5-3.1 0.4-2 1.6-3.2 1.3-1.2 3-1.2 3.1 0 2.6 4.1zm-2.1-0.7l0.1-0.3q0.1-0.5 0.1-0.8 0-0.4 0-0.7 0-0.4-0.1-0.6 0-0.2-0.2-0.3-0.2-0.2-0.5-0.2-0.7 0-1.1 0.7-0.4 0.6-0.7 2.2zm9.2-2.2q-0.5 0-1.1 0.4-0.6 0.4-0.7 0.6l-0.9 4.8q0 0.5 0.1 0.8 0.1 0.2 0.6 0.2v0.5h-4.4l0.1-0.5q0.6-0.1 0.8-0.3 0.3-0.2 0.4-0.7l0.9-5.3q0.1-0.6 0-0.8-0.2-0.2-0.7-0.3v-0.4h3.5l-0.3 1.3q1.3-1.5 2.9-1.5 1.1 0 1.6 0.7 0.6 0.7 0.4 1.8l-0.9 4.5q-0.1 0.6 0.1 0.8 0.1 0.2 0.6 0.2l-0.1 0.5h-4.2l0.1-0.5q0.5 0 0.7-0.2 0.2-0.3 0.3-0.8l0.8-4.3q0.3-1.5-0.6-1.5zm-0.5 0q-0.5 0-1.1 0.4-0.6 0.4-0.7 0.6l-0.8 4.8q-0.1 0.5 0 0.8 0.2 0.2 0.7 0.2l-0.1 0.5h-4.4l0.1-0.5q0.7-0.1 0.9-0.3 0.2-0.2 0.3-0.7l0.9-5.3q0.1-0.6 0-0.8-0.1-0.2-0.7-0.3l0.1-0.4h3.4l-0.2 1.3q1.2-1.5 2.8-1.5 1.1 0 1.6 0.7 0.6 0.7 0.4 1.8l-0.8 4.5q-0.1 0.6 0 0.8 0.1 0.2 0.7 0.2l-0.1 0.5h-4.3l0.1-0.5q0.5 0 0.7-0.2 0.3-0.3 0.4-0.8l0.7-4.3q0.3-1.5-0.6-1.5zm9.3-1h1.7l-0.1 0.8h-1.7l-1 5.4q-0.1 0.5 0 0.8 0.2 0.2 0.5 0.2 0.6 0 1.2-0.9l0.4 0.2q-0.7 1.1-1.4 1.5-0.7 0.5-1.6 0.5-0.9 0-1.4-0.5-0.4-0.5-0.3-1.4l1.1-5.8h-0.9l0.1-0.5q1-0.8 1.7-1.5 0.8-0.7 1.9-1.9h0.4zm-0.5 0h1.7l-0.1 0.8h-1.7l-1 5.4q-0.1 0.6 0 0.8 0.1 0.3 0.5 0.3 0.6 0 1.2-1l0.4 0.2q-0.7 1.1-1.4 1.6-0.7 0.5-1.6 0.5-0.9 0-1.4-0.6-0.4-0.5-0.3-1.3l1.1-5.9h-1l0.1-0.5q1.1-0.7 1.8-1.4 0.8-0.7 1.8-1.9h0.5zm7.9 8.5l0.3-1.1q-1 0.6-1.6 0.9-0.6 0.2-1.3 0.2-1.1 0-1.6-0.6-0.5-0.7-0.3-1.9l0.8-4.5q0.1-0.6 0-0.8-0.2-0.2-0.7-0.3v-0.4h3.5l-1.1 6.1q-0.1 0.7 0 1 0.2 0.3 0.8 0.3 0.6 0 1.6-0.8l0.9-5.1q0.1-0.6-0.1-0.8-0.2-0.2-0.8-0.3l0.1-0.4h3.6l-1.2 6.5q-0.1 0.6 0.1 0.8 0.2 0.2 0.8 0.2l-0.1 0.4-1.2 0.2q-1.5 0.1-2.5 0.4zm-0.4 0l0.2-1.1q-0.9 0.6-1.5 0.9-0.6 0.2-1.3 0.2-1.2 0-1.7-0.6-0.5-0.7-0.3-1.9l0.8-4.5q0.1-0.6 0-0.8-0.2-0.2-0.7-0.3l0.1-0.4h3.4l-1.1 6.1q-0.1 0.7 0 1 0.2 0.3 0.8 0.3 0.7 0 1.6-0.8l0.9-5.1q0.1-0.6-0.1-0.8-0.1-0.2-0.8-0.3l0.1-0.4h3.6l-1.2 6.5q-0.1 0.6 0.1 0.8 0.2 0.2 0.8 0.2l-0.1 0.4-1.2 0.2q-1.5 0.1-2.4 0.4zm12.4-6.1q-0.4 0-0.7-0.3-0.3-0.2-0.4-0.5-0.2-0.3-0.3-0.3-0.5 0-0.9 0.5-0.4 0.5-0.5 1.2l-0.6 3.4q-0.2 0.9 0 1.2 0.2 0.2 1 0.3l-0.1 0.4h-4.7v-0.4q0.7-0.1 0.9-0.3 0.2-0.3 0.3-0.8l1-5.3q0.1-0.5-0.1-0.8-0.1-0.2-0.7-0.3l0.1-0.4h3.4l-0.3 1.5q0.8-0.9 1.4-1.3 0.7-0.4 1.3-0.4 0.7 0 1 0.4 0.3 0.4 0.2 1-0.1 0.5-0.5 0.8-0.3 0.4-0.8 0.4zm-0.5 0q-0.4 0-0.7-0.3-0.2-0.2-0.4-0.5-0.1-0.3-0.3-0.3-0.4 0-0.9 0.5-0.4 0.5-0.5 1.2l-0.6 3.4q-0.2 0.9 0 1.2 0.2 0.2 1 0.3v0.4h-4.8l0.1-0.4q0.6-0.1 0.8-0.3 0.2-0.3 0.3-0.8l1-5.3q0.1-0.5-0.1-0.8-0.1-0.2-0.7-0.3l0.1-0.4h3.4l-0.3 1.5q0.8-0.9 1.4-1.3 0.7-0.4 1.4-0.4 0.6 0 0.9 0.4 0.4 0.4 0.3 1-0.1 0.5-0.5 0.8-0.4 0.4-0.9 0.4zm9.3 1.5h-4.5q-0.1 0.5-0.1 0.9 0 0.3 0 0.8 0.1 0.5 0.2 0.9 0.2 0.3 0.5 0.5 0.4 0.3 0.9 0.3 0.6 0 1.1-0.3 0.5-0.3 1.2-1l0.4 0.3q-1.1 1.3-2 1.8-0.9 0.4-2 0.4-1.6 0-2.4-1.1-0.8-1.2-0.5-3.2 0.4-2 1.6-3.2 1.3-1.2 3-1.2 3.1 0 2.6 4.1zm-2.1-0.7l0.1-0.3q0.1-0.5 0.1-0.8 0-0.3 0-0.7 0-0.4-0.1-0.6 0-0.2-0.2-0.3-0.2-0.2-0.5-0.2-0.7 0-1.1 0.7-0.4 0.6-0.7 2.2zm1.6 0.7h-4.5q-0.1 0.5-0.1 0.9 0 0.3 0 0.8 0.1 0.5 0.2 0.9 0.2 0.3 0.5 0.5 0.4 0.3 0.9 0.3 0.6 0 1.1-0.3 0.5-0.3 1.2-1l0.4 0.3q-1.1 1.3-2 1.8-0.8 0.4-1.9 0.4-1.7 0-2.5-1.1-0.8-1.2-0.5-3.2 0.4-2 1.6-3.2 1.3-1.2 3-1.2 3.1 0 2.6 4.1zm-2.1-0.7l0.1-0.3q0.1-0.5 0.1-0.8 0-0.3 0-0.7 0-0.4-0.1-0.6 0-0.2-0.2-0.3-0.2-0.2-0.5-0.2-0.7 0-1.1 0.7-0.3 0.6-0.7 2.2zm7.5-3.4q0.5 0 1.2 0.2 0.6 0.2 0.8 0.2 0.2 0 0.5-0.4h0.3l-0.4 2.6h-0.5q-0.3-2-1.8-2-0.5 0-0.9 0.3-0.4 0.3-0.5 0.7-0.1 0.4 0.2 0.8 0.3 0.3 0.7 0.5 0.4 0.2 0.9 0.5 0.5 0.3 0.9 0.6 0.4 0.2 0.6 0.8 0.3 0.5 0.1 1.2-0.2 1.2-1.1 2-0.9 0.7-2.1 0.7-0.8 0-1.5-0.2-0.7-0.3-0.8-0.3-0.2 0-0.6 0.5h-0.4l0.5-2.9h0.5q0.2 2.3 2.1 2.3 0.6 0 1-0.3 0.4-0.3 0.5-0.8 0.1-0.5-0.3-0.9-0.3-0.3-0.9-0.6-0.6-0.3-1.2-0.6-0.5-0.4-0.9-0.9-0.3-0.6-0.2-1.4 0.2-1.1 1.2-1.9 0.9-0.7 2.1-0.7zm-0.4 0q0.5 0 1.1 0.2 0.6 0.2 0.8 0.2 0.3 0 0.5-0.4h0.4l-0.5 2.6h-0.5q-0.3-2-1.8-2-0.5 0-0.9 0.3-0.4 0.3-0.5 0.7 0 0.4 0.2 0.8 0.3 0.3 0.7 0.5 0.4 0.2 0.9 0.5 0.5 0.3 0.9 0.6 0.5 0.2 0.7 0.8 0.2 0.5 0.1 1.2-0.3 1.2-1.2 2-0.9 0.7-2.1 0.7-0.7 0-1.5-0.2-0.7-0.3-0.8-0.3-0.2 0-0.5 0.5h-0.5l0.6-2.9h0.5q0.1 2.3 2 2.3 0.6 0 1-0.3 0.5-0.3 0.6-0.8 0-0.5-0.3-0.9-0.4-0.3-1-0.6-0.6-0.3-1.1-0.6-0.6-0.4-0.9-0.9-0.4-0.6-0.2-1.4 0.2-1.1 1.1-1.9 0.9-0.7 2.2-0.7zm19.9 1.4v-0.4h3.8l-0.1 0.4q-0.6 0-0.9 0.2-0.2 0.1-0.6 0.5l-0.6 0.8q-0.7 0.9-2.1 2.4 0.6 1 0.9 1.3 0.4 0.4 0.9 0.4 0.6 0 1.2-0.7l0.3 0.2-0.4 0.5q0 0-0.1 0.1-0.1 0.2-0.2 0.3-0.1 0.1-0.2 0.2-0.2 0.2-0.3 0.3-0.1 0.1-0.3 0.3-0.2 0.1-0.4 0.2-0.2 0.1-0.4 0.2-0.2 0.1-0.5 0.1-0.3 0.1-0.5 0.1-0.8 0-1.3-0.4-0.5-0.3-1.1-1.2-2.4 1.6-4.3 1.6-1.5 0-2.3-0.9-0.8-0.9-0.6-2.3 0.3-1.3 1.2-2.2 1-1 3.1-1.9-0.4-0.9-0.5-1.5-0.1-0.5 0-1.1 0.3-1.3 1.4-2.1 1-0.7 2.7-0.7 1.3 0 2 0.6 0.8 0.6 0.6 1.6-0.2 0.8-0.9 1.4-0.8 0.7-2.3 1.2l2 3.8q0.9-1 1.3-1.5 0.4-0.5 0.5-1.1 0.1-0.4-0.1-0.5-0.2-0.1-0.9-0.2zm-7.2 2.3q-0.2 1.2 0.4 2.5 0.6 1.2 1.8 1.2 0.6 0 1.7-0.7-0.5-0.9-1.7-3.4l-0.6-1.2q-0.8 0.4-1.2 0.8-0.3 0.3-0.4 0.8zm4.1-3.3q0.7-0.3 1.1-0.6 0.3-0.3 0.4-0.9 0.2-0.9-0.2-1.6-0.3-0.6-1-0.6-0.4 0-0.7 0.2-0.3 0.3-0.4 0.8-0.2 1 0.8 2.7zm2.6 1l0.1-0.4h3.7l-0.1 0.4q-0.6 0-0.9 0.2-0.2 0.1-0.5 0.5l-0.7 0.8q-0.7 0.9-2.1 2.4 0.6 1 1 1.3 0.3 0.4 0.9 0.4 0.6 0 1.1-0.7l0.3 0.2-0.3 0.5q-0.1 0-0.2 0.1-0.1 0.2-0.2 0.3 0 0.1-0.2 0.2-0.1 0.2-0.3 0.3-0.1 0.1-0.3 0.3-0.2 0.1-0.4 0.2-0.2 0.1-0.4 0.2-0.2 0.1-0.5 0.1-0.2 0.1-0.5 0.1-0.7 0-1.2-0.4-0.6-0.3-1.2-1.2-2.4 1.6-4.3 1.6-1.5 0-2.3-0.9-0.8-0.9-0.5-2.3 0.2-1.3 1.2-2.2 0.9-1 3-1.9-0.3-0.9-0.4-1.5-0.1-0.5 0-1.1 0.2-1.3 1.3-2.1 1.1-0.7 2.7-0.7 1.4 0 2.1 0.6 0.7 0.6 0.5 1.6-0.2 0.8-0.9 1.4-0.8 0.7-2.3 1.2l2 3.8q1-1 1.4-1.5 0.3-0.5 0.4-1.1 0.1-0.4-0.1-0.5-0.1-0.1-0.9-0.2zm-7.2 2.3q-0.2 1.2 0.4 2.5 0.7 1.2 1.8 1.2 0.7 0 1.8-0.7-0.5-0.9-1.7-3.4l-0.7-1.2q-0.8 0.4-1.2 0.8-0.3 0.3-0.4 0.8zm4.1-3.3q0.8-0.3 1.1-0.6 0.4-0.3 0.5-0.9 0.1-0.9-0.3-1.6-0.3-0.6-1-0.6-0.4 0-0.7 0.2-0.3 0.3-0.4 0.8-0.2 1 0.8 2.7zm15.1 7.5q0 0.3-0.4 0.7-0.2 0.3-0.3 0.5 0 0.2 0.2 0.4 0.2 0.1 0.5 0.1 0.6 0 1-0.3 0.3-0.4 0.5-1.2l1.8-10q0.1-0.8-0.2-1-0.3-0.3-1.4-0.3l0.1-0.5h6.3l-0.1 0.5q-1 0-1.3 0.4-0.4 0.3-0.6 1.2l-1.4 7.9q-0.3 1.9-1.5 2.9-1.2 1-3.1 1-1.3 0-2.1-0.6-0.7-0.7-0.5-1.8 0.1-0.5 0.5-0.9 0.5-0.3 1-0.3 0.5 0 0.8 0.4 0.3 0.4 0.2 0.9zm-0.5 0q0 0.3-0.3 0.7-0.3 0.3-0.3 0.5-0.1 0.2 0.1 0.4 0.2 0.1 0.6 0.1 0.6 0 0.9-0.3 0.3-0.4 0.5-1.2l1.8-10q0.1-0.8-0.2-1-0.3-0.3-1.4-0.3l0.1-0.5h6.3v0.5q-1.1 0-1.4 0.4-0.4 0.3-0.5 1.2l-1.5 7.9q-0.3 1.9-1.5 2.9-1.1 1-3 1-1.4 0-2.1-0.6-0.8-0.7-0.6-1.8 0.1-0.5 0.5-0.9 0.5-0.3 1-0.3 0.5 0 0.8 0.4 0.3 0.4 0.2 0.9zm13.3-7.9q1.8 0 2.7 1.2 0.9 1.3 0.6 3.2-0.4 1.8-1.7 3.1-1.4 1.2-3.2 1.2-1.7 0-2.7-1.2-0.9-1.3-0.5-3.2 0.3-1.8 1.7-3.1 1.4-1.2 3.1-1.2zm-0.1 0.5q-0.8 0-1.3 0.9-0.4 0.9-0.8 3.2-0.4 2-0.2 2.8 0.1 0.8 0.9 0.8 0.8 0 1.3-0.8 0.4-0.8 0.8-2.9 0.4-2.2 0.3-3.1-0.2-0.9-1-0.9zm-0.4-0.5q1.8 0 2.7 1.2 0.9 1.3 0.6 3.2-0.3 1.8-1.7 3.1-1.4 1.2-3.1 1.2-1.8 0-2.7-1.2-1-1.3-0.6-3.2 0.3-1.8 1.7-3.1 1.4-1.2 3.1-1.2zm0 0.5q-0.9 0-1.3 0.9-0.5 0.9-0.9 3.2-0.4 2-0.2 2.8 0.2 0.8 1 0.8 0.7 0 1.2-0.8 0.5-0.8 0.8-2.9 0.4-2.2 0.3-3.1-0.2-0.9-0.9-0.9zm10 8.2l0.2-1.1q-0.9 0.6-1.5 0.9-0.6 0.2-1.3 0.2-1.1 0-1.6-0.6-0.5-0.7-0.3-1.9l0.8-4.5q0.1-0.6-0.1-0.8-0.1-0.2-0.7-0.3l0.1-0.4h3.5l-1.1 6.1q-0.2 0.7 0 1 0.2 0.3 0.7 0.3 0.7 0 1.7-0.8l0.9-5.1q0.1-0.6-0.1-0.8-0.2-0.2-0.8-0.3v-0.4h3.7l-1.2 6.5q-0.1 0.6 0.1 0.8 0.2 0.2 0.7 0.2v0.4l-1.2 0.2q-1.5 0.1-2.5 0.4zm-0.5 0l0.3-1.1q-1 0.6-1.6 0.9-0.6 0.2-1.3 0.2-1.1 0-1.6-0.6-0.5-0.7-0.3-1.9l0.8-4.5q0.1-0.6 0-0.8-0.2-0.2-0.7-0.3v-0.4h3.5l-1.1 6.1q-0.1 0.7 0 1 0.2 0.3 0.8 0.3 0.6 0 1.6-0.8l0.9-5.1q0.1-0.6-0.1-0.8-0.2-0.2-0.8-0.3l0.1-0.4h3.6l-1.2 6.5q-0.1 0.6 0.1 0.8 0.2 0.2 0.8 0.2l-0.1 0.4-1.2 0.2q-1.5 0.1-2.5 0.4zm12.5-6.1q-0.5 0-0.7-0.3-0.3-0.2-0.4-0.5-0.2-0.3-0.3-0.3-0.5 0-0.9 0.5-0.4 0.5-0.5 1.2l-0.7 3.4q-0.1 0.9 0.1 1.2 0.2 0.2 1 0.3l-0.1 0.4h-4.8l0.1-0.4q0.6-0.1 0.8-0.3 0.3-0.3 0.4-0.8l0.9-5.3q0.1-0.5 0-0.8-0.2-0.2-0.7-0.3l0.1-0.4h3.3l-0.2 1.5q0.8-0.9 1.4-1.3 0.6-0.4 1.3-0.4 0.6 0 1 0.4 0.3 0.4 0.2 1-0.1 0.5-0.5 0.8-0.3 0.4-0.8 0.4zm-0.5 0q-0.4 0-0.7-0.3-0.3-0.2-0.4-0.5-0.2-0.3-0.3-0.3-0.5 0-0.9 0.5-0.4 0.5-0.5 1.2l-0.6 3.4q-0.2 0.9 0 1.2 0.2 0.2 1 0.3l-0.1 0.4h-4.7v-0.4q0.7-0.1 0.9-0.3 0.2-0.3 0.3-0.8l1-5.3q0.1-0.5-0.1-0.8-0.1-0.2-0.7-0.3l0.1-0.4h3.4l-0.3 1.5q0.8-0.9 1.4-1.3 0.7-0.4 1.3-0.4 0.7 0 1 0.4 0.3 0.4 0.2 1-0.1 0.5-0.4 0.8-0.4 0.4-0.9 0.4zm7.7-1.4q-0.5 0-1.1 0.4-0.6 0.4-0.6 0.6l-0.9 4.8q-0.1 0.5 0.1 0.8 0.1 0.2 0.6 0.3v0.4h-4.4l0.1-0.4q0.6-0.2 0.8-0.4 0.2-0.2 0.3-0.7l1-5.3q0.1-0.6 0-0.8-0.2-0.2-0.8-0.3l0.1-0.4h3.5l-0.3 1.3q1.3-1.5 2.9-1.5 1.1 0 1.6 0.7 0.6 0.7 0.3 1.8l-0.8 4.5q-0.1 0.6 0.1 0.8 0.1 0.2 0.6 0.3l-0.1 0.4h-4.2l0.1-0.4q0.4-0.1 0.7-0.3 0.2-0.3 0.3-0.8l0.8-4.3q0.3-1.5-0.7-1.5zm-0.4 0q-0.5 0-1.1 0.4-0.6 0.4-0.7 0.6l-0.8 4.8q-0.1 0.5 0 0.8 0.2 0.2 0.7 0.3l-0.1 0.4h-4.4l0.1-0.4q0.7-0.2 0.8-0.4 0.3-0.2 0.4-0.7l0.9-5.3q0.1-0.6 0-0.8-0.2-0.2-0.7-0.3v-0.4h3.5l-0.3 1.3q1.3-1.5 2.9-1.5 1.1 0 1.6 0.7 0.6 0.7 0.4 1.8l-0.9 4.5q-0.1 0.6 0.1 0.8 0.1 0.2 0.6 0.3v0.4h-4.3l0.1-0.4q0.5-0.1 0.7-0.3 0.3-0.3 0.3-0.8l0.8-4.3q0.3-1.5-0.6-1.5zm12.4 2.9h-4.5q-0.1 0.5-0.1 0.9 0 0.3 0 0.8 0.1 0.5 0.3 0.9 0.1 0.3 0.5 0.5 0.3 0.3 0.8 0.3 0.6 0 1.1-0.3 0.6-0.3 1.2-1l0.4 0.3q-1.1 1.3-2 1.8-0.8 0.4-1.9 0.4-1.7 0-2.5-1.1-0.8-1.2-0.4-3.2 0.3-2 1.6-3.2 1.2-1.2 2.9-1.2 3.1 0 2.6 4.1zm-2-0.7v-0.3q0.1-0.5 0.1-0.8 0.1-0.3 0.1-0.7 0-0.4-0.1-0.6-0.1-0.2-0.3-0.3-0.2-0.2-0.5-0.2-0.6 0-1 0.7-0.4 0.6-0.8 2.2zm1.7 0.7h-4.6q0 0.5-0.1 0.9 0 0.3 0.1 0.8 0 0.5 0.2 0.9 0.1 0.3 0.5 0.5 0.3 0.3 0.9 0.3 0.5 0 1-0.3 0.6-0.3 1.2-1l0.4 0.3q-1.1 1.3-2 1.8-0.8 0.4-1.9 0.4-1.7 0-2.5-1.1-0.8-1.2-0.4-3.2 0.3-2 1.6-3.2 1.2-1.2 2.9-1.2 3.1 0 2.7 4.1zm-2.1-0.7v-0.3q0.1-0.5 0.1-0.8 0.1-0.3 0.1-0.7 0-0.4-0.1-0.6-0.1-0.2-0.3-0.3-0.2-0.2-0.5-0.2-0.6 0-1 0.7-0.4 0.6-0.7 2.2zm4.1 7.1q0 0.1-0.1 0.2 0 0.1 0 0.2-0.1 0.1 0 0.2 0.1 0.1 0.2 0.1 0.3 0 0.7-0.4 0.4-0.5 0.8-1.1l0.5-1-1.2-5.3q-0.2-0.6-0.4-1.5-0.3-1-0.3-1-0.2-0.2-0.6-0.3l0.1-0.4h4.5l-0.1 0.4h-0.3q-0.7 0.1-0.8 0.5 0 0.1 0.2 1.1l0.7 3.3 1.8-3.5q0.3-0.5 0.4-0.8 0-0.3-0.1-0.4-0.2-0.1-0.8-0.2l0.1-0.4h2.7l-0.1 0.4q-0.4 0.1-0.6 0.3-0.3 0.2-0.6 0.7l-4 7.2q-1 1.8-1.4 2.3-0.9 1.1-2.1 1.1-0.8 0-1.2-0.4-0.4-0.4-0.3-1 0.1-0.5 0.5-0.9 0.4-0.3 0.9-0.3 0.5 0 0.7 0.3 0.2 0.2 0.2 0.6zm-0.5 0q0 0.1-0.1 0.2 0 0.1 0 0.2 0 0.1 0 0.2 0.1 0.1 0.2 0.1 0.3 0 0.7-0.4 0.4-0.5 0.8-1.1l0.5-1-1.2-5.3q-0.1-0.6-0.4-1.5-0.3-1-0.3-1-0.1-0.2-0.6-0.3l0.1-0.4h4.5l-0.1 0.4h-0.3q-0.7 0.1-0.7 0.5-0.1 0.1 0.1 1.1l0.7 3.3 1.9-3.5q0.3-0.5 0.3-0.8 0.1-0.3-0.1-0.4-0.2-0.1-0.8-0.2l0.1-0.4h2.7v0.4q-0.5 0.1-0.7 0.3-0.3 0.2-0.6 0.7l-4 7.2q-1 1.8-1.4 2.3-0.9 1.1-2.1 1.1-0.7 0-1.1-0.4-0.5-0.4-0.3-1 0-0.5 0.4-0.9 0.4-0.3 0.9-0.3 0.5 0 0.7 0.3 0.3 0.2 0.2 0.6zm12.5-10.5q0.5 0 1.1 0.2 0.7 0.2 0.8 0.2 0.3 0 0.5-0.4h0.4l-0.5 2.6h-0.4q-0.3-2-1.8-2-0.5 0-0.9 0.3-0.4 0.3-0.5 0.7-0.1 0.4 0.1 0.8 0.3 0.3 0.7 0.5 0.5 0.2 1 0.5 0.5 0.3 0.9 0.6 0.4 0.2 0.6 0.8 0.2 0.5 0.1 1.2-0.2 1.2-1.1 2-1 0.7-2.2 0.7-0.7 0-1.4-0.2-0.7-0.3-0.8-0.3-0.2 0-0.6 0.5h-0.5l0.6-2.9h0.5q0.1 2.3 2 2.3 0.6 0 1.1-0.3 0.4-0.3 0.5-0.8 0.1-0.5-0.3-0.9-0.4-0.3-1-0.6-0.5-0.3-1.1-0.6-0.6-0.4-0.9-0.9-0.3-0.6-0.2-1.4 0.2-1.1 1.1-1.9 1-0.7 2.2-0.7zm-0.5 0q0.5 0 1.2 0.2 0.6 0.2 0.7 0.2 0.3 0 0.5-0.4h0.4l-0.4 2.6h-0.5q-0.3-2-1.8-2-0.5 0-0.9 0.3-0.4 0.3-0.5 0.7-0.1 0.4 0.2 0.8 0.2 0.3 0.7 0.5 0.4 0.2 0.9 0.5 0.5 0.3 0.9 0.6 0.4 0.2 0.6 0.8 0.2 0.5 0.1 1.2-0.2 1.2-1.1 2-0.9 0.7-2.2 0.7-0.7 0-1.4-0.2-0.7-0.3-0.8-0.3-0.2 0-0.6 0.5h-0.4l0.5-2.9h0.5q0.2 2.3 2.1 2.3 0.6 0 1-0.3 0.4-0.3 0.5-0.8 0.1-0.5-0.3-0.9-0.3-0.3-0.9-0.6-0.6-0.3-1.2-0.6-0.5-0.4-0.9-0.9-0.3-0.6-0.2-1.4 0.2-1.1 1.2-1.9 0.9-0.7 2.1-0.7zm15-2q0.1-0.3 0.3-0.6 0.3-0.4 0.3-0.4 0.1-0.4-0.4-0.4-0.5 0-0.8 0.3-0.3 0.4-0.4 1.1l-0.4 2.2h1.6l-0.2 0.8h-1.5l-1.1 5.6q-0.1 0.9 0.1 1.2 0.2 0.2 1.1 0.3v0.4h-5v-0.4q0.7-0.1 0.9-0.3 0.3-0.2 0.4-0.8l1.1-6h-1.1l0.2-0.8h1q0.1-0.8 0.3-1.4 0.2-0.5 0.5-1.1 0.3-0.5 0.7-0.9 0.4-0.3 1-0.5 0.6-0.2 1.4-0.2 1.1 0 1.8 0.5 0.6 0.5 0.5 1.3-0.1 0.5-0.5 0.8-0.4 0.3-0.9 0.3-0.4 0-0.7-0.3-0.2-0.3-0.2-0.7zm-0.4 0q0-0.3 0.3-0.6 0.2-0.4 0.2-0.4 0.1-0.4-0.4-0.4-0.5 0-0.8 0.3-0.2 0.4-0.4 1.1l-0.4 2.2h1.6l-0.1 0.8h-1.6l-1 5.6q-0.2 0.9 0 1.2 0.2 0.2 1.2 0.3l-0.1 0.4h-5l0.1-0.4q0.6-0.1 0.8-0.3 0.3-0.2 0.4-0.8l1.1-6h-1l0.1-0.8h1q0.2-0.8 0.3-1.4 0.2-0.5 0.5-1.1 0.3-0.5 0.7-0.9 0.4-0.3 1-0.5 0.6-0.2 1.4-0.2 1.2 0 1.8 0.5 0.6 0.5 0.5 1.3-0.1 0.5-0.5 0.8-0.3 0.3-0.8 0.3-0.5 0-0.8-0.3-0.2-0.3-0.1-0.7zm7.7 4.6q-0.5 0-0.7-0.3-0.3-0.2-0.4-0.5-0.2-0.3-0.3-0.3-0.5 0-0.9 0.5-0.4 0.5-0.5 1.2l-0.7 3.4q-0.1 0.9 0.1 1.2 0.2 0.2 1 0.3l-0.1 0.4h-4.8l0.1-0.4q0.6-0.1 0.9-0.3 0.2-0.3 0.3-0.8l0.9-5.3q0.1-0.5 0-0.8-0.2-0.2-0.7-0.3l0.1-0.4h3.3l-0.2 1.5q0.8-0.9 1.4-1.3 0.6-0.4 1.3-0.4 0.6 0 1 0.4 0.3 0.4 0.2 1-0.1 0.5-0.5 0.8-0.3 0.4-0.8 0.4zm-0.5 0q-0.4 0-0.7-0.3-0.3-0.2-0.4-0.5-0.2-0.3-0.3-0.3-0.5 0-0.9 0.5-0.4 0.5-0.5 1.2l-0.6 3.4q-0.2 0.9 0 1.2 0.2 0.2 1 0.3l-0.1 0.4h-4.7l0.1-0.4q0.6-0.1 0.8-0.3 0.2-0.3 0.3-0.8l1-5.3q0.1-0.5-0.1-0.8-0.1-0.2-0.7-0.3l0.1-0.4h3.4l-0.3 1.5q0.8-0.9 1.4-1.3 0.7-0.4 1.3-0.4 0.7 0 1 0.4 0.3 0.4 0.2 1-0.1 0.5-0.4 0.8-0.4 0.4-0.9 0.4zm7-2.6q1.7 0 2.7 1.2 0.9 1.3 0.5 3.2-0.3 1.8-1.7 3.1-1.4 1.2-3.1 1.2-1.8 0-2.7-1.2-0.9-1.3-0.6-3.2 0.4-1.8 1.8-3.1 1.4-1.2 3.1-1.2zm-0.1 0.5q-0.8 0-1.3 0.9-0.5 0.9-0.9 3.2-0.3 2-0.2 2.8 0.2 0.8 1 0.8 0.8 0 1.2-0.8 0.5-0.8 0.9-2.9 0.4-2.2 0.2-3.1-0.1-0.9-0.9-0.9zm-0.4-0.5q1.8 0 2.7 1.2 0.9 1.3 0.6 3.2-0.4 1.8-1.8 3.1-1.3 1.2-3.1 1.2-1.8 0-2.7-1.2-0.9-1.3-0.6-3.2 0.4-1.8 1.8-3.1 1.4-1.2 3.1-1.2zm-0.1 0.5q-0.8 0-1.3 0.9-0.4 0.9-0.9 3.2-0.3 2-0.2 2.8 0.2 0.8 1 0.8 0.8 0 1.3-0.8 0.4-0.8 0.8-2.9 0.4-2.2 0.2-3.1-0.1-0.9-0.9-0.9zm10.5 0.7q-0.5 0-1.1 0.4-0.6 0.4-0.6 0.6l-0.9 4.8q-0.1 0.6 0 0.8 0.2 0.2 0.6 0.3l-0.1 0.4h-4.2v-0.4q0.7-0.1 0.9-0.3 0.2-0.3 0.3-0.8l1-5.3q0.1-0.6-0.1-0.8-0.1-0.2-0.7-0.3l0.1-0.4h3.4l-0.3 1.3q1.3-1.5 3-1.5 0.8 0 1.3 0.3 0.4 0.4 0.7 1.2 0.8-0.8 1.5-1.2 0.6-0.3 1.4-0.3 1.1 0 1.6 0.7 0.6 0.7 0.4 1.8l-0.8 4.5q-0.1 0.6 0 0.8 0.2 0.2 0.7 0.3l-0.1 0.4h-4.3l0.1-0.4q0.5-0.1 0.7-0.3 0.3-0.2 0.4-0.8l0.7-4.3q0.2-0.8 0-1.2-0.1-0.3-0.6-0.3-0.5 0-1.1 0.4-0.6 0.4-0.7 0.6l-0.8 4.8q-0.1 0.6 0 0.8 0.2 0.2 0.6 0.3v0.4h-4.3l0.1-0.4q0.5-0.1 0.7-0.3 0.3-0.2 0.4-0.8l0.8-4.3q0.1-0.8-0.1-1.2-0.1-0.3-0.6-0.3zm-0.5 0q-0.5 0-1.1 0.4-0.6 0.4-0.6 0.6l-0.9 4.8q-0.1 0.6 0.1 0.8 0.1 0.2 0.6 0.3l-0.1 0.4h-4.3l0.1-0.4q0.6-0.1 0.8-0.3 0.2-0.3 0.3-0.8l1-5.3q0.1-0.6-0.1-0.8-0.1-0.2-0.7-0.3l0.1-0.4h3.4l-0.2 1.3q1.2-1.5 2.9-1.5 0.8 0 1.3 0.3 0.4 0.4 0.7 1.2 0.9-0.8 1.5-1.2 0.7-0.3 1.4-0.3 1.2 0 1.7 0.7 0.5 0.7 0.3 1.8l-0.8 4.5q-0.1 0.6 0 0.8 0.2 0.2 0.7 0.3l-0.1 0.4h-4.3l0.1-0.4q0.5-0.1 0.8-0.3 0.2-0.2 0.3-0.8l0.8-4.3q0.1-0.8-0.1-1.2-0.1-0.3-0.6-0.3-0.5 0-1.1 0.4-0.6 0.4-0.6 0.6l-0.9 4.8q-0.1 0.6 0 0.8 0.2 0.2 0.7 0.3l-0.1 0.4h-4.2v-0.4q0.6-0.1 0.8-0.3 0.2-0.2 0.3-0.8l0.8-4.3q0.1-0.8 0-1.2-0.2-0.3-0.7-0.3zm21.5-5.1q0.8 0 1.7 0.3 0.9 0.3 1 0.3 0.3 0 0.4-0.2 0.2-0.1 0.3-0.5h0.5l-0.7 3.9h-0.5q-0.2-1.7-1-2.5-0.7-0.8-1.8-0.8-1 0-1.6 0.5-0.6 0.5-0.7 1.3-0.2 0.7 0.1 1.1 0.4 0.4 1.3 0.9l2.4 1.4q0.8 0.4 1.2 1.3 0.4 0.9 0.2 1.9-0.3 1.7-1.7 2.8-1.4 1-3.4 1-1 0-1.9-0.3-0.9-0.3-1.1-0.3-0.4 0-0.6 0.6h-0.6l0.8-4.4h0.6q0.2 3.8 2.9 3.8 1.1 0 1.8-0.5 0.7-0.6 0.9-1.5 0.1-0.7-0.2-1.2-0.4-0.4-1.4-1l-1.1-0.5q-1.5-0.8-2.1-1.7-0.6-0.9-0.3-2.1 0.3-1.7 1.5-2.7 1.2-0.9 3.1-0.9zm-0.5 0q0.9 0 1.7 0.3 0.9 0.3 1 0.3 0.3 0 0.4-0.2 0.2-0.1 0.3-0.5h0.6l-0.7 3.9h-0.5q-0.3-1.7-1-2.5-0.8-0.8-1.9-0.8-0.9 0-1.6 0.5-0.6 0.5-0.7 1.3-0.1 0.7 0.2 1.1 0.3 0.4 1.3 0.9l2.4 1.4q0.8 0.4 1.1 1.3 0.4 0.9 0.3 1.9-0.4 1.7-1.8 2.8-1.4 1-3.4 1-1 0-1.9-0.3-0.9-0.3-1.1-0.3-0.4 0-0.6 0.6h-0.5l0.8-4.4h0.5q0.2 3.8 3 3.8 1 0 1.7-0.5 0.7-0.6 0.9-1.5 0.1-0.7-0.2-1.2-0.3-0.4-1.4-1l-1.1-0.5q-1.5-0.8-2.1-1.7-0.5-0.9-0.3-2.1 0.3-1.7 1.5-2.7 1.3-0.9 3.1-0.9zm11.8 10.4l0.2 0.4q-0.9 1-1.8 1.4-0.9 0.4-1.9 0.4-1.7 0-2.6-1.2-0.9-1.2-0.5-3 0.3-2 1.8-3.2 1.4-1.3 3.2-1.3 1.2 0 1.9 0.6 0.7 0.5 0.6 1.4-0.1 0.5-0.5 0.8-0.4 0.3-1 0.3-0.9 0-0.7-1.3 0.1-0.8 0-0.9-0.1-0.4-0.6-0.4-0.7 0-1.2 0.8-0.6 0.8-0.8 2.2-0.3 1.9 0.1 3 0.5 1 1.7 1 0.6 0 1-0.2 0.5-0.2 1.1-0.8zm-0.5 0l0.3 0.4q-1 1-1.9 1.4-0.9 0.4-1.9 0.4-1.7 0-2.6-1.2-0.8-1.2-0.5-3 0.4-2 1.8-3.2 1.4-1.3 3.3-1.3 1.2 0 1.8 0.6 0.8 0.5 0.6 1.4-0.1 0.5-0.5 0.8-0.4 0.3-0.9 0.3-1 0-0.8-1.3 0.1-0.8 0.1-0.9-0.1-0.4-0.6-0.4-0.7 0-1.3 0.8-0.5 0.8-0.8 2.2-0.3 1.9 0.2 3 0.5 1 1.6 1 0.6 0 1-0.2 0.5-0.2 1.1-0.8zm4.8-5.3q0 0.1 0.2 0.5 0.2 0.4 0.1 0.7-0.1 0.5-0.5 0.7-0.3 0.3-0.9 0.3-0.5 0-0.8-0.3-0.2-0.3-0.1-0.9 0.1-1 1.2-1.6 1-0.6 2.6-0.6 1.6 0 2.4 0.6 0.9 0.7 0.7 1.8l-0.9 4.7q0 0.5 0.3 0.5 0.2 0 0.2-0.1l0.3-0.2 0.2 0.4q-1.2 1-2.2 1-0.7 0-1-0.2-0.3-0.3-0.3-1-1.6 1.2-3.1 1.2-0.8 0-1.3-0.5-0.5-0.5-0.3-1.4 0.1-0.5 0.5-1 0.4-0.5 0.8-0.8 0.5-0.3 1.2-0.6 0.8-0.3 1.3-0.5 0.5-0.1 1.3-0.4 0.2 0 0.3 0l0.3-1.4q0.1-0.8-0.2-1.2-0.3-0.3-1-0.3-0.5 0-0.9 0.2-0.3 0.1-0.4 0.4zm1.6 5.5l0.5-2.6q-2.3 0.6-2.6 2.2-0.1 0.5 0.1 0.8 0.2 0.4 0.6 0.4 0.6 0 1.4-0.8zm-2.1-5.5q0 0.1 0.2 0.5 0.2 0.4 0.2 0.7-0.1 0.5-0.5 0.7-0.4 0.3-1 0.3-0.5 0-0.8-0.3-0.2-0.3-0.1-0.9 0.2-1 1.2-1.6 1.1-0.6 2.6-0.6 1.6 0 2.5 0.6 0.8 0.7 0.6 1.8l-0.8 4.7q-0.1 0.5 0.3 0.5 0.1 0 0.2-0.1l0.2-0.2 0.2 0.4q-1.2 1-2.2 1-0.7 0-1-0.2-0.2-0.3-0.3-1-1.6 1.2-3 1.2-0.9 0-1.4-0.5-0.4-0.5-0.3-1.4 0.1-0.5 0.5-1 0.4-0.5 0.8-0.8 0.5-0.3 1.2-0.6 0.8-0.3 1.3-0.5 0.5-0.1 1.3-0.4 0.3 0 0.4 0l0.2-1.4q0.2-0.8-0.1-1.2-0.3-0.3-1.1-0.3-0.5 0-0.9 0.2-0.3 0.1-0.4 0.4zm1.7 5.5l0.4-2.6q-2.3 0.6-2.6 2.2-0.1 0.5 0.1 0.8 0.2 0.4 0.6 0.4 0.7 0 1.5-0.8zm11-5.5q-0.5 0-1.1 0.4-0.6 0.4-0.7 0.6l-0.8 4.8q-0.1 0.5 0 0.8 0.2 0.2 0.7 0.3l-0.1 0.4h-4.4l0.1-0.4q0.7-0.2 0.9-0.4 0.2-0.2 0.3-0.7l0.9-5.3q0.1-0.6 0-0.8-0.1-0.2-0.7-0.3l0.1-0.4h3.4l-0.3 1.3q1.3-1.5 2.9-1.5 1.1 0 1.6 0.7 0.6 0.7 0.4 1.8l-0.9 4.5q-0.1 0.6 0.1 0.8 0.1 0.2 0.6 0.3v0.4h-4.3l0.1-0.4q0.5-0.1 0.7-0.3 0.3-0.3 0.3-0.8l0.8-4.3q0.3-1.5-0.6-1.5zm-0.5 0q-0.5 0-1.1 0.4-0.6 0.4-0.6 0.6l-0.9 4.8q-0.1 0.5 0 0.8 0.2 0.2 0.7 0.3l-0.1 0.4h-4.3v-0.4q0.7-0.2 0.9-0.4 0.2-0.2 0.3-0.7l1-5.3q0.1-0.6-0.1-0.8-0.1-0.2-0.7-0.3l0.1-0.4h3.4l-0.2 1.3q1.2-1.5 2.8-1.5 1.1 0 1.7 0.7 0.5 0.7 0.3 1.8l-0.8 4.5q-0.1 0.6 0 0.8 0.2 0.2 0.7 0.3l-0.1 0.4h-4.2v-0.4q0.5-0.1 0.7-0.3 0.3-0.3 0.4-0.8l0.8-4.3q0.2-1.5-0.7-1.5zm10.2 7.5l0.2-1.1q-0.8 0.6-1.4 0.9-0.5 0.2-1.2 0.2-1.5 0-2.2-1.1-0.7-1.2-0.3-3.1 0.3-1.9 1.5-3.2 1.3-1.3 2.8-1.3 0.6 0 1 0.2 0.4 0.3 0.9 0.9l0.6-3.3q0.1-0.6-0.1-0.8-0.2-0.2-1.1-0.2l0.1-0.5h3.9l-1.9 10.4q-0.1 0.6 0 0.8 0.2 0.2 0.8 0.2v0.4l-1.2 0.2q-1.5 0.2-2.4 0.4zm-1.4-1q0.5 0 1.1-0.5 0.6-0.5 0.6-0.7l0.8-4.4q-0.1-0.5-0.4-0.8-0.3-0.3-0.8-0.3-1.5 0-2.1 3.4-0.7 3.3 0.8 3.3zm0.9 1l0.2-1.1q-0.8 0.6-1.3 0.9-0.6 0.2-1.3 0.2-1.4 0-2.1-1.1-0.7-1.2-0.4-3.1 0.4-1.9 1.6-3.2 1.2-1.3 2.7-1.3 0.6 0 1 0.2 0.5 0.3 0.9 0.9l0.6-3.3q0.1-0.6-0.1-0.8-0.2-0.2-1.1-0.2l0.1-0.5h3.9l-1.9 10.4q-0.1 0.6 0.1 0.8 0.2 0.2 0.8 0.2l-0.1 0.4-1.1 0.2q-1.6 0.2-2.5 0.4zm-1.4-1q0.6 0 1.1-0.5 0.6-0.5 0.6-0.7l0.8-4.4q-0.1-0.5-0.4-0.8-0.3-0.3-0.8-0.3-1.5 0-2.1 3.4-0.6 3.3 0.8 3.3zm8.2-7.5h3.4l-1.2 6.8q-0.1 0.5 0 0.8 0.2 0.2 0.7 0.3l-0.1 0.4h-4.3v-0.4q0.7-0.2 0.9-0.4 0.2-0.2 0.3-0.7l0.9-5.3q0.1-0.6 0-0.7-0.1-0.2-0.7-0.4zm1.9-3.7q0.5-0.4 1-0.4 0.6 0 0.9 0.4 0.4 0.4 0.3 1-0.1 0.6-0.6 1-0.5 0.4-1.1 0.4-0.6 0-0.9-0.4-0.3-0.4-0.2-1 0.1-0.6 0.6-1zm-2.4 3.7h3.5l-1.3 6.9q-0.1 0.5 0.1 0.7 0.1 0.2 0.6 0.3l-0.1 0.4h-4.3l0.1-0.4q0.6-0.1 0.8-0.3 0.2-0.2 0.3-0.8l1-5.3q0.1-0.5-0.1-0.7-0.1-0.2-0.7-0.3zm1.9-3.8q0.5-0.4 1.1-0.4 0.6 0 0.9 0.4 0.3 0.4 0.2 1-0.1 0.6-0.6 1-0.5 0.4-1 0.4-0.6 0-1-0.4-0.3-0.4-0.2-1 0.1-0.6 0.6-1zm9 4.8q-0.5 0-1.1 0.4-0.6 0.4-0.6 0.6l-0.9 4.8q-0.1 0.5 0 0.7 0.2 0.3 0.7 0.3l-0.1 0.5h-4.3l0.1-0.5q0.6-0.1 0.8-0.3 0.2-0.2 0.3-0.8l1-5.2q0.1-0.6-0.1-0.8-0.1-0.2-0.7-0.3l0.1-0.4h3.4l-0.2 1.3q1.3-1.6 2.8-1.6 1.2 0 1.7 0.7 0.5 0.7 0.3 1.9l-0.8 4.5q-0.1 0.6 0 0.8 0.2 0.2 0.7 0.2l-0.1 0.5h-4.2v-0.5q0.5 0 0.7-0.3 0.3-0.2 0.4-0.7l0.8-4.4q0.2-1.4-0.7-1.4zm-0.5 0q-0.5 0-1.1 0.4-0.6 0.4-0.6 0.6l-0.9 4.8q-0.1 0.5 0.1 0.7 0.1 0.3 0.6 0.3l-0.1 0.5h-4.3l0.1-0.5q0.6-0.1 0.8-0.3 0.2-0.2 0.3-0.8l1-5.2q0.1-0.6-0.1-0.8-0.1-0.2-0.7-0.3l0.1-0.4h3.4l-0.2 1.3q1.3-1.6 2.9-1.6 1.1 0 1.6 0.7 0.5 0.7 0.3 1.9l-0.8 4.5q-0.1 0.6 0 0.8 0.2 0.2 0.7 0.2l-0.1 0.5h-4.2l0.1-0.5q0.4 0 0.7-0.3 0.2-0.2 0.3-0.7l0.8-4.4q0.3-1.4-0.7-1.4zm8.2 0q0 0.1 0.2 0.5 0.2 0.4 0.1 0.7-0.1 0.4-0.5 0.7-0.4 0.3-0.9 0.3-0.6 0-0.8-0.3-0.3-0.3-0.2-0.9 0.2-1 1.3-1.6 1-0.7 2.6-0.7 1.6 0 2.4 0.7 0.9 0.7 0.7 1.8l-0.9 4.7q-0.1 0.5 0.3 0.5 0.1 0 0.2-0.1l0.2-0.2 0.2 0.4q-1.1 1-2.2 1-0.6 0-0.9-0.3-0.3-0.3-0.3-0.9-1.6 1.2-3.1 1.2-0.8 0-1.3-0.5-0.5-0.6-0.3-1.4 0.1-0.6 0.4-1 0.4-0.5 0.9-0.8 0.4-0.3 1.2-0.6 0.7-0.3 1.3-0.5 0.5-0.2 1.3-0.4 0.2 0 0.3-0.1l0.3-1.3q0.1-0.8-0.2-1.2-0.3-0.4-1.1-0.4-0.4 0-0.8 0.2-0.4 0.2-0.4 0.5zm1.6 5.5l0.5-2.7q-2.3 0.6-2.6 2.2-0.1 0.6 0.1 0.9 0.2 0.3 0.6 0.3 0.6 0 1.4-0.7zm-2.1-5.5q0 0.1 0.2 0.5 0.2 0.4 0.1 0.7 0 0.4-0.4 0.7-0.4 0.3-1 0.3-0.5 0-0.8-0.3-0.2-0.3-0.1-0.9 0.2-1 1.2-1.6 1.1-0.7 2.6-0.7 1.6 0 2.5 0.7 0.8 0.7 0.6 1.8l-0.9 4.7q0 0.5 0.3 0.5 0.2 0 0.3-0.1l0.2-0.2 0.2 0.4q-1.2 1-2.2 1-0.7 0-1-0.3-0.3-0.3-0.3-0.9-1.6 1.2-3.1 1.2-0.8 0-1.3-0.5-0.5-0.6-0.3-1.4 0.1-0.6 0.5-1 0.4-0.5 0.8-0.8 0.5-0.3 1.2-0.6 0.8-0.3 1.3-0.5 0.5-0.2 1.3-0.4 0.2 0 0.4-0.1l0.2-1.3q0.1-0.8-0.1-1.2-0.3-0.4-1.1-0.4-0.5 0-0.9 0.2-0.3 0.2-0.4 0.5zm1.6 5.5l0.5-2.7q-2.3 0.6-2.6 2.2-0.1 0.6 0.1 0.9 0.2 0.3 0.6 0.3 0.6 0 1.4-0.7zm11-6.5h2.7l-0.1 0.4q-0.4 0-0.6 0.2-0.3 0.2-0.6 0.8l-4.2 7.1h-0.4l-1.2-5.3q-0.1-0.4-0.3-1-0.1-0.6-0.3-1.1-0.1-0.4-0.1-0.4-0.2-0.2-0.6-0.3l0.1-0.4h4.5l-0.1 0.4q-0.3 0-0.4 0-0.6 0.1-0.7 0.5 0 0.1 0.1 0.5l0.8 3.7 1.8-3.3q0.3-0.5 0.4-0.8 0.1-0.3-0.1-0.4-0.2-0.2-0.8-0.2zm-0.5 0h2.8l-0.1 0.4q-0.4 0.1-0.7 0.2-0.2 0.2-0.5 0.8l-4.2 7.1h-0.5l-1.2-5.3q0-0.3-0.2-0.9-0.2-0.7-0.3-1.1-0.2-0.5-0.2-0.5-0.1-0.2-0.6-0.3l0.1-0.4h4.5l-0.1 0.4q-0.3 0.1-0.3 0.1-0.6 0-0.7 0.4 0 0.1 0 0.6l0.8 3.6 1.9-3.3q0.3-0.5 0.3-0.8 0.1-0.3-0.1-0.4-0.2-0.1-0.7-0.2zm4.2 0h3.5l-1.3 6.9q-0.1 0.5 0.1 0.7 0.2 0.2 0.6 0.3v0.4h-4.4l0.1-0.4q0.6-0.2 0.8-0.3 0.2-0.2 0.3-0.8l1-5.3q0.1-0.5 0-0.7-0.2-0.2-0.7-0.3zm1.8-3.8q0.5-0.4 1.1-0.4 0.6 0 0.9 0.4 0.3 0.4 0.2 1-0.1 0.6-0.6 1-0.4 0.4-1 0.4-0.6 0-0.9-0.4-0.4-0.4-0.3-1 0.1-0.6 0.6-1zm-2.3 3.8h3.4l-1.2 6.8q-0.1 0.5 0.1 0.7 0.1 0.3 0.6 0.3l-0.1 0.5h-4.3v-0.5q0.7-0.1 0.9-0.3 0.2-0.2 0.3-0.8l1-5.2q0.1-0.6-0.1-0.8-0.1-0.2-0.7-0.3zm1.9-3.7q0.5-0.5 1-0.5 0.6 0 0.9 0.5 0.4 0.4 0.3 1-0.1 0.5-0.6 0.9-0.5 0.4-1.1 0.4-0.6 0-0.9-0.4-0.3-0.4-0.2-1 0.1-0.5 0.6-0.9zm6.1 4.7q0 0.1 0.2 0.5 0.2 0.4 0.1 0.7-0.1 0.5-0.4 0.7-0.4 0.3-1 0.3-0.5 0-0.8-0.3-0.2-0.3-0.1-0.9 0.2-1 1.2-1.6 1.1-0.6 2.6-0.6 1.6 0 2.5 0.6 0.8 0.7 0.6 1.8l-0.9 4.7q0 0.5 0.3 0.5 0.2 0 0.2-0.1l0.3-0.2 0.2 0.4q-1.2 1-2.2 1-0.7 0-1-0.2-0.3-0.3-0.3-1-1.6 1.2-3.1 1.2-0.8 0-1.3-0.5-0.5-0.5-0.3-1.4 0.1-0.5 0.5-1 0.4-0.5 0.8-0.8 0.5-0.3 1.2-0.6 0.8-0.3 1.3-0.5 0.5-0.1 1.3-0.4 0.2 0 0.3-0.1l0.3-1.3q0.1-0.8-0.2-1.2-0.2-0.4-1-0.4-0.5 0-0.9 0.2-0.3 0.2-0.4 0.5zm1.6 5.5l0.5-2.6q-2.3 0.6-2.6 2.2-0.1 0.5 0.1 0.8 0.2 0.4 0.6 0.4 0.6 0 1.4-0.8zm-2.1-5.5q0 0.1 0.2 0.5 0.2 0.4 0.2 0.7-0.1 0.5-0.5 0.7-0.4 0.3-1 0.3-0.5 0-0.8-0.3-0.2-0.3-0.1-0.9 0.2-1 1.2-1.6 1.1-0.6 2.6-0.6 1.6 0 2.5 0.6 0.8 0.7 0.6 1.8l-0.8 4.7q-0.1 0.5 0.3 0.5 0.1 0 0.2-0.1l0.2-0.2 0.2 0.4q-1.2 1-2.2 1-0.7 0-1-0.2-0.2-0.3-0.3-1-1.6 1.2-3 1.2-0.9 0-1.4-0.5-0.4-0.5-0.3-1.4 0.1-0.5 0.5-1 0.4-0.5 0.8-0.8 0.5-0.3 1.2-0.6 0.8-0.3 1.3-0.5 0.5-0.1 1.4-0.4 0.2 0 0.3-0.1l0.2-1.3q0.2-0.8-0.1-1.2-0.3-0.4-1.1-0.4-0.5 0-0.9 0.2-0.3 0.2-0.4 0.5zm1.7 5.5l0.4-2.6q-2.3 0.6-2.6 2.2-0.1 0.5 0.1 0.8 0.2 0.4 0.6 0.4 0.7 0 1.5-0.8zm-214 17.3h4.1l-0.3 2h-4.1zm-0.5 0h4.1l-0.3 2h-4.1zm16.4-6.9q0.8 0 1.6 0.3 0.9 0.2 1 0.2 0.2 0 0.3-0.1 0.2-0.1 0.3-0.4h0.5l-0.6 3.7h-0.5q-0.2-1.7-1-2.4-0.7-0.8-1.7-0.8-0.9 0-1.5 0.5-0.6 0.4-0.7 1.2-0.1 0.6 0.2 1 0.3 0.4 1.2 0.9l2.3 1.3q0.7 0.4 1.1 1.2 0.4 0.9 0.2 1.9-0.3 1.6-1.7 2.6-1.3 1-3.2 1-0.9 0-1.8-0.3-0.8-0.3-1-0.3-0.4 0-0.6 0.6h-0.5l0.8-4.2h0.5q0.2 3.6 2.8 3.6 0.9 0 1.6-0.5 0.7-0.6 0.9-1.4 0.1-0.7-0.2-1.1-0.3-0.5-1.4-1l-1-0.5q-1.4-0.8-1.9-1.6-0.6-0.8-0.4-2 0.3-1.6 1.5-2.5 1.1-0.9 2.9-0.9zm-0.5 0q0.8 0 1.7 0.3 0.8 0.2 0.9 0.2 0.2 0 0.4-0.1 0.1-0.1 0.3-0.4h0.5l-0.7 3.7h-0.5q-0.2-1.7-0.9-2.4-0.7-0.8-1.8-0.8-0.8 0-1.4 0.5-0.6 0.4-0.8 1.2-0.1 0.6 0.2 1 0.3 0.4 1.2 0.9l2.3 1.3q0.8 0.4 1.1 1.2 0.4 0.9 0.2 1.9-0.3 1.6-1.6 2.6-1.4 1-3.2 1-1 0-1.8-0.3-0.9-0.3-1-0.3-0.4 0-0.7 0.6h-0.4l0.7-4.2h0.5q0.2 3.6 2.8 3.6 1 0 1.7-0.5 0.6-0.6 0.8-1.4 0.1-0.7-0.2-1.1-0.3-0.5-1.3-1l-1.1-0.5q-1.3-0.8-1.9-1.6-0.5-0.8-0.3-2 0.3-1.6 1.4-2.5 1.2-0.9 2.9-0.9zm5.6 3.9h3.3l-1.2 6.5q-0.1 0.4 0.1 0.7 0.1 0.2 0.6 0.2l-0.1 0.4h-4.1l0.1-0.4q0.6-0.1 0.8-0.3 0.2-0.2 0.3-0.7l0.9-5q0.1-0.5-0.1-0.7-0.1-0.2-0.6-0.3zm1.7-3.5q0.5-0.4 1.1-0.4 0.5 0 0.8 0.4 0.3 0.4 0.2 0.9-0.1 0.6-0.5 1-0.5 0.3-1 0.3-0.6 0-0.9-0.3-0.3-0.4-0.2-1 0.1-0.5 0.5-0.9zm-2.2 3.5h3.3l-1.2 6.5q-0.1 0.4 0.1 0.7 0.1 0.2 0.6 0.2l-0.1 0.4h-4.1l0.1-0.4q0.6-0.1 0.8-0.3 0.2-0.2 0.3-0.7l0.9-5q0.1-0.5-0.1-0.7-0.1-0.2-0.7-0.3zm1.8-3.5q0.5-0.4 1-0.4 0.6 0 0.9 0.4 0.3 0.4 0.2 0.9-0.1 0.6-0.6 1-0.4 0.3-1 0.3-0.5 0-0.8-0.3-0.3-0.4-0.2-1 0.1-0.5 0.5-0.9zm8.5 4.4q-0.5 0-1 0.5-0.6 0.3-0.6 0.5l-0.8 4.6q-0.1 0.4 0 0.7 0.1 0.2 0.6 0.2l-0.1 0.4h-4.1l0.1-0.4q0.6-0.1 0.8-0.3 0.2-0.2 0.3-0.7l0.9-5q0.1-0.5 0-0.7-0.2-0.2-0.7-0.3l0.1-0.4h3.2l-0.2 1.3q1.2-1.5 2.7-1.5 1 0 1.5 0.7 0.5 0.6 0.3 1.7l-0.7 4.3q-0.1 0.5 0 0.7 0.1 0.2 0.6 0.2l-0.1 0.4h-4l0.1-0.4q0.5 0 0.7-0.2 0.2-0.3 0.3-0.7l0.7-4.1q0.3-1.5-0.6-1.5zm-0.4 0q-0.5 0-1.1 0.5-0.5 0.3-0.6 0.5l-0.8 4.6q-0.1 0.4 0 0.7 0.2 0.2 0.7 0.2l-0.1 0.4h-4.1l0.1-0.4q0.6-0.1 0.8-0.3 0.2-0.2 0.3-0.7l0.9-5q0.1-0.5-0.1-0.7-0.1-0.2-0.7-0.3l0.1-0.4h3.3l-0.3 1.3q1.2-1.5 2.7-1.5 1.1 0 1.6 0.7 0.5 0.6 0.3 1.7l-0.8 4.3q-0.1 0.5 0 0.7 0.2 0.2 0.7 0.2l-0.1 0.4h-4l0.1-0.4q0.4 0 0.6-0.2 0.3-0.3 0.4-0.7l0.7-4.1q0.3-1.5-0.6-1.5zm11.2 5.1l0.2 0.3q-0.9 1-1.7 1.4-0.9 0.4-1.8 0.4-1.6 0-2.5-1.2-0.8-1.1-0.4-2.8 0.3-1.9 1.6-3.1 1.4-1.2 3.1-1.2 1.2 0 1.8 0.5 0.7 0.6 0.5 1.4-0.1 0.5-0.4 0.8-0.4 0.2-0.9 0.2-1 0-0.7-1.2 0.1-0.7 0-0.8-0.1-0.4-0.5-0.4-0.7 0-1.2 0.8-0.5 0.7-0.8 2.1-0.3 1.7 0.2 2.7 0.4 1 1.5 1 0.6 0 1-0.2 0.4-0.2 1-0.7zm-0.5 0l0.3 0.3q-0.9 1-1.8 1.4-0.8 0.4-1.8 0.4-1.6 0-2.4-1.2-0.8-1.1-0.5-2.8 0.3-1.9 1.7-3.1 1.4-1.2 3.1-1.2 1.1 0 1.8 0.5 0.6 0.6 0.5 1.4-0.1 0.5-0.5 0.8-0.3 0.2-0.9 0.2-0.9 0-0.7-1.2 0.1-0.7 0.1-0.8-0.1-0.4-0.6-0.4-0.7 0-1.2 0.8-0.5 0.7-0.7 2.1-0.3 1.7 0.1 2.7 0.5 1 1.6 1 0.5 0 0.9-0.2 0.5-0.2 1-0.7zm8.7-2.3h-4.2q-0.1 0.4-0.1 0.8 0 0.4 0 0.8 0 0.5 0.2 0.8 0.2 0.3 0.5 0.5 0.3 0.3 0.8 0.3 0.5 0 1-0.3 0.5-0.2 1.1-0.9l0.4 0.3q-1 1.1-1.9 1.6-0.8 0.5-1.8 0.5-1.6 0-2.3-1.1-0.8-1.2-0.4-3 0.3-1.9 1.5-3 1.2-1.2 2.8-1.2 2.9 0 2.4 3.9zm-1.9-0.6v-0.3q0.1-0.5 0.1-0.8 0.1-0.3 0.1-0.7 0-0.4-0.1-0.5-0.1-0.2-0.3-0.3-0.1-0.2-0.4-0.2-0.7 0-1 0.6-0.4 0.6-0.7 2.2zm1.5 0.6h-4.3q0 0.4-0.1 0.8 0 0.4 0.1 0.8 0 0.5 0.2 0.8 0.1 0.3 0.4 0.5 0.4 0.3 0.9 0.3 0.5 0 1-0.3 0.5-0.2 1.1-0.9l0.4 0.3q-1.1 1.1-1.9 1.6-0.8 0.5-1.8 0.5-1.6 0-2.4-1.1-0.7-1.2-0.4-3 0.4-1.9 1.5-3 1.2-1.2 2.8-1.2 2.9 0 2.5 3.9zm-2-0.6l0.1-0.3q0.1-0.5 0.1-0.8 0-0.3 0-0.7 0-0.4-0.1-0.5 0-0.2-0.2-0.3-0.2-0.2-0.5-0.2-0.6 0-1 0.6-0.3 0.6-0.6 2.2zm9.7-3.5h-0.5q1.9-3.4 4.4-3.4 1.4 0 2.1 0.8 0.7 0.9 0.5 2.3-0.4 1.8-2.7 3.7l-3.2 2.6h2.6q1.3 0 1.7-0.2 0.4-0.2 1-1.1h0.4l-1.5 3.5h-7v-0.3q3.5-3.1 4.7-4.6 1.3-1.5 1.5-2.7 0.1-0.8-0.3-1.5-0.5-0.6-1.4-0.6-1.3 0-2.3 1.5zm-0.5 0h-0.4q1.9-3.4 4.3-3.4 1.4 0 2.1 0.8 0.8 0.9 0.5 2.3-0.3 1.8-2.6 3.7l-3.2 2.6h2.5q1.3 0 1.8-0.2 0.4-0.2 0.9-1.1h0.4l-1.4 3.5h-7.1l0.1-0.3q3.5-3.1 4.7-4.6 1.2-1.5 1.4-2.7 0.2-0.8-0.3-1.5-0.4-0.6-1.3-0.6-1.3 0-2.4 1.5zm8.4 2.5q0.5-2.5 1.9-4.2 1.4-1.7 3-1.7 1.7 0 2.4 1.7 0.8 1.7 0.4 4.2-0.5 2.6-1.9 4.3-1.4 1.7-3 1.7-1.7 0-2.5-1.7-0.8-1.7-0.3-4.3zm2.9 5.5q0.5 0 0.9-0.8 0.5-0.7 0.8-2.7l0.7-3.9q0.4-1.9 0.3-2.7-0.2-0.9-0.8-0.9-0.6 0-1 0.8-0.4 0.9-0.8 2.8l-0.7 3.9q-0.3 1.9-0.2 2.7 0.1 0.8 0.8 0.8zm-3.3-5.5q0.4-2.5 1.8-4.2 1.4-1.7 3.1-1.7 1.6 0 2.4 1.7 0.8 1.7 0.3 4.2-0.4 2.6-1.8 4.3-1.4 1.7-3.1 1.7-1.7 0-2.5-1.7-0.7-1.7-0.2-4.3zm2.8 5.5q0.6 0 1-0.8 0.4-0.7 0.8-2.7l0.7-3.9q0.3-1.9 0.2-2.7-0.1-0.9-0.7-0.9-0.6 0-1.1 0.8-0.4 0.9-0.7 2.8l-0.7 3.9q-0.4 1.9-0.2 2.7 0.1 0.8 0.7 0.8zm7.6-8h-0.5q1.9-3.4 4.4-3.4 1.4 0 2.1 0.8 0.7 0.9 0.5 2.3-0.4 1.8-2.6 3.7l-3.3 2.6h2.6q1.3 0 1.7-0.2 0.4-0.2 1-1.1h0.4l-1.4 3.5h-7.1l0.1-0.3q3.4-3.1 4.6-4.6 1.3-1.5 1.5-2.7 0.1-0.8-0.3-1.5-0.4-0.6-1.3-0.6-1.4 0-2.4 1.5zm-0.4 0h-0.5q1.9-3.4 4.3-3.4 1.4 0 2.1 0.8 0.8 0.9 0.5 2.3-0.3 1.8-2.6 3.7l-3.2 2.6h2.6q1.3 0 1.7-0.2 0.4-0.2 0.9-1.1h0.4l-1.4 3.5h-7.1l0.1-0.3q3.5-3.1 4.7-4.6 1.2-1.5 1.4-2.7 0.2-0.8-0.3-1.5-0.4-0.6-1.3-0.6-1.3 0-2.3 1.5zm8.7 5.9q0.6 0 1.5 0.7 0.9 0.7 1.5 0.7 0.7 0 1.3-0.4 0.5-0.5 0.7-1.3 0.1-0.8-0.4-1.5-0.5-0.7-1.6-1-0.9-0.3-2.9-0.5l2.7-5.8h5.4l-1.1 2.1h-4.7l-0.6 1.4q1.7 0.1 2.5 0.3 1.3 0.4 1.9 1.4 0.6 1 0.3 2.3-0.3 1.8-1.8 2.9-1.6 1.2-3.7 1.2-1.1 0-1.7-0.4-0.6-0.4-0.5-1.1 0.1-0.5 0.4-0.7 0.4-0.3 0.8-0.3zm-0.4 0q0.6 0 1.5 0.7 0.9 0.7 1.4 0.7 0.7 0 1.3-0.4 0.6-0.5 0.7-1.3 0.2-0.8-0.3-1.5-0.5-0.7-1.6-1-0.9-0.3-3-0.5l2.7-5.8h5.5l-1.1 2.1h-4.8l-0.6 1.4q1.8 0.1 2.5 0.3 1.3 0.4 1.9 1.4 0.6 1 0.4 2.3-0.3 1.8-1.9 2.9-1.5 1.2-3.6 1.2-1.2 0-1.8-0.4-0.6-0.4-0.5-1.1 0.1-0.5 0.5-0.7 0.3-0.3 0.8-0.3zm13.9-2.5h4.1l-0.4 1.9h-4.1zm-0.4 0h4.1l-0.4 2h-4.1z"/>
	<path id="Form 3" fill-rule="evenodd" class="s1" d="m81.29 215.43h27.19c1.84 0 3.32 1.69 3.32 3.78 0 2.1-1.48 3.79-3.32 3.79h-53.16c-1.84 0-3.32-1.69-3.32-3.79 0-2.09 1.48-3.78 3.32-3.78h18.9l7.49-23.44 6.24 2.6c-0.01 0-6.66 20.84-6.66 20.84zm22.02-40.67l-0.02-0.71q-0.04-1.51-0.35-2.93c5.9 6.26 9.06 15.37 8.39 24.66-0.17 2.27-2.24 3.55-4.12 2.77l-7.03-2.91 0.35-1.08c2.02-6.34 2.97-13.06 2.78-19.8zm-3.32 0.11c0.17 6.26-0.71 12.5-2.59 18.39l-0.34 1.08-21.86-9.06 0.35-1.08c1.89-5.89 4.73-11.32 8.4-15.98l0.41-0.54c2.42-3.09 6.24-4.2 9.67-2.81q0.14 0.06 0.29 0.13c3.31 1.49 5.53 5.09 5.65 9.16zm-15.97-11.87q-1.16 0.93-2.13 2.15l-0.42 0.54c-3.94 5.02-7.01 10.87-9.04 17.21l-0.34 1.07-7.37-3.05c-1.88-0.78-2.74-3.27-1.59-5.13 4.83-7.8 12.62-12.49 20.89-12.79z"/>
	<path id="Form 4" fill-rule="evenodd" class="s1" d="m552.3 97.71c1.23-0.71 2.76-0.64 3.92 0.17 1.17 0.8 1.78 2.23 1.56 3.64l-7.38 48.57c-0.36 2.36-2.89 3.8-5.07 2.88l-14.3-6.02-7.15 8.67c-0.71 0.88-1.78 1.38-2.9 1.38-2.08 0-3.77-1.7-3.77-3.82v-12.06l-16.19-6.83c-2.78-1.17-3.02-5.18-0.41-6.69zm-31.48 38.86l-0.14-0.12 25.34-28.65-39.4 22.78zm29.94-25.74l-24.7 27.94 19.22 8.12z"/>
</svg>